G04 #@! TF.GenerationSoftware,KiCad,Pcbnew,(5.1.2)-1*
G04 #@! TF.CreationDate,2019-09-18T07:38:14-07:00*
G04 #@! TF.ProjectId,AppleIIPerfBoardCard,4170706c-6549-4495-9065-7266426f6172,rev?*
G04 #@! TF.SameCoordinates,Original*
G04 #@! TF.FileFunction,Legend,Bot*
G04 #@! TF.FilePolarity,Positive*
%FSLAX46Y46*%
G04 Gerber Fmt 4.6, Leading zero omitted, Abs format (unit mm)*
G04 Created by KiCad (PCBNEW (5.1.2)-1) date 2019-09-18 07:38:14*
%MOMM*%
%LPD*%
G04 APERTURE LIST*
%ADD10C,0.150000*%
%ADD11C,0.125000*%
%ADD12C,0.120000*%
%ADD13O,1.802000X1.802000*%
%ADD14C,1.802000*%
%ADD15R,1.372000X7.402000*%
%ADD16R,1.802000X1.802000*%
G04 APERTURE END LIST*
D10*
X209652812Y-60940700D02*
X209652812Y-61654986D01*
X209605193Y-61797843D01*
X209509955Y-61893081D01*
X209367098Y-61940700D01*
X209271860Y-61940700D01*
X210605193Y-61940700D02*
X210129002Y-61940700D01*
X210129002Y-60940700D01*
X211509955Y-61845462D02*
X211462336Y-61893081D01*
X211319479Y-61940700D01*
X211224240Y-61940700D01*
X211081383Y-61893081D01*
X210986145Y-61797843D01*
X210938526Y-61702605D01*
X210890907Y-61512129D01*
X210890907Y-61369272D01*
X210938526Y-61178796D01*
X210986145Y-61083558D01*
X211081383Y-60988320D01*
X211224240Y-60940700D01*
X211319479Y-60940700D01*
X211462336Y-60988320D01*
X211509955Y-61035939D01*
X212224240Y-60940700D02*
X212224240Y-61654986D01*
X212176621Y-61797843D01*
X212081383Y-61893081D01*
X211938526Y-61940700D01*
X211843288Y-61940700D01*
X213176621Y-61940700D02*
X212700431Y-61940700D01*
X212700431Y-60940700D01*
X214081383Y-61845462D02*
X214033764Y-61893081D01*
X213890907Y-61940700D01*
X213795669Y-61940700D01*
X213652812Y-61893081D01*
X213557574Y-61797843D01*
X213509955Y-61702605D01*
X213462336Y-61512129D01*
X213462336Y-61369272D01*
X213509955Y-61178796D01*
X213557574Y-61083558D01*
X213652812Y-60988320D01*
X213795669Y-60940700D01*
X213890907Y-60940700D01*
X214033764Y-60988320D01*
X214081383Y-61035939D01*
X214795669Y-60940700D02*
X214795669Y-61654986D01*
X214748050Y-61797843D01*
X214652812Y-61893081D01*
X214509955Y-61940700D01*
X214414717Y-61940700D01*
X215748050Y-61940700D02*
X215271860Y-61940700D01*
X215271860Y-60940700D01*
X216652812Y-61845462D02*
X216605193Y-61893081D01*
X216462336Y-61940700D01*
X216367098Y-61940700D01*
X216224240Y-61893081D01*
X216129002Y-61797843D01*
X216081383Y-61702605D01*
X216033764Y-61512129D01*
X216033764Y-61369272D01*
X216081383Y-61178796D01*
X216129002Y-61083558D01*
X216224240Y-60988320D01*
X216367098Y-60940700D01*
X216462336Y-60940700D01*
X216605193Y-60988320D01*
X216652812Y-61035939D01*
X217367098Y-60940700D02*
X217367098Y-61654986D01*
X217319479Y-61797843D01*
X217224240Y-61893081D01*
X217081383Y-61940700D01*
X216986145Y-61940700D01*
X218319479Y-61940700D02*
X217843288Y-61940700D01*
X217843288Y-60940700D01*
X219224240Y-61845462D02*
X219176621Y-61893081D01*
X219033764Y-61940700D01*
X218938526Y-61940700D01*
X218795669Y-61893081D01*
X218700431Y-61797843D01*
X218652812Y-61702605D01*
X218605193Y-61512129D01*
X218605193Y-61369272D01*
X218652812Y-61178796D01*
X218700431Y-61083558D01*
X218795669Y-60988320D01*
X218938526Y-60940700D01*
X219033764Y-60940700D01*
X219176621Y-60988320D01*
X219224240Y-61035939D01*
X232258193Y-126444760D02*
X231591526Y-126444760D01*
X232258193Y-127444760D01*
X231591526Y-127444760D01*
X231924860Y-124428570D02*
X231924860Y-124904760D01*
X232258193Y-123904760D02*
X231924860Y-124428570D01*
X231591526Y-123904760D01*
X232267673Y-121387620D02*
X231601006Y-122387620D01*
X231601006Y-121387620D02*
X232267673Y-122387620D01*
X232353431Y-118824760D02*
X232115336Y-119824760D01*
X231924860Y-119110475D01*
X231734383Y-119824760D01*
X231496288Y-118824760D01*
X232258193Y-116284760D02*
X231924860Y-117284760D01*
X231591526Y-116284760D01*
X232210574Y-113744760D02*
X232210574Y-114554284D01*
X232162955Y-114649522D01*
X232115336Y-114697141D01*
X232020098Y-114744760D01*
X231829621Y-114744760D01*
X231734383Y-114697141D01*
X231686764Y-114649522D01*
X231639145Y-114554284D01*
X231639145Y-113744760D01*
X232210574Y-111204760D02*
X231639145Y-111204760D01*
X231924860Y-112204760D02*
X231924860Y-111204760D01*
X232195334Y-109624761D02*
X232052477Y-109672380D01*
X231814381Y-109672380D01*
X231719143Y-109624761D01*
X231671524Y-109577142D01*
X231623905Y-109481904D01*
X231623905Y-109386666D01*
X231671524Y-109291428D01*
X231719143Y-109243809D01*
X231814381Y-109196190D01*
X232004858Y-109148571D01*
X232100096Y-109100952D01*
X232147715Y-109053333D01*
X232195334Y-108958095D01*
X232195334Y-108862857D01*
X232147715Y-108767619D01*
X232100096Y-108720000D01*
X232004858Y-108672380D01*
X231766762Y-108672380D01*
X231623905Y-108720000D01*
X231600096Y-107132380D02*
X231933429Y-106656190D01*
X232171524Y-107132380D02*
X232171524Y-106132380D01*
X231790572Y-106132380D01*
X231695334Y-106180000D01*
X231647715Y-106227619D01*
X231600096Y-106322857D01*
X231600096Y-106465714D01*
X231647715Y-106560952D01*
X231695334Y-106608571D01*
X231790572Y-106656190D01*
X232171524Y-106656190D01*
X231528667Y-104687619D02*
X231623905Y-104640000D01*
X231719143Y-104544761D01*
X231862000Y-104401904D01*
X231957239Y-104354285D01*
X232052477Y-104354285D01*
X232004858Y-104592380D02*
X232100096Y-104544761D01*
X232195334Y-104449523D01*
X232242953Y-104259047D01*
X232242953Y-103925714D01*
X232195334Y-103735238D01*
X232100096Y-103640000D01*
X232004858Y-103592380D01*
X231814381Y-103592380D01*
X231719143Y-103640000D01*
X231623905Y-103735238D01*
X231576286Y-103925714D01*
X231576286Y-104259047D01*
X231623905Y-104449523D01*
X231719143Y-104544761D01*
X231814381Y-104592380D01*
X232004858Y-104592380D01*
X232171524Y-102052380D02*
X232171524Y-101052380D01*
X231790572Y-101052380D01*
X231695334Y-101100000D01*
X231647715Y-101147619D01*
X231600096Y-101242857D01*
X231600096Y-101385714D01*
X231647715Y-101480952D01*
X231695334Y-101528571D01*
X231790572Y-101576190D01*
X232171524Y-101576190D01*
X232004858Y-98512380D02*
X231814381Y-98512380D01*
X231719143Y-98560000D01*
X231623905Y-98655238D01*
X231576286Y-98845714D01*
X231576286Y-99179047D01*
X231623905Y-99369523D01*
X231719143Y-99464761D01*
X231814381Y-99512380D01*
X232004858Y-99512380D01*
X232100096Y-99464761D01*
X232195334Y-99369523D01*
X232242953Y-99179047D01*
X232242953Y-98845714D01*
X232195334Y-98655238D01*
X232100096Y-98560000D01*
X232004858Y-98512380D01*
X232210574Y-96974920D02*
X232210574Y-95974920D01*
X231639145Y-96974920D01*
X231639145Y-95974920D01*
X232258193Y-94434920D02*
X232258193Y-93434920D01*
X231924860Y-94149206D01*
X231591526Y-93434920D01*
X231591526Y-94434920D01*
X231615336Y-91894920D02*
X232091526Y-91894920D01*
X232091526Y-90894920D01*
X232191844Y-89352380D02*
X232191844Y-88352380D01*
X231620416Y-89352380D02*
X232048987Y-88780952D01*
X231620416Y-88352380D02*
X232191844Y-88923809D01*
X231787082Y-85814920D02*
X231787082Y-86529206D01*
X231834701Y-86672063D01*
X231929940Y-86767301D01*
X232072797Y-86814920D01*
X232168035Y-86814920D01*
X231929940Y-84277460D02*
X231929940Y-83277460D01*
X232215654Y-81740000D02*
X232215654Y-80740000D01*
X232215654Y-81216191D02*
X231644225Y-81216191D01*
X231644225Y-81740000D02*
X231644225Y-80740000D01*
X231662955Y-78240000D02*
X231758193Y-78192380D01*
X231901050Y-78192380D01*
X232043907Y-78240000D01*
X232139145Y-78335238D01*
X232186764Y-78430476D01*
X232234383Y-78620952D01*
X232234383Y-78763809D01*
X232186764Y-78954285D01*
X232139145Y-79049523D01*
X232043907Y-79144761D01*
X231901050Y-79192380D01*
X231805812Y-79192380D01*
X231662955Y-79144761D01*
X231615336Y-79097142D01*
X231615336Y-78763809D01*
X231805812Y-78763809D01*
X231782002Y-76131111D02*
X232115336Y-76131111D01*
X232115336Y-76654920D02*
X232115336Y-75654920D01*
X231639145Y-75654920D01*
X232144225Y-73593651D02*
X231810892Y-73593651D01*
X231668035Y-74117460D02*
X232144225Y-74117460D01*
X232144225Y-73117460D01*
X231668035Y-73117460D01*
X232191844Y-71580000D02*
X232191844Y-70580000D01*
X231953749Y-70580000D01*
X231810892Y-70627620D01*
X231715654Y-70722858D01*
X231668035Y-70818096D01*
X231620416Y-71008572D01*
X231620416Y-71151429D01*
X231668035Y-71341905D01*
X231715654Y-71437143D01*
X231810892Y-71532381D01*
X231953749Y-71580000D01*
X232191844Y-71580000D01*
X231620416Y-68944762D02*
X231668035Y-68992381D01*
X231810892Y-69040000D01*
X231906130Y-69040000D01*
X232048987Y-68992381D01*
X232144225Y-68897143D01*
X232191844Y-68801905D01*
X232239463Y-68611429D01*
X232239463Y-68468572D01*
X232191844Y-68278096D01*
X232144225Y-68182858D01*
X232048987Y-68087620D01*
X231906130Y-68040000D01*
X231810892Y-68040000D01*
X231668035Y-68087620D01*
X231620416Y-68135239D01*
X231862911Y-65978731D02*
X231720054Y-66026350D01*
X231672435Y-66073969D01*
X231624816Y-66169207D01*
X231624816Y-66312064D01*
X231672435Y-66407302D01*
X231720054Y-66454921D01*
X231815292Y-66502540D01*
X232196244Y-66502540D01*
X232196244Y-65502540D01*
X231862911Y-65502540D01*
X231767673Y-65550160D01*
X231720054Y-65597779D01*
X231672435Y-65693017D01*
X231672435Y-65788255D01*
X231720054Y-65883493D01*
X231767673Y-65931112D01*
X231862911Y-65978731D01*
X232196244Y-65978731D01*
X232172435Y-63676826D02*
X231696244Y-63676826D01*
X232267673Y-63962540D02*
X231934340Y-62962540D01*
X231601006Y-63962540D01*
X56162533Y-126426980D02*
X55495866Y-126426980D01*
X56162533Y-127426980D01*
X55495866Y-127426980D01*
X55836820Y-124413330D02*
X55836820Y-124889520D01*
X56170153Y-123889520D02*
X55836820Y-124413330D01*
X55503486Y-123889520D01*
X56170153Y-121352060D02*
X55503486Y-122352060D01*
X55503486Y-121352060D02*
X56170153Y-122352060D01*
X56270471Y-118819680D02*
X56032376Y-119819680D01*
X55841900Y-119105395D01*
X55651423Y-119819680D01*
X55413328Y-118819680D01*
X56177093Y-116281480D02*
X55843760Y-117281480D01*
X55510426Y-116281480D01*
X56099674Y-113711740D02*
X56099674Y-114521264D01*
X56052055Y-114616502D01*
X56004436Y-114664121D01*
X55909198Y-114711740D01*
X55718721Y-114711740D01*
X55623483Y-114664121D01*
X55575864Y-114616502D01*
X55528245Y-114521264D01*
X55528245Y-113711740D01*
X56104754Y-111273340D02*
X55533325Y-111273340D01*
X55819040Y-112273340D02*
X55819040Y-111273340D01*
X56099674Y-109584121D02*
X55956817Y-109631740D01*
X55718721Y-109631740D01*
X55623483Y-109584121D01*
X55575864Y-109536502D01*
X55528245Y-109441264D01*
X55528245Y-109346026D01*
X55575864Y-109250788D01*
X55623483Y-109203169D01*
X55718721Y-109155550D01*
X55909198Y-109107931D01*
X56004436Y-109060312D01*
X56052055Y-109012693D01*
X56099674Y-108917455D01*
X56099674Y-108822217D01*
X56052055Y-108726979D01*
X56004436Y-108679360D01*
X55909198Y-108631740D01*
X55671102Y-108631740D01*
X55528245Y-108679360D01*
X55504436Y-107091740D02*
X55837769Y-106615550D01*
X56075864Y-107091740D02*
X56075864Y-106091740D01*
X55694912Y-106091740D01*
X55599674Y-106139360D01*
X55552055Y-106186979D01*
X55504436Y-106282217D01*
X55504436Y-106425074D01*
X55552055Y-106520312D01*
X55599674Y-106567931D01*
X55694912Y-106615550D01*
X56075864Y-106615550D01*
X55433007Y-104646979D02*
X55528245Y-104599360D01*
X55623483Y-104504121D01*
X55766340Y-104361264D01*
X55861579Y-104313645D01*
X55956817Y-104313645D01*
X55909198Y-104551740D02*
X56004436Y-104504121D01*
X56099674Y-104408883D01*
X56147293Y-104218407D01*
X56147293Y-103885074D01*
X56099674Y-103694598D01*
X56004436Y-103599360D01*
X55909198Y-103551740D01*
X55718721Y-103551740D01*
X55623483Y-103599360D01*
X55528245Y-103694598D01*
X55480626Y-103885074D01*
X55480626Y-104218407D01*
X55528245Y-104408883D01*
X55623483Y-104504121D01*
X55718721Y-104551740D01*
X55909198Y-104551740D01*
X56096184Y-102039680D02*
X56096184Y-101039680D01*
X55715232Y-101039680D01*
X55619994Y-101087300D01*
X55572375Y-101134919D01*
X55524756Y-101230157D01*
X55524756Y-101373014D01*
X55572375Y-101468252D01*
X55619994Y-101515871D01*
X55715232Y-101563490D01*
X56096184Y-101563490D01*
X55921898Y-98486980D02*
X55731421Y-98486980D01*
X55636183Y-98534600D01*
X55540945Y-98629838D01*
X55493326Y-98820314D01*
X55493326Y-99153647D01*
X55540945Y-99344123D01*
X55636183Y-99439361D01*
X55731421Y-99486980D01*
X55921898Y-99486980D01*
X56017136Y-99439361D01*
X56112374Y-99344123D01*
X56159993Y-99153647D01*
X56159993Y-98820314D01*
X56112374Y-98629838D01*
X56017136Y-98534600D01*
X55921898Y-98486980D01*
X56112374Y-96949520D02*
X56112374Y-95949520D01*
X55540945Y-96949520D01*
X55540945Y-95949520D01*
X56159993Y-94412060D02*
X56159993Y-93412060D01*
X55826660Y-94126346D01*
X55493326Y-93412060D01*
X55493326Y-94412060D01*
X55527296Y-91877140D02*
X56003486Y-91877140D01*
X56003486Y-90877140D01*
X56098724Y-89339680D02*
X56098724Y-88339680D01*
X55527296Y-89339680D02*
X55955867Y-88768252D01*
X55527296Y-88339680D02*
X56098724Y-88911109D01*
X55673642Y-85761580D02*
X55673642Y-86475866D01*
X55721261Y-86618723D01*
X55816500Y-86713961D01*
X55959357Y-86761580D01*
X56054595Y-86761580D01*
X55816500Y-84244440D02*
X55816500Y-83244440D01*
X56104754Y-81691740D02*
X56104754Y-80691740D01*
X56104754Y-81167931D02*
X55533325Y-81167931D01*
X55533325Y-81691740D02*
X55533325Y-80691740D01*
X55557135Y-78201900D02*
X55652373Y-78154280D01*
X55795230Y-78154280D01*
X55938087Y-78201900D01*
X56033325Y-78297138D01*
X56080944Y-78392376D01*
X56128563Y-78582852D01*
X56128563Y-78725709D01*
X56080944Y-78916185D01*
X56033325Y-79011423D01*
X55938087Y-79106661D01*
X55795230Y-79154280D01*
X55699992Y-79154280D01*
X55557135Y-79106661D01*
X55509516Y-79059042D01*
X55509516Y-78725709D01*
X55699992Y-78725709D01*
X55686342Y-76103171D02*
X56019676Y-76103171D01*
X56019676Y-76626980D02*
X56019676Y-75626980D01*
X55543485Y-75626980D01*
X56043485Y-73563171D02*
X55710152Y-73563171D01*
X55567295Y-74086980D02*
X56043485Y-74086980D01*
X56043485Y-73086980D01*
X55567295Y-73086980D01*
X56091104Y-71546980D02*
X56091104Y-70546980D01*
X55853009Y-70546980D01*
X55710152Y-70594600D01*
X55614914Y-70689838D01*
X55567295Y-70785076D01*
X55519676Y-70975552D01*
X55519676Y-71118409D01*
X55567295Y-71308885D01*
X55614914Y-71404123D01*
X55710152Y-71499361D01*
X55853009Y-71546980D01*
X56091104Y-71546980D01*
X55524756Y-68914282D02*
X55572375Y-68961901D01*
X55715232Y-69009520D01*
X55810470Y-69009520D01*
X55953327Y-68961901D01*
X56048565Y-68866663D01*
X56096184Y-68771425D01*
X56143803Y-68580949D01*
X56143803Y-68438092D01*
X56096184Y-68247616D01*
X56048565Y-68152378D01*
X55953327Y-68057140D01*
X55810470Y-68009520D01*
X55715232Y-68009520D01*
X55572375Y-68057140D01*
X55524756Y-68104759D01*
X55767931Y-65950791D02*
X55625074Y-65998410D01*
X55577455Y-66046029D01*
X55529836Y-66141267D01*
X55529836Y-66284124D01*
X55577455Y-66379362D01*
X55625074Y-66426981D01*
X55720312Y-66474600D01*
X56101264Y-66474600D01*
X56101264Y-65474600D01*
X55767931Y-65474600D01*
X55672693Y-65522220D01*
X55625074Y-65569839D01*
X55577455Y-65665077D01*
X55577455Y-65760315D01*
X55625074Y-65855553D01*
X55672693Y-65903172D01*
X55767931Y-65950791D01*
X56101264Y-65950791D01*
X56087615Y-63638726D02*
X55611424Y-63638726D01*
X56182853Y-63924440D02*
X55849520Y-62924440D01*
X55516186Y-63924440D01*
X220157589Y-126239276D02*
X220157589Y-127001180D01*
X220538541Y-126620228D02*
X219776637Y-126620228D01*
X219538541Y-127953561D02*
X219538541Y-127477371D01*
X220014732Y-127429752D01*
X219967113Y-127477371D01*
X219919494Y-127572609D01*
X219919494Y-127810704D01*
X219967113Y-127905942D01*
X220014732Y-127953561D01*
X220109970Y-128001180D01*
X220348065Y-128001180D01*
X220443303Y-127953561D01*
X220490922Y-127905942D01*
X220538541Y-127810704D01*
X220538541Y-127572609D01*
X220490922Y-127477371D01*
X220443303Y-127429752D01*
X219538541Y-128286895D02*
X220538541Y-128620228D01*
X219538541Y-128953561D01*
D11*
X217848419Y-126145798D02*
X217248419Y-126145798D01*
X217248419Y-126288655D01*
X217276991Y-126374370D01*
X217334133Y-126431512D01*
X217391276Y-126460084D01*
X217505562Y-126488655D01*
X217591276Y-126488655D01*
X217705562Y-126460084D01*
X217762705Y-126431512D01*
X217819848Y-126374370D01*
X217848419Y-126288655D01*
X217848419Y-126145798D01*
X217848419Y-126745798D02*
X217248419Y-126745798D01*
X217676991Y-126945798D01*
X217248419Y-127145798D01*
X217848419Y-127145798D01*
X217676991Y-127402941D02*
X217676991Y-127688655D01*
X217848419Y-127345798D02*
X217248419Y-127545798D01*
X217848419Y-127745798D01*
X217905562Y-127802941D02*
X217905562Y-128260084D01*
X217248419Y-128517227D02*
X217248419Y-128631512D01*
X217276991Y-128688655D01*
X217334133Y-128745798D01*
X217448419Y-128774370D01*
X217648419Y-128774370D01*
X217762705Y-128745798D01*
X217819848Y-128688655D01*
X217848419Y-128631512D01*
X217848419Y-128517227D01*
X217819848Y-128460084D01*
X217762705Y-128402941D01*
X217648419Y-128374370D01*
X217448419Y-128374370D01*
X217334133Y-128402941D01*
X217276991Y-128460084D01*
X217248419Y-128517227D01*
X217248419Y-129031512D02*
X217734133Y-129031512D01*
X217791276Y-129060084D01*
X217819848Y-129088655D01*
X217848419Y-129145798D01*
X217848419Y-129260084D01*
X217819848Y-129317227D01*
X217791276Y-129345798D01*
X217734133Y-129374370D01*
X217248419Y-129374370D01*
X217248419Y-129574370D02*
X217248419Y-129917227D01*
X217848419Y-129745798D02*
X217248419Y-129745798D01*
X215295031Y-126193370D02*
X214695031Y-126193370D01*
X215295031Y-126479084D02*
X214695031Y-126479084D01*
X215295031Y-126821941D01*
X214695031Y-126821941D01*
X214695031Y-127021941D02*
X214695031Y-127364798D01*
X215295031Y-127193370D02*
X214695031Y-127193370D01*
X215352174Y-127421941D02*
X215352174Y-127879084D01*
X214695031Y-128136227D02*
X214695031Y-128250512D01*
X214723603Y-128307655D01*
X214780745Y-128364798D01*
X214895031Y-128393370D01*
X215095031Y-128393370D01*
X215209317Y-128364798D01*
X215266460Y-128307655D01*
X215295031Y-128250512D01*
X215295031Y-128136227D01*
X215266460Y-128079084D01*
X215209317Y-128021941D01*
X215095031Y-127993370D01*
X214895031Y-127993370D01*
X214780745Y-128021941D01*
X214723603Y-128079084D01*
X214695031Y-128136227D01*
X214695031Y-128650512D02*
X215180745Y-128650512D01*
X215237888Y-128679084D01*
X215266460Y-128707655D01*
X215295031Y-128764798D01*
X215295031Y-128879084D01*
X215266460Y-128936227D01*
X215237888Y-128964798D01*
X215180745Y-128993370D01*
X214695031Y-128993370D01*
X214695031Y-129193370D02*
X214695031Y-129536227D01*
X215295031Y-129364798D02*
X214695031Y-129364798D01*
D10*
X212933140Y-126203075D02*
X211933140Y-126203075D01*
X211933140Y-126441170D01*
X211980760Y-126584027D01*
X212075998Y-126679265D01*
X212171236Y-126726884D01*
X212361712Y-126774503D01*
X212504569Y-126774503D01*
X212695045Y-126726884D01*
X212790283Y-126679265D01*
X212885521Y-126584027D01*
X212933140Y-126441170D01*
X212933140Y-126203075D01*
X212933140Y-127203075D02*
X211933140Y-127203075D01*
X212647426Y-127536408D01*
X211933140Y-127869741D01*
X212933140Y-127869741D01*
X212647426Y-128298313D02*
X212647426Y-128774503D01*
X212933140Y-128203075D02*
X211933140Y-128536408D01*
X212933140Y-128869741D01*
X210383597Y-126815760D02*
X209907407Y-126482427D01*
X210383597Y-126244332D02*
X209383597Y-126244332D01*
X209383597Y-126625284D01*
X209431217Y-126720522D01*
X209478836Y-126768141D01*
X209574074Y-126815760D01*
X209716931Y-126815760D01*
X209812169Y-126768141D01*
X209859788Y-126720522D01*
X209907407Y-126625284D01*
X209907407Y-126244332D01*
X210383597Y-127244332D02*
X209383597Y-127244332D01*
X209383597Y-127482427D01*
X209431217Y-127625284D01*
X209526455Y-127720522D01*
X209621693Y-127768141D01*
X209812169Y-127815760D01*
X209955026Y-127815760D01*
X210145502Y-127768141D01*
X210240740Y-127720522D01*
X210335978Y-127625284D01*
X210383597Y-127482427D01*
X210383597Y-127244332D01*
X209907407Y-128434808D02*
X210383597Y-128434808D01*
X209383597Y-128101475D02*
X209907407Y-128434808D01*
X209383597Y-128768141D01*
D11*
X207689568Y-126286647D02*
X207089568Y-126286647D01*
X207089568Y-126686647D02*
X207089568Y-126800932D01*
X207118140Y-126858075D01*
X207175282Y-126915218D01*
X207289568Y-126943790D01*
X207489568Y-126943790D01*
X207603854Y-126915218D01*
X207660997Y-126858075D01*
X207689568Y-126800932D01*
X207689568Y-126686647D01*
X207660997Y-126629504D01*
X207603854Y-126572361D01*
X207489568Y-126543790D01*
X207289568Y-126543790D01*
X207175282Y-126572361D01*
X207118140Y-126629504D01*
X207089568Y-126686647D01*
X207746711Y-127058075D02*
X207746711Y-127515218D01*
X207660997Y-127629504D02*
X207689568Y-127715218D01*
X207689568Y-127858075D01*
X207660997Y-127915218D01*
X207632425Y-127943790D01*
X207575282Y-127972361D01*
X207518140Y-127972361D01*
X207460997Y-127943790D01*
X207432425Y-127915218D01*
X207403854Y-127858075D01*
X207375282Y-127743790D01*
X207346711Y-127686647D01*
X207318140Y-127658075D01*
X207260997Y-127629504D01*
X207203854Y-127629504D01*
X207146711Y-127658075D01*
X207118140Y-127686647D01*
X207089568Y-127743790D01*
X207089568Y-127886647D01*
X207118140Y-127972361D01*
X207089568Y-128143790D02*
X207089568Y-128486647D01*
X207689568Y-128315218D02*
X207089568Y-128315218D01*
X207375282Y-128886647D02*
X207403854Y-128972361D01*
X207432425Y-129000932D01*
X207489568Y-129029504D01*
X207575282Y-129029504D01*
X207632425Y-129000932D01*
X207660997Y-128972361D01*
X207689568Y-128915218D01*
X207689568Y-128686647D01*
X207089568Y-128686647D01*
X207089568Y-128886647D01*
X207118140Y-128943790D01*
X207146711Y-128972361D01*
X207203854Y-129000932D01*
X207260997Y-129000932D01*
X207318140Y-128972361D01*
X207346711Y-128943790D01*
X207375282Y-128886647D01*
X207375282Y-128686647D01*
D10*
X205318101Y-126322336D02*
X204318101Y-126322336D01*
X205318101Y-126893764D01*
X204318101Y-126893764D01*
X205222863Y-127941383D02*
X205270482Y-127893764D01*
X205318101Y-127750907D01*
X205318101Y-127655669D01*
X205270482Y-127512812D01*
X205175244Y-127417574D01*
X205080006Y-127369955D01*
X204889530Y-127322336D01*
X204746673Y-127322336D01*
X204556197Y-127369955D01*
X204460959Y-127417574D01*
X204365721Y-127512812D01*
X204318101Y-127655669D01*
X204318101Y-127750907D01*
X204365721Y-127893764D01*
X204413340Y-127941383D01*
X202765544Y-126888827D02*
X202289354Y-126555494D01*
X202765544Y-126317399D02*
X201765544Y-126317399D01*
X201765544Y-126698351D01*
X201813164Y-126793589D01*
X201860783Y-126841208D01*
X201956021Y-126888827D01*
X202098878Y-126888827D01*
X202194116Y-126841208D01*
X202241735Y-126793589D01*
X202289354Y-126698351D01*
X202289354Y-126317399D01*
X201717925Y-128031684D02*
X203003640Y-127174541D01*
X201765544Y-128269780D02*
X202765544Y-128507875D01*
X202051259Y-128698351D01*
X202765544Y-128888827D01*
X201765544Y-129126922D01*
X199944221Y-126434191D02*
X199944221Y-126910381D01*
X200229935Y-126338953D02*
X199229935Y-126672286D01*
X200229935Y-127005620D01*
X200229935Y-127862762D02*
X200229935Y-127291334D01*
X200229935Y-127577048D02*
X199229935Y-127577048D01*
X199372793Y-127481810D01*
X199468031Y-127386572D01*
X199515650Y-127291334D01*
X199229935Y-128767524D02*
X199229935Y-128291334D01*
X199706126Y-128243715D01*
X199658507Y-128291334D01*
X199610888Y-128386572D01*
X199610888Y-128624667D01*
X199658507Y-128719905D01*
X199706126Y-128767524D01*
X199801364Y-128815143D01*
X200039459Y-128815143D01*
X200134697Y-128767524D01*
X200182316Y-128719905D01*
X200229935Y-128624667D01*
X200229935Y-128386572D01*
X200182316Y-128291334D01*
X200134697Y-128243715D01*
X197376281Y-126434191D02*
X197376281Y-126910381D01*
X197661995Y-126338953D02*
X196661995Y-126672286D01*
X197661995Y-127005620D01*
X197661995Y-127862762D02*
X197661995Y-127291334D01*
X197661995Y-127577048D02*
X196661995Y-127577048D01*
X196804853Y-127481810D01*
X196900091Y-127386572D01*
X196947710Y-127291334D01*
X196995329Y-128719905D02*
X197661995Y-128719905D01*
X196614376Y-128481810D02*
X197328662Y-128243715D01*
X197328662Y-128862762D01*
X194851521Y-126434191D02*
X194851521Y-126910381D01*
X195137235Y-126338953D02*
X194137235Y-126672286D01*
X195137235Y-127005620D01*
X195137235Y-127862762D02*
X195137235Y-127291334D01*
X195137235Y-127577048D02*
X194137235Y-127577048D01*
X194280093Y-127481810D01*
X194375331Y-127386572D01*
X194422950Y-127291334D01*
X194137235Y-128196096D02*
X194137235Y-128815143D01*
X194518188Y-128481810D01*
X194518188Y-128624667D01*
X194565807Y-128719905D01*
X194613426Y-128767524D01*
X194708664Y-128815143D01*
X194946759Y-128815143D01*
X195041997Y-128767524D01*
X195089616Y-128719905D01*
X195137235Y-128624667D01*
X195137235Y-128338953D01*
X195089616Y-128243715D01*
X195041997Y-128196096D01*
X192326761Y-126434191D02*
X192326761Y-126910381D01*
X192612475Y-126338953D02*
X191612475Y-126672286D01*
X192612475Y-127005620D01*
X192612475Y-127862762D02*
X192612475Y-127291334D01*
X192612475Y-127577048D02*
X191612475Y-127577048D01*
X191755333Y-127481810D01*
X191850571Y-127386572D01*
X191898190Y-127291334D01*
X191707714Y-128243715D02*
X191660095Y-128291334D01*
X191612475Y-128386572D01*
X191612475Y-128624667D01*
X191660095Y-128719905D01*
X191707714Y-128767524D01*
X191802952Y-128815143D01*
X191898190Y-128815143D01*
X192041047Y-128767524D01*
X192612475Y-128196096D01*
X192612475Y-128815143D01*
X189776601Y-126434191D02*
X189776601Y-126910381D01*
X190062315Y-126338953D02*
X189062315Y-126672286D01*
X190062315Y-127005620D01*
X190062315Y-127862762D02*
X190062315Y-127291334D01*
X190062315Y-127577048D02*
X189062315Y-127577048D01*
X189205173Y-127481810D01*
X189300411Y-127386572D01*
X189348030Y-127291334D01*
X190062315Y-128815143D02*
X190062315Y-128243715D01*
X190062315Y-128529429D02*
X189062315Y-128529429D01*
X189205173Y-128434191D01*
X189300411Y-128338953D01*
X189348030Y-128243715D01*
X187236601Y-126434191D02*
X187236601Y-126910381D01*
X187522315Y-126338953D02*
X186522315Y-126672286D01*
X187522315Y-127005620D01*
X187522315Y-127862762D02*
X187522315Y-127291334D01*
X187522315Y-127577048D02*
X186522315Y-127577048D01*
X186665173Y-127481810D01*
X186760411Y-127386572D01*
X186808030Y-127291334D01*
X186522315Y-128481810D02*
X186522315Y-128577048D01*
X186569935Y-128672286D01*
X186617554Y-128719905D01*
X186712792Y-128767524D01*
X186903268Y-128815143D01*
X187141363Y-128815143D01*
X187331839Y-128767524D01*
X187427077Y-128719905D01*
X187474696Y-128672286D01*
X187522315Y-128577048D01*
X187522315Y-128481810D01*
X187474696Y-128386572D01*
X187427077Y-128338953D01*
X187331839Y-128291334D01*
X187141363Y-128243715D01*
X186903268Y-128243715D01*
X186712792Y-128291334D01*
X186617554Y-128338953D01*
X186569935Y-128386572D01*
X186522315Y-128481810D01*
X184724422Y-126434072D02*
X184724422Y-126910262D01*
X185010136Y-126338834D02*
X184010136Y-126672167D01*
X185010136Y-127005500D01*
X185010136Y-127386453D02*
X185010136Y-127576929D01*
X184962517Y-127672167D01*
X184914898Y-127719786D01*
X184772041Y-127815024D01*
X184581565Y-127862643D01*
X184200613Y-127862643D01*
X184105375Y-127815024D01*
X184057756Y-127767405D01*
X184010136Y-127672167D01*
X184010136Y-127481691D01*
X184057756Y-127386453D01*
X184105375Y-127338834D01*
X184200613Y-127291215D01*
X184438708Y-127291215D01*
X184533946Y-127338834D01*
X184581565Y-127386453D01*
X184629184Y-127481691D01*
X184629184Y-127672167D01*
X184581565Y-127767405D01*
X184533946Y-127815024D01*
X184438708Y-127862643D01*
X182199662Y-126454392D02*
X182199662Y-126930582D01*
X182485376Y-126359154D02*
X181485376Y-126692487D01*
X182485376Y-127025820D01*
X181913948Y-127502011D02*
X181866329Y-127406773D01*
X181818710Y-127359154D01*
X181723472Y-127311535D01*
X181675853Y-127311535D01*
X181580615Y-127359154D01*
X181532996Y-127406773D01*
X181485376Y-127502011D01*
X181485376Y-127692487D01*
X181532996Y-127787725D01*
X181580615Y-127835344D01*
X181675853Y-127882963D01*
X181723472Y-127882963D01*
X181818710Y-127835344D01*
X181866329Y-127787725D01*
X181913948Y-127692487D01*
X181913948Y-127502011D01*
X181961567Y-127406773D01*
X182009186Y-127359154D01*
X182104424Y-127311535D01*
X182294900Y-127311535D01*
X182390138Y-127359154D01*
X182437757Y-127406773D01*
X182485376Y-127502011D01*
X182485376Y-127692487D01*
X182437757Y-127787725D01*
X182390138Y-127835344D01*
X182294900Y-127882963D01*
X182104424Y-127882963D01*
X182009186Y-127835344D01*
X181961567Y-127787725D01*
X181913948Y-127692487D01*
X179629182Y-126434072D02*
X179629182Y-126910262D01*
X179914896Y-126338834D02*
X178914896Y-126672167D01*
X179914896Y-127005500D01*
X178914896Y-127243596D02*
X178914896Y-127910262D01*
X179914896Y-127481691D01*
X177091722Y-126454392D02*
X177091722Y-126930582D01*
X177377436Y-126359154D02*
X176377436Y-126692487D01*
X177377436Y-127025820D01*
X176377436Y-127787725D02*
X176377436Y-127597249D01*
X176425056Y-127502011D01*
X176472675Y-127454392D01*
X176615532Y-127359154D01*
X176806008Y-127311535D01*
X177186960Y-127311535D01*
X177282198Y-127359154D01*
X177329817Y-127406773D01*
X177377436Y-127502011D01*
X177377436Y-127692487D01*
X177329817Y-127787725D01*
X177282198Y-127835344D01*
X177186960Y-127882963D01*
X176948865Y-127882963D01*
X176853627Y-127835344D01*
X176806008Y-127787725D01*
X176758389Y-127692487D01*
X176758389Y-127502011D01*
X176806008Y-127406773D01*
X176853627Y-127359154D01*
X176948865Y-127311535D01*
X174533942Y-126434072D02*
X174533942Y-126910262D01*
X174819656Y-126338834D02*
X173819656Y-126672167D01*
X174819656Y-127005500D01*
X173819656Y-127815024D02*
X173819656Y-127338834D01*
X174295847Y-127291215D01*
X174248228Y-127338834D01*
X174200609Y-127434072D01*
X174200609Y-127672167D01*
X174248228Y-127767405D01*
X174295847Y-127815024D01*
X174391085Y-127862643D01*
X174629180Y-127862643D01*
X174724418Y-127815024D01*
X174772037Y-127767405D01*
X174819656Y-127672167D01*
X174819656Y-127434072D01*
X174772037Y-127338834D01*
X174724418Y-127291215D01*
X172011722Y-126428992D02*
X172011722Y-126905182D01*
X172297436Y-126333754D02*
X171297436Y-126667087D01*
X172297436Y-127000420D01*
X171630770Y-127762325D02*
X172297436Y-127762325D01*
X171249817Y-127524230D02*
X171964103Y-127286135D01*
X171964103Y-127905182D01*
X169471722Y-126428992D02*
X169471722Y-126905182D01*
X169757436Y-126333754D02*
X168757436Y-126667087D01*
X169757436Y-127000420D01*
X168757436Y-127238516D02*
X168757436Y-127857563D01*
X169138389Y-127524230D01*
X169138389Y-127667087D01*
X169186008Y-127762325D01*
X169233627Y-127809944D01*
X169328865Y-127857563D01*
X169566960Y-127857563D01*
X169662198Y-127809944D01*
X169709817Y-127762325D01*
X169757436Y-127667087D01*
X169757436Y-127381373D01*
X169709817Y-127286135D01*
X169662198Y-127238516D01*
X166891082Y-126428992D02*
X166891082Y-126905182D01*
X167176796Y-126333754D02*
X166176796Y-126667087D01*
X167176796Y-127000420D01*
X166272035Y-127286135D02*
X166224416Y-127333754D01*
X166176796Y-127428992D01*
X166176796Y-127667087D01*
X166224416Y-127762325D01*
X166272035Y-127809944D01*
X166367273Y-127857563D01*
X166462511Y-127857563D01*
X166605368Y-127809944D01*
X167176796Y-127238516D01*
X167176796Y-127857563D01*
X164373942Y-126428992D02*
X164373942Y-126905182D01*
X164659656Y-126333754D02*
X163659656Y-126667087D01*
X164659656Y-127000420D01*
X164659656Y-127857563D02*
X164659656Y-127286135D01*
X164659656Y-127571849D02*
X163659656Y-127571849D01*
X163802514Y-127476611D01*
X163897752Y-127381373D01*
X163945371Y-127286135D01*
X161856802Y-126388352D02*
X161856802Y-126864542D01*
X162142516Y-126293114D02*
X161142516Y-126626447D01*
X162142516Y-126959780D01*
X161142516Y-127483590D02*
X161142516Y-127578828D01*
X161190136Y-127674066D01*
X161237755Y-127721685D01*
X161332993Y-127769304D01*
X161523469Y-127816923D01*
X161761564Y-127816923D01*
X161952040Y-127769304D01*
X162047278Y-127721685D01*
X162094897Y-127674066D01*
X162142516Y-127578828D01*
X162142516Y-127483590D01*
X162094897Y-127388352D01*
X162047278Y-127340733D01*
X161952040Y-127293114D01*
X161761564Y-127245495D01*
X161523469Y-127245495D01*
X161332993Y-127293114D01*
X161237755Y-127340733D01*
X161190136Y-127388352D01*
X161142516Y-127483590D01*
D11*
X159402259Y-126475238D02*
X158802259Y-126475238D01*
X158802259Y-126875238D02*
X158802259Y-126989524D01*
X158830831Y-127046667D01*
X158887973Y-127103810D01*
X159002259Y-127132381D01*
X159202259Y-127132381D01*
X159316545Y-127103810D01*
X159373688Y-127046667D01*
X159402259Y-126989524D01*
X159402259Y-126875238D01*
X159373688Y-126818095D01*
X159316545Y-126760952D01*
X159202259Y-126732381D01*
X159002259Y-126732381D01*
X158887973Y-126760952D01*
X158830831Y-126818095D01*
X158802259Y-126875238D01*
X159459402Y-127246667D02*
X159459402Y-127703810D01*
X159373688Y-127818095D02*
X159402259Y-127903810D01*
X159402259Y-128046667D01*
X159373688Y-128103810D01*
X159345116Y-128132381D01*
X159287973Y-128160952D01*
X159230831Y-128160952D01*
X159173688Y-128132381D01*
X159145116Y-128103810D01*
X159116545Y-128046667D01*
X159087973Y-127932381D01*
X159059402Y-127875238D01*
X159030831Y-127846667D01*
X158973688Y-127818095D01*
X158916545Y-127818095D01*
X158859402Y-127846667D01*
X158830831Y-127875238D01*
X158802259Y-127932381D01*
X158802259Y-128075238D01*
X158830831Y-128160952D01*
X159087973Y-128418095D02*
X159087973Y-128618095D01*
X159402259Y-128703810D02*
X159402259Y-128418095D01*
X158802259Y-128418095D01*
X158802259Y-128703810D01*
X159402259Y-129246667D02*
X159402259Y-128960952D01*
X158802259Y-128960952D01*
D10*
X156676125Y-124892060D02*
X157247554Y-124892060D01*
X156961840Y-124892060D02*
X156961840Y-123892060D01*
X157057078Y-124034918D01*
X157152316Y-124130156D01*
X157247554Y-124177775D01*
X223522444Y-123982219D02*
X223474825Y-123934600D01*
X223379587Y-123886980D01*
X223141492Y-123886980D01*
X223046254Y-123934600D01*
X222998635Y-123982219D01*
X222951016Y-124077457D01*
X222951016Y-124172695D01*
X222998635Y-124315552D01*
X223570063Y-124886980D01*
X222951016Y-124886980D01*
X222046254Y-123886980D02*
X222522444Y-123886980D01*
X222570063Y-124363171D01*
X222522444Y-124315552D01*
X222427206Y-124267933D01*
X222189111Y-124267933D01*
X222093873Y-124315552D01*
X222046254Y-124363171D01*
X221998635Y-124458409D01*
X221998635Y-124696504D01*
X222046254Y-124791742D01*
X222093873Y-124839361D01*
X222189111Y-124886980D01*
X222427206Y-124886980D01*
X222522444Y-124839361D01*
X222570063Y-124791742D01*
X223497044Y-121457459D02*
X223449425Y-121409840D01*
X223354187Y-121362220D01*
X223116092Y-121362220D01*
X223020854Y-121409840D01*
X222973235Y-121457459D01*
X222925616Y-121552697D01*
X222925616Y-121647935D01*
X222973235Y-121790792D01*
X223544663Y-122362220D01*
X222925616Y-122362220D01*
X222068473Y-121362220D02*
X222258949Y-121362220D01*
X222354187Y-121409840D01*
X222401806Y-121457459D01*
X222497044Y-121600316D01*
X222544663Y-121790792D01*
X222544663Y-122171744D01*
X222497044Y-122266982D01*
X222449425Y-122314601D01*
X222354187Y-122362220D01*
X222163711Y-122362220D01*
X222068473Y-122314601D01*
X222020854Y-122266982D01*
X221973235Y-122171744D01*
X221973235Y-121933649D01*
X222020854Y-121838411D01*
X222068473Y-121790792D01*
X222163711Y-121743173D01*
X222354187Y-121743173D01*
X222449425Y-121790792D01*
X222497044Y-121838411D01*
X222544663Y-121933649D01*
X219585679Y-117961024D02*
X219538059Y-117865786D01*
X219538059Y-117722929D01*
X219585679Y-117580072D01*
X219680917Y-117484834D01*
X219776155Y-117437215D01*
X219966631Y-117389596D01*
X220109488Y-117389596D01*
X220299964Y-117437215D01*
X220395202Y-117484834D01*
X220490440Y-117580072D01*
X220538059Y-117722929D01*
X220538059Y-117818167D01*
X220490440Y-117961024D01*
X220442821Y-118008643D01*
X220109488Y-118008643D01*
X220109488Y-117818167D01*
X220538059Y-118437215D02*
X219538059Y-118437215D01*
X220538059Y-119008643D01*
X219538059Y-119008643D01*
X220538059Y-119484834D02*
X219538059Y-119484834D01*
X219538059Y-119722929D01*
X219585679Y-119865786D01*
X219680917Y-119961024D01*
X219776155Y-120008643D01*
X219966631Y-120056262D01*
X220109488Y-120056262D01*
X220299964Y-120008643D01*
X220395202Y-119961024D01*
X220490440Y-119865786D01*
X220538059Y-119722929D01*
X220538059Y-119484834D01*
D11*
X217806697Y-117226667D02*
X217206697Y-117226667D01*
X217206697Y-117369524D01*
X217235269Y-117455238D01*
X217292411Y-117512381D01*
X217349554Y-117540952D01*
X217463840Y-117569524D01*
X217549554Y-117569524D01*
X217663840Y-117540952D01*
X217720983Y-117512381D01*
X217778126Y-117455238D01*
X217806697Y-117369524D01*
X217806697Y-117226667D01*
X217806697Y-117826667D02*
X217206697Y-117826667D01*
X217635269Y-118026667D01*
X217206697Y-118226667D01*
X217806697Y-118226667D01*
X217635269Y-118483810D02*
X217635269Y-118769524D01*
X217806697Y-118426667D02*
X217206697Y-118626667D01*
X217806697Y-118826667D01*
X217863840Y-118883810D02*
X217863840Y-119340952D01*
X217806697Y-119483810D02*
X217206697Y-119483810D01*
X217806697Y-119769524D02*
X217206697Y-119769524D01*
X217806697Y-120112381D01*
X217206697Y-120112381D01*
D10*
X215465489Y-115925915D02*
X214465489Y-115925915D01*
X215465489Y-116402105D02*
X214465489Y-116402105D01*
X215465489Y-116973534D01*
X214465489Y-116973534D01*
X214465489Y-117306867D02*
X214465489Y-117878296D01*
X215465489Y-117592581D02*
X214465489Y-117592581D01*
X215560728Y-117973534D02*
X215560728Y-118735439D01*
X215465489Y-118973534D02*
X214465489Y-118973534D01*
X215465489Y-119449724D02*
X214465489Y-119449724D01*
X215465489Y-120021153D01*
X214465489Y-120021153D01*
X211545647Y-117592820D02*
X211545647Y-118640439D01*
X212913027Y-117830915D02*
X211913027Y-117830915D01*
X212913027Y-118402343D01*
X211913027Y-118402343D01*
X211545647Y-118640439D02*
X211545647Y-119783296D01*
X212913027Y-118878534D02*
X211913027Y-118878534D01*
X212627313Y-119211867D01*
X211913027Y-119545200D01*
X212913027Y-119545200D01*
X211545647Y-119783296D02*
X211545647Y-120259486D01*
X212913027Y-120021391D02*
X211913027Y-120021391D01*
X209005030Y-117732520D02*
X209005030Y-118208710D01*
X210372410Y-117970615D02*
X209372410Y-117970615D01*
X209005030Y-118208710D02*
X209005030Y-119208710D01*
X210372410Y-119018234D02*
X209896220Y-118684900D01*
X210372410Y-118446805D02*
X209372410Y-118446805D01*
X209372410Y-118827758D01*
X209420030Y-118922996D01*
X209467649Y-118970615D01*
X209562887Y-119018234D01*
X209705744Y-119018234D01*
X209800982Y-118970615D01*
X209848601Y-118922996D01*
X209896220Y-118827758D01*
X209896220Y-118446805D01*
X209005030Y-119208710D02*
X209005030Y-120256329D01*
X210467649Y-120113472D02*
X210420030Y-120018234D01*
X210324791Y-119922996D01*
X210181934Y-119780139D01*
X210134315Y-119684900D01*
X210134315Y-119589662D01*
X210372410Y-119637281D02*
X210324791Y-119542043D01*
X210229553Y-119446805D01*
X210039077Y-119399186D01*
X209705744Y-119399186D01*
X209515268Y-119446805D01*
X209420030Y-119542043D01*
X209372410Y-119637281D01*
X209372410Y-119827758D01*
X209420030Y-119922996D01*
X209515268Y-120018234D01*
X209705744Y-120065853D01*
X210039077Y-120065853D01*
X210229553Y-120018234D01*
X210324791Y-119922996D01*
X210372410Y-119827758D01*
X210372410Y-119637281D01*
X206470703Y-117382000D02*
X206470703Y-118382000D01*
X207838083Y-118191523D02*
X207361893Y-117858190D01*
X207838083Y-117620095D02*
X206838083Y-117620095D01*
X206838083Y-118001047D01*
X206885703Y-118096285D01*
X206933322Y-118143904D01*
X207028560Y-118191523D01*
X207171417Y-118191523D01*
X207266655Y-118143904D01*
X207314274Y-118096285D01*
X207361893Y-118001047D01*
X207361893Y-117620095D01*
X206470703Y-118382000D02*
X206470703Y-119286761D01*
X207314274Y-118620095D02*
X207314274Y-118953428D01*
X207838083Y-119096285D02*
X207838083Y-118620095D01*
X206838083Y-118620095D01*
X206838083Y-119096285D01*
X206470703Y-119286761D02*
X206470703Y-120239142D01*
X207790464Y-119477238D02*
X207838083Y-119620095D01*
X207838083Y-119858190D01*
X207790464Y-119953428D01*
X207742845Y-120001047D01*
X207647607Y-120048666D01*
X207552369Y-120048666D01*
X207457131Y-120001047D01*
X207409512Y-119953428D01*
X207361893Y-119858190D01*
X207314274Y-119667714D01*
X207266655Y-119572476D01*
X207219036Y-119524857D01*
X207123798Y-119477238D01*
X207028560Y-119477238D01*
X206933322Y-119524857D01*
X206885703Y-119572476D01*
X206838083Y-119667714D01*
X206838083Y-119905809D01*
X206885703Y-120048666D01*
X203932009Y-117666480D02*
X203932009Y-118142670D01*
X205299389Y-117904575D02*
X204299389Y-117904575D01*
X203932009Y-118142670D02*
X203932009Y-119190289D01*
X205299389Y-118380765D02*
X204299389Y-118380765D01*
X205299389Y-118952194D01*
X204299389Y-118952194D01*
X203932009Y-119190289D02*
X203932009Y-120237908D01*
X205299389Y-119428384D02*
X204299389Y-119428384D01*
X204775580Y-119428384D02*
X204775580Y-119999813D01*
X205299389Y-119999813D02*
X204299389Y-119999813D01*
X202369368Y-116339935D02*
X202369368Y-117101840D01*
X202750320Y-118101840D02*
X202750320Y-117530411D01*
X202750320Y-117816125D02*
X201750320Y-117816125D01*
X201893178Y-117720887D01*
X201988416Y-117625649D01*
X202036035Y-117530411D01*
X201845559Y-118482792D02*
X201797940Y-118530411D01*
X201750320Y-118625649D01*
X201750320Y-118863744D01*
X201797940Y-118958982D01*
X201845559Y-119006601D01*
X201940797Y-119054220D01*
X202036035Y-119054220D01*
X202178892Y-119006601D01*
X202750320Y-118435173D01*
X202750320Y-119054220D01*
X201750320Y-119339935D02*
X202750320Y-119673268D01*
X201750320Y-120006601D01*
X199834567Y-117294975D02*
X199834567Y-118056880D01*
X199215519Y-119009260D02*
X199215519Y-118533070D01*
X199691710Y-118485451D01*
X199644091Y-118533070D01*
X199596472Y-118628308D01*
X199596472Y-118866403D01*
X199644091Y-118961641D01*
X199691710Y-119009260D01*
X199786948Y-119056880D01*
X200025043Y-119056880D01*
X200120281Y-119009260D01*
X200167900Y-118961641D01*
X200215519Y-118866403D01*
X200215519Y-118628308D01*
X200167900Y-118533070D01*
X200120281Y-118485451D01*
X199215519Y-119342594D02*
X200215519Y-119675927D01*
X199215519Y-120009260D01*
X197673739Y-118412575D02*
X196673739Y-118412575D01*
X197673739Y-118984003D01*
X196673739Y-118984003D01*
X197578501Y-120031622D02*
X197626120Y-119984003D01*
X197673739Y-119841146D01*
X197673739Y-119745908D01*
X197626120Y-119603051D01*
X197530882Y-119507813D01*
X197435644Y-119460194D01*
X197245168Y-119412575D01*
X197102311Y-119412575D01*
X196911835Y-119460194D01*
X196816597Y-119507813D01*
X196721359Y-119603051D01*
X196673739Y-119745908D01*
X196673739Y-119841146D01*
X196721359Y-119984003D01*
X196768978Y-120031622D01*
X194133098Y-118393537D02*
X194133098Y-119060203D01*
X195133098Y-118631632D01*
X195133098Y-119441156D02*
X194133098Y-119441156D01*
X194847384Y-119774489D01*
X194133098Y-120107822D01*
X195133098Y-120107822D01*
X192694699Y-119130041D02*
X192647080Y-119034803D01*
X192551841Y-118939565D01*
X192408984Y-118796708D01*
X192361365Y-118701470D01*
X192361365Y-118606232D01*
X192599460Y-118653851D02*
X192551841Y-118558613D01*
X192456603Y-118463375D01*
X192266127Y-118415756D01*
X191932794Y-118415756D01*
X191742318Y-118463375D01*
X191647080Y-118558613D01*
X191599460Y-118653851D01*
X191599460Y-118844327D01*
X191647080Y-118939565D01*
X191742318Y-119034803D01*
X191932794Y-119082422D01*
X192266127Y-119082422D01*
X192456603Y-119034803D01*
X192551841Y-118939565D01*
X192599460Y-118844327D01*
X192599460Y-118653851D01*
X191599460Y-119415756D02*
X191599460Y-120034803D01*
X191980413Y-119701470D01*
X191980413Y-119844327D01*
X192028032Y-119939565D01*
X192075651Y-119987184D01*
X192170889Y-120034803D01*
X192408984Y-120034803D01*
X192504222Y-119987184D01*
X192551841Y-119939565D01*
X192599460Y-119844327D01*
X192599460Y-119558613D01*
X192551841Y-119463375D01*
X192504222Y-119415756D01*
X190048140Y-117000335D02*
X189048140Y-117000335D01*
X189048140Y-117381287D01*
X189095760Y-117476525D01*
X189143379Y-117524144D01*
X189238617Y-117571763D01*
X189381474Y-117571763D01*
X189476712Y-117524144D01*
X189524331Y-117476525D01*
X189571950Y-117381287D01*
X189571950Y-117000335D01*
X190048140Y-118000335D02*
X189048140Y-118000335D01*
X189524331Y-118000335D02*
X189524331Y-118571763D01*
X190048140Y-118571763D02*
X189048140Y-118571763D01*
X190048140Y-119047954D02*
X189048140Y-119047954D01*
X190048140Y-120047954D02*
X190048140Y-119476525D01*
X190048140Y-119762240D02*
X189048140Y-119762240D01*
X189190998Y-119667001D01*
X189286236Y-119571763D01*
X189333855Y-119476525D01*
D11*
X186748897Y-117010767D02*
X187234611Y-117010767D01*
X187291754Y-117039338D01*
X187320326Y-117067910D01*
X187348897Y-117125052D01*
X187348897Y-117239338D01*
X187320326Y-117296481D01*
X187291754Y-117325052D01*
X187234611Y-117353624D01*
X186748897Y-117353624D01*
X187320326Y-117610767D02*
X187348897Y-117696481D01*
X187348897Y-117839338D01*
X187320326Y-117896481D01*
X187291754Y-117925052D01*
X187234611Y-117953624D01*
X187177469Y-117953624D01*
X187120326Y-117925052D01*
X187091754Y-117896481D01*
X187063183Y-117839338D01*
X187034611Y-117725052D01*
X187006040Y-117667910D01*
X186977469Y-117639338D01*
X186920326Y-117610767D01*
X186863183Y-117610767D01*
X186806040Y-117639338D01*
X186777469Y-117667910D01*
X186748897Y-117725052D01*
X186748897Y-117867910D01*
X186777469Y-117953624D01*
X187034611Y-118210767D02*
X187034611Y-118410767D01*
X187348897Y-118496481D02*
X187348897Y-118210767D01*
X186748897Y-118210767D01*
X186748897Y-118496481D01*
X187348897Y-119096481D02*
X187063183Y-118896481D01*
X187348897Y-118753624D02*
X186748897Y-118753624D01*
X186748897Y-118982195D01*
X186777469Y-119039338D01*
X186806040Y-119067910D01*
X186863183Y-119096481D01*
X186948897Y-119096481D01*
X187006040Y-119067910D01*
X187034611Y-119039338D01*
X187063183Y-118982195D01*
X187063183Y-118753624D01*
X187406040Y-119210767D02*
X187406040Y-119667910D01*
X187348897Y-120125052D02*
X187348897Y-119782195D01*
X187348897Y-119953624D02*
X186748897Y-119953624D01*
X186834611Y-119896481D01*
X186891754Y-119839338D01*
X186920326Y-119782195D01*
D10*
X184977370Y-116959695D02*
X183977370Y-116959695D01*
X183977370Y-117340647D01*
X184024990Y-117435885D01*
X184072609Y-117483504D01*
X184167847Y-117531123D01*
X184310704Y-117531123D01*
X184405942Y-117483504D01*
X184453561Y-117435885D01*
X184501180Y-117340647D01*
X184501180Y-116959695D01*
X184977370Y-117959695D02*
X183977370Y-117959695D01*
X184453561Y-117959695D02*
X184453561Y-118531123D01*
X184977370Y-118531123D02*
X183977370Y-118531123D01*
X184977370Y-119007314D02*
X183977370Y-119007314D01*
X183977370Y-119673980D02*
X183977370Y-119769219D01*
X184024990Y-119864457D01*
X184072609Y-119912076D01*
X184167847Y-119959695D01*
X184358323Y-120007314D01*
X184596418Y-120007314D01*
X184786894Y-119959695D01*
X184882132Y-119912076D01*
X184929751Y-119864457D01*
X184977370Y-119769219D01*
X184977370Y-119673980D01*
X184929751Y-119578742D01*
X184882132Y-119531123D01*
X184786894Y-119483504D01*
X184596418Y-119435885D01*
X184358323Y-119435885D01*
X184167847Y-119483504D01*
X184072609Y-119531123D01*
X184024990Y-119578742D01*
X183977370Y-119673980D01*
D11*
X182243454Y-116606907D02*
X181643454Y-116606907D01*
X181643454Y-116749764D01*
X181672026Y-116835478D01*
X181729168Y-116892621D01*
X181786311Y-116921192D01*
X181900597Y-116949764D01*
X181986311Y-116949764D01*
X182100597Y-116921192D01*
X182157740Y-116892621D01*
X182214883Y-116835478D01*
X182243454Y-116749764D01*
X182243454Y-116606907D01*
X181929168Y-117206907D02*
X181929168Y-117406907D01*
X182243454Y-117492621D02*
X182243454Y-117206907D01*
X181643454Y-117206907D01*
X181643454Y-117492621D01*
X181643454Y-117664050D02*
X182243454Y-117864050D01*
X181643454Y-118064050D01*
X182300597Y-118121192D02*
X182300597Y-118578335D01*
X182214883Y-118692621D02*
X182243454Y-118778335D01*
X182243454Y-118921192D01*
X182214883Y-118978335D01*
X182186311Y-119006907D01*
X182129168Y-119035478D01*
X182072026Y-119035478D01*
X182014883Y-119006907D01*
X181986311Y-118978335D01*
X181957740Y-118921192D01*
X181929168Y-118806907D01*
X181900597Y-118749764D01*
X181872026Y-118721192D01*
X181814883Y-118692621D01*
X181757740Y-118692621D01*
X181700597Y-118721192D01*
X181672026Y-118749764D01*
X181643454Y-118806907D01*
X181643454Y-118949764D01*
X181672026Y-119035478D01*
X181929168Y-119292621D02*
X181929168Y-119492621D01*
X182243454Y-119578335D02*
X182243454Y-119292621D01*
X181643454Y-119292621D01*
X181643454Y-119578335D01*
X182243454Y-120121192D02*
X182243454Y-119835478D01*
X181643454Y-119835478D01*
D10*
X179877241Y-118455755D02*
X178877241Y-118455755D01*
X178877241Y-118693850D01*
X178924861Y-118836707D01*
X179020099Y-118931945D01*
X179115337Y-118979564D01*
X179305813Y-119027183D01*
X179448670Y-119027183D01*
X179639146Y-118979564D01*
X179734384Y-118931945D01*
X179829622Y-118836707D01*
X179877241Y-118693850D01*
X179877241Y-118455755D01*
X178877241Y-119360517D02*
X178877241Y-120027183D01*
X179877241Y-119598612D01*
X164655021Y-118504015D02*
X163655021Y-118504015D01*
X163655021Y-118742110D01*
X163702641Y-118884967D01*
X163797879Y-118980205D01*
X163893117Y-119027824D01*
X164083593Y-119075443D01*
X164226450Y-119075443D01*
X164416926Y-119027824D01*
X164512164Y-118980205D01*
X164607402Y-118884967D01*
X164655021Y-118742110D01*
X164655021Y-118504015D01*
X164655021Y-120027824D02*
X164655021Y-119456396D01*
X164655021Y-119742110D02*
X163655021Y-119742110D01*
X163797879Y-119646872D01*
X163893117Y-119551634D01*
X163940736Y-119456396D01*
X167195021Y-118504015D02*
X166195021Y-118504015D01*
X166195021Y-118742110D01*
X166242641Y-118884967D01*
X166337879Y-118980205D01*
X166433117Y-119027824D01*
X166623593Y-119075443D01*
X166766450Y-119075443D01*
X166956926Y-119027824D01*
X167052164Y-118980205D01*
X167147402Y-118884967D01*
X167195021Y-118742110D01*
X167195021Y-118504015D01*
X166290260Y-119456396D02*
X166242641Y-119504015D01*
X166195021Y-119599253D01*
X166195021Y-119837348D01*
X166242641Y-119932586D01*
X166290260Y-119980205D01*
X166385498Y-120027824D01*
X166480736Y-120027824D01*
X166623593Y-119980205D01*
X167195021Y-119408777D01*
X167195021Y-120027824D01*
X169735021Y-118504015D02*
X168735021Y-118504015D01*
X168735021Y-118742110D01*
X168782641Y-118884967D01*
X168877879Y-118980205D01*
X168973117Y-119027824D01*
X169163593Y-119075443D01*
X169306450Y-119075443D01*
X169496926Y-119027824D01*
X169592164Y-118980205D01*
X169687402Y-118884967D01*
X169735021Y-118742110D01*
X169735021Y-118504015D01*
X168735021Y-119408777D02*
X168735021Y-120027824D01*
X169115974Y-119694491D01*
X169115974Y-119837348D01*
X169163593Y-119932586D01*
X169211212Y-119980205D01*
X169306450Y-120027824D01*
X169544545Y-120027824D01*
X169639783Y-119980205D01*
X169687402Y-119932586D01*
X169735021Y-119837348D01*
X169735021Y-119551634D01*
X169687402Y-119456396D01*
X169639783Y-119408777D01*
X172275021Y-118504015D02*
X171275021Y-118504015D01*
X171275021Y-118742110D01*
X171322641Y-118884967D01*
X171417879Y-118980205D01*
X171513117Y-119027824D01*
X171703593Y-119075443D01*
X171846450Y-119075443D01*
X172036926Y-119027824D01*
X172132164Y-118980205D01*
X172227402Y-118884967D01*
X172275021Y-118742110D01*
X172275021Y-118504015D01*
X171608355Y-119932586D02*
X172275021Y-119932586D01*
X171227402Y-119694491D02*
X171941688Y-119456396D01*
X171941688Y-120075443D01*
X174815021Y-118504015D02*
X173815021Y-118504015D01*
X173815021Y-118742110D01*
X173862641Y-118884967D01*
X173957879Y-118980205D01*
X174053117Y-119027824D01*
X174243593Y-119075443D01*
X174386450Y-119075443D01*
X174576926Y-119027824D01*
X174672164Y-118980205D01*
X174767402Y-118884967D01*
X174815021Y-118742110D01*
X174815021Y-118504015D01*
X173815021Y-119980205D02*
X173815021Y-119504015D01*
X174291212Y-119456396D01*
X174243593Y-119504015D01*
X174195974Y-119599253D01*
X174195974Y-119837348D01*
X174243593Y-119932586D01*
X174291212Y-119980205D01*
X174386450Y-120027824D01*
X174624545Y-120027824D01*
X174719783Y-119980205D01*
X174767402Y-119932586D01*
X174815021Y-119837348D01*
X174815021Y-119599253D01*
X174767402Y-119504015D01*
X174719783Y-119456396D01*
X177355021Y-118504015D02*
X176355021Y-118504015D01*
X176355021Y-118742110D01*
X176402641Y-118884967D01*
X176497879Y-118980205D01*
X176593117Y-119027824D01*
X176783593Y-119075443D01*
X176926450Y-119075443D01*
X177116926Y-119027824D01*
X177212164Y-118980205D01*
X177307402Y-118884967D01*
X177355021Y-118742110D01*
X177355021Y-118504015D01*
X176355021Y-119932586D02*
X176355021Y-119742110D01*
X176402641Y-119646872D01*
X176450260Y-119599253D01*
X176593117Y-119504015D01*
X176783593Y-119456396D01*
X177164545Y-119456396D01*
X177259783Y-119504015D01*
X177307402Y-119551634D01*
X177355021Y-119646872D01*
X177355021Y-119837348D01*
X177307402Y-119932586D01*
X177259783Y-119980205D01*
X177164545Y-120027824D01*
X176926450Y-120027824D01*
X176831212Y-119980205D01*
X176783593Y-119932586D01*
X176735974Y-119837348D01*
X176735974Y-119646872D01*
X176783593Y-119551634D01*
X176831212Y-119504015D01*
X176926450Y-119456396D01*
X159136388Y-116345015D02*
X159136388Y-117106920D01*
X159517340Y-116725967D02*
X158755436Y-116725967D01*
X159517340Y-118106920D02*
X159517340Y-117535491D01*
X159517340Y-117821205D02*
X158517340Y-117821205D01*
X158660198Y-117725967D01*
X158755436Y-117630729D01*
X158803055Y-117535491D01*
X158612579Y-118487872D02*
X158564960Y-118535491D01*
X158517340Y-118630729D01*
X158517340Y-118868824D01*
X158564960Y-118964062D01*
X158612579Y-119011681D01*
X158707817Y-119059300D01*
X158803055Y-119059300D01*
X158945912Y-119011681D01*
X159517340Y-118440253D01*
X159517340Y-119059300D01*
X158517340Y-119345015D02*
X159517340Y-119678348D01*
X158517340Y-120011681D01*
X162115021Y-118504015D02*
X161115021Y-118504015D01*
X161115021Y-118742110D01*
X161162641Y-118884967D01*
X161257879Y-118980205D01*
X161353117Y-119027824D01*
X161543593Y-119075443D01*
X161686450Y-119075443D01*
X161876926Y-119027824D01*
X161972164Y-118980205D01*
X162067402Y-118884967D01*
X162115021Y-118742110D01*
X162115021Y-118504015D01*
X161115021Y-119694491D02*
X161115021Y-119789729D01*
X161162641Y-119884967D01*
X161210260Y-119932586D01*
X161305498Y-119980205D01*
X161495974Y-120027824D01*
X161734069Y-120027824D01*
X161924545Y-119980205D01*
X162019783Y-119932586D01*
X162067402Y-119884967D01*
X162115021Y-119789729D01*
X162115021Y-119694491D01*
X162067402Y-119599253D01*
X162019783Y-119551634D01*
X161924545Y-119504015D01*
X161734069Y-119456396D01*
X161495974Y-119456396D01*
X161305498Y-119504015D01*
X161210260Y-119551634D01*
X161162641Y-119599253D01*
X161115021Y-119694491D01*
X156707175Y-121415560D02*
X157183365Y-121415560D01*
X157230984Y-121891751D01*
X157183365Y-121844132D01*
X157088127Y-121796513D01*
X156850032Y-121796513D01*
X156754794Y-121844132D01*
X156707175Y-121891751D01*
X156659556Y-121986989D01*
X156659556Y-122225084D01*
X156707175Y-122320322D01*
X156754794Y-122367941D01*
X156850032Y-122415560D01*
X157088127Y-122415560D01*
X157183365Y-122367941D01*
X157230984Y-122320322D01*
X156040508Y-121415560D02*
X155945270Y-121415560D01*
X155850032Y-121463180D01*
X155802413Y-121510799D01*
X155754794Y-121606037D01*
X155707175Y-121796513D01*
X155707175Y-122034608D01*
X155754794Y-122225084D01*
X155802413Y-122320322D01*
X155850032Y-122367941D01*
X155945270Y-122415560D01*
X156040508Y-122415560D01*
X156135746Y-122367941D01*
X156183365Y-122320322D01*
X156230984Y-122225084D01*
X156278603Y-122034608D01*
X156278603Y-121796513D01*
X156230984Y-121606037D01*
X156183365Y-121510799D01*
X156135746Y-121463180D01*
X156040508Y-121415560D01*
D12*
X157801000Y-120562060D02*
X221421000Y-120562060D01*
X157801000Y-125762060D02*
X157800040Y-120561100D01*
X221421000Y-125762060D02*
X157801000Y-125762060D01*
X221421000Y-120562060D02*
X221421000Y-125762060D01*
%LPC*%
D13*
X159131000Y-124432060D03*
X159131000Y-121892060D03*
X161671000Y-124432060D03*
X161671000Y-121892060D03*
X164211000Y-124432060D03*
X164211000Y-121892060D03*
X166751000Y-124432060D03*
X166751000Y-121892060D03*
X169291000Y-124432060D03*
X169291000Y-121892060D03*
X171831000Y-124432060D03*
X171831000Y-121892060D03*
X174371000Y-124432060D03*
X174371000Y-121892060D03*
X176911000Y-124432060D03*
X176911000Y-121892060D03*
X179451000Y-124432060D03*
X179451000Y-121892060D03*
X181991000Y-124432060D03*
X181991000Y-121892060D03*
X184531000Y-124432060D03*
X184531000Y-121892060D03*
X187071000Y-124432060D03*
X187071000Y-121892060D03*
X189611000Y-124432060D03*
X189611000Y-121892060D03*
X192151000Y-124432060D03*
X192151000Y-121892060D03*
X194691000Y-124432060D03*
X194691000Y-121892060D03*
X197231000Y-124432060D03*
X197231000Y-121892060D03*
X199771000Y-124432060D03*
X199771000Y-121892060D03*
X202311000Y-124432060D03*
X202311000Y-121892060D03*
X204851000Y-124432060D03*
X204851000Y-121892060D03*
X207391000Y-124432060D03*
X207391000Y-121892060D03*
X209931000Y-124432060D03*
X209931000Y-121892060D03*
X212471000Y-124432060D03*
X212471000Y-121892060D03*
X215011000Y-124432060D03*
X215011000Y-121892060D03*
X217551000Y-124432060D03*
X217551000Y-121892060D03*
X220091000Y-124432060D03*
D14*
X220091000Y-121892060D03*
D15*
X159942341Y-133759141D03*
X162482341Y-133759141D03*
X165022341Y-133759141D03*
X167562341Y-133759141D03*
X170102341Y-133759141D03*
X172642341Y-133759141D03*
X175182341Y-133759141D03*
X177722341Y-133759141D03*
X180262341Y-133759141D03*
X182802341Y-133759141D03*
X185342341Y-133759141D03*
X187882341Y-133759141D03*
X190422341Y-133759141D03*
X192962341Y-133759141D03*
X195502341Y-133759141D03*
X198042341Y-133759141D03*
X200582341Y-133759141D03*
X203122341Y-133759141D03*
X205662341Y-133759141D03*
X208202341Y-133759141D03*
X210742341Y-133759141D03*
X213282341Y-133759141D03*
X215822341Y-133759141D03*
X218362341Y-133759141D03*
X220902341Y-133759141D03*
D16*
X230251000Y-126972060D03*
X227711000Y-126972060D03*
X225171000Y-126972060D03*
X154051000Y-126972060D03*
X151511000Y-126972060D03*
X148971000Y-126972060D03*
X146431000Y-126972060D03*
X143891000Y-126972060D03*
X141351000Y-126972060D03*
X138811000Y-126972060D03*
X136271000Y-126972060D03*
X133731000Y-126972060D03*
X131191000Y-126972060D03*
X128651000Y-126972060D03*
X126111000Y-126972060D03*
X123571000Y-126972060D03*
X121031000Y-126972060D03*
X118491000Y-126972060D03*
X115951000Y-126972060D03*
X113411000Y-126972060D03*
X110871000Y-126972060D03*
X108331000Y-126972060D03*
X105791000Y-126972060D03*
X103251000Y-126972060D03*
X100711000Y-126972060D03*
X98171000Y-126972060D03*
X95631000Y-126972060D03*
X93091000Y-126972060D03*
X90551000Y-126972060D03*
X88011000Y-126972060D03*
X85471000Y-126972060D03*
X82931000Y-126972060D03*
X80391000Y-126972060D03*
X77851000Y-126972060D03*
X75311000Y-126972060D03*
X72771000Y-126972060D03*
X70231000Y-126972060D03*
X67691000Y-126972060D03*
X65151000Y-126972060D03*
X62611000Y-126972060D03*
X60071000Y-126972060D03*
X57531000Y-126972060D03*
X230251000Y-124432060D03*
X227711000Y-124432060D03*
X225171000Y-124432060D03*
X154051000Y-124432060D03*
X151511000Y-124432060D03*
X148971000Y-124432060D03*
X146431000Y-124432060D03*
X143891000Y-124432060D03*
X141351000Y-124432060D03*
X138811000Y-124432060D03*
X136271000Y-124432060D03*
X133731000Y-124432060D03*
X131191000Y-124432060D03*
X128651000Y-124432060D03*
X126111000Y-124432060D03*
X123571000Y-124432060D03*
X121031000Y-124432060D03*
X118491000Y-124432060D03*
X115951000Y-124432060D03*
X113411000Y-124432060D03*
X110871000Y-124432060D03*
X108331000Y-124432060D03*
X105791000Y-124432060D03*
X103251000Y-124432060D03*
X100711000Y-124432060D03*
X98171000Y-124432060D03*
X95631000Y-124432060D03*
X93091000Y-124432060D03*
X90551000Y-124432060D03*
X88011000Y-124432060D03*
X85471000Y-124432060D03*
X82931000Y-124432060D03*
X80391000Y-124432060D03*
X77851000Y-124432060D03*
X75311000Y-124432060D03*
X72771000Y-124432060D03*
X70231000Y-124432060D03*
X67691000Y-124432060D03*
X65151000Y-124432060D03*
X62611000Y-124432060D03*
X60071000Y-124432060D03*
X57531000Y-124432060D03*
X230251000Y-121892060D03*
X227711000Y-121892060D03*
X225171000Y-121892060D03*
X154051000Y-121892060D03*
X151511000Y-121892060D03*
X148971000Y-121892060D03*
X146431000Y-121892060D03*
X143891000Y-121892060D03*
X141351000Y-121892060D03*
X138811000Y-121892060D03*
X136271000Y-121892060D03*
X133731000Y-121892060D03*
X131191000Y-121892060D03*
X128651000Y-121892060D03*
X126111000Y-121892060D03*
X123571000Y-121892060D03*
X121031000Y-121892060D03*
X118491000Y-121892060D03*
X115951000Y-121892060D03*
X113411000Y-121892060D03*
X110871000Y-121892060D03*
X108331000Y-121892060D03*
X105791000Y-121892060D03*
X103251000Y-121892060D03*
X100711000Y-121892060D03*
X98171000Y-121892060D03*
X95631000Y-121892060D03*
X93091000Y-121892060D03*
X90551000Y-121892060D03*
X88011000Y-121892060D03*
X85471000Y-121892060D03*
X82931000Y-121892060D03*
X80391000Y-121892060D03*
X77851000Y-121892060D03*
X75311000Y-121892060D03*
X72771000Y-121892060D03*
X70231000Y-121892060D03*
X67691000Y-121892060D03*
X65151000Y-121892060D03*
X62611000Y-121892060D03*
X60071000Y-121892060D03*
X57531000Y-121892060D03*
X230251000Y-119352060D03*
X227711000Y-119352060D03*
X225171000Y-119352060D03*
X154051000Y-119352060D03*
X151511000Y-119352060D03*
X148971000Y-119352060D03*
X146431000Y-119352060D03*
X143891000Y-119352060D03*
X141351000Y-119352060D03*
X138811000Y-119352060D03*
X136271000Y-119352060D03*
X133731000Y-119352060D03*
X131191000Y-119352060D03*
X128651000Y-119352060D03*
X126111000Y-119352060D03*
X123571000Y-119352060D03*
X121031000Y-119352060D03*
X118491000Y-119352060D03*
X115951000Y-119352060D03*
X113411000Y-119352060D03*
X110871000Y-119352060D03*
X108331000Y-119352060D03*
X105791000Y-119352060D03*
X103251000Y-119352060D03*
X100711000Y-119352060D03*
X98171000Y-119352060D03*
X95631000Y-119352060D03*
X93091000Y-119352060D03*
X90551000Y-119352060D03*
X88011000Y-119352060D03*
X85471000Y-119352060D03*
X82931000Y-119352060D03*
X80391000Y-119352060D03*
X77851000Y-119352060D03*
X75311000Y-119352060D03*
X72771000Y-119352060D03*
X70231000Y-119352060D03*
X67691000Y-119352060D03*
X65151000Y-119352060D03*
X62611000Y-119352060D03*
X60071000Y-119352060D03*
X57531000Y-119352060D03*
X230251000Y-116812060D03*
X227711000Y-116812060D03*
X225171000Y-116812060D03*
X222631000Y-116812060D03*
X156591000Y-116812060D03*
X154051000Y-116812060D03*
X151511000Y-116812060D03*
X148971000Y-116812060D03*
X146431000Y-116812060D03*
X143891000Y-116812060D03*
X141351000Y-116812060D03*
X138811000Y-116812060D03*
X136271000Y-116812060D03*
X133731000Y-116812060D03*
X131191000Y-116812060D03*
X128651000Y-116812060D03*
X126111000Y-116812060D03*
X123571000Y-116812060D03*
X121031000Y-116812060D03*
X118491000Y-116812060D03*
X115951000Y-116812060D03*
X113411000Y-116812060D03*
X110871000Y-116812060D03*
X108331000Y-116812060D03*
X105791000Y-116812060D03*
X103251000Y-116812060D03*
X100711000Y-116812060D03*
X98171000Y-116812060D03*
X95631000Y-116812060D03*
X93091000Y-116812060D03*
X90551000Y-116812060D03*
X88011000Y-116812060D03*
X85471000Y-116812060D03*
X82931000Y-116812060D03*
X80391000Y-116812060D03*
X77851000Y-116812060D03*
X75311000Y-116812060D03*
X72771000Y-116812060D03*
X70231000Y-116812060D03*
X67691000Y-116812060D03*
X65151000Y-116812060D03*
X62611000Y-116812060D03*
X60071000Y-116812060D03*
X57531000Y-116812060D03*
X230251000Y-114272060D03*
X227711000Y-114272060D03*
X225171000Y-114272060D03*
X222631000Y-114272060D03*
X220091000Y-114272060D03*
X217551000Y-114272060D03*
X215011000Y-114272060D03*
X212471000Y-114272060D03*
X209931000Y-114272060D03*
X207391000Y-114272060D03*
X204851000Y-114272060D03*
X202311000Y-114272060D03*
X199771000Y-114272060D03*
X197231000Y-114272060D03*
X194691000Y-114272060D03*
X192151000Y-114272060D03*
X189611000Y-114272060D03*
X187071000Y-114272060D03*
X184531000Y-114272060D03*
X181991000Y-114272060D03*
X179451000Y-114272060D03*
X176911000Y-114272060D03*
X174371000Y-114272060D03*
X171831000Y-114272060D03*
X169291000Y-114272060D03*
X166751000Y-114272060D03*
X164211000Y-114272060D03*
X161671000Y-114272060D03*
X159131000Y-114272060D03*
X156591000Y-114272060D03*
X154051000Y-114272060D03*
X151511000Y-114272060D03*
X148971000Y-114272060D03*
X146431000Y-114272060D03*
X143891000Y-114272060D03*
X141351000Y-114272060D03*
X138811000Y-114272060D03*
X136271000Y-114272060D03*
X133731000Y-114272060D03*
X131191000Y-114272060D03*
X128651000Y-114272060D03*
X126111000Y-114272060D03*
X123571000Y-114272060D03*
X121031000Y-114272060D03*
X118491000Y-114272060D03*
X115951000Y-114272060D03*
X113411000Y-114272060D03*
X110871000Y-114272060D03*
X108331000Y-114272060D03*
X105791000Y-114272060D03*
X103251000Y-114272060D03*
X100711000Y-114272060D03*
X98171000Y-114272060D03*
X95631000Y-114272060D03*
X93091000Y-114272060D03*
X90551000Y-114272060D03*
X88011000Y-114272060D03*
X85471000Y-114272060D03*
X82931000Y-114272060D03*
X80391000Y-114272060D03*
X77851000Y-114272060D03*
X75311000Y-114272060D03*
X72771000Y-114272060D03*
X70231000Y-114272060D03*
X67691000Y-114272060D03*
X65151000Y-114272060D03*
X62611000Y-114272060D03*
X60071000Y-114272060D03*
X57531000Y-114272060D03*
X230251000Y-111732060D03*
X227711000Y-111732060D03*
X225171000Y-111732060D03*
X222631000Y-111732060D03*
X220091000Y-111732060D03*
X217551000Y-111732060D03*
X215011000Y-111732060D03*
X212471000Y-111732060D03*
X209931000Y-111732060D03*
X207391000Y-111732060D03*
X204851000Y-111732060D03*
X202311000Y-111732060D03*
X199771000Y-111732060D03*
X197231000Y-111732060D03*
X194691000Y-111732060D03*
X192151000Y-111732060D03*
X189611000Y-111732060D03*
X187071000Y-111732060D03*
X184531000Y-111732060D03*
X181991000Y-111732060D03*
X179451000Y-111732060D03*
X176911000Y-111732060D03*
X174371000Y-111732060D03*
X171831000Y-111732060D03*
X169291000Y-111732060D03*
X166751000Y-111732060D03*
X164211000Y-111732060D03*
X161671000Y-111732060D03*
X159131000Y-111732060D03*
X156591000Y-111732060D03*
X154051000Y-111732060D03*
X151511000Y-111732060D03*
X148971000Y-111732060D03*
X146431000Y-111732060D03*
X143891000Y-111732060D03*
X141351000Y-111732060D03*
X138811000Y-111732060D03*
X136271000Y-111732060D03*
X133731000Y-111732060D03*
X131191000Y-111732060D03*
X128651000Y-111732060D03*
X126111000Y-111732060D03*
X123571000Y-111732060D03*
X121031000Y-111732060D03*
X118491000Y-111732060D03*
X115951000Y-111732060D03*
X113411000Y-111732060D03*
X110871000Y-111732060D03*
X108331000Y-111732060D03*
X105791000Y-111732060D03*
X103251000Y-111732060D03*
X100711000Y-111732060D03*
X98171000Y-111732060D03*
X95631000Y-111732060D03*
X93091000Y-111732060D03*
X90551000Y-111732060D03*
X88011000Y-111732060D03*
X85471000Y-111732060D03*
X82931000Y-111732060D03*
X80391000Y-111732060D03*
X77851000Y-111732060D03*
X75311000Y-111732060D03*
X72771000Y-111732060D03*
X70231000Y-111732060D03*
X67691000Y-111732060D03*
X65151000Y-111732060D03*
X62611000Y-111732060D03*
X60071000Y-111732060D03*
X57531000Y-111732060D03*
X230251000Y-109192060D03*
X227711000Y-109192060D03*
X225171000Y-109192060D03*
X222631000Y-109192060D03*
X220091000Y-109192060D03*
X217551000Y-109192060D03*
X215011000Y-109192060D03*
X212471000Y-109192060D03*
X209931000Y-109192060D03*
X207391000Y-109192060D03*
X204851000Y-109192060D03*
X202311000Y-109192060D03*
X199771000Y-109192060D03*
X197231000Y-109192060D03*
X194691000Y-109192060D03*
X192151000Y-109192060D03*
X189611000Y-109192060D03*
X187071000Y-109192060D03*
X184531000Y-109192060D03*
X181991000Y-109192060D03*
X179451000Y-109192060D03*
X176911000Y-109192060D03*
X174371000Y-109192060D03*
X171831000Y-109192060D03*
X169291000Y-109192060D03*
X166751000Y-109192060D03*
X164211000Y-109192060D03*
X161671000Y-109192060D03*
X159131000Y-109192060D03*
X156591000Y-109192060D03*
X154051000Y-109192060D03*
X151511000Y-109192060D03*
X148971000Y-109192060D03*
X146431000Y-109192060D03*
X143891000Y-109192060D03*
X141351000Y-109192060D03*
X138811000Y-109192060D03*
X136271000Y-109192060D03*
X133731000Y-109192060D03*
X131191000Y-109192060D03*
X128651000Y-109192060D03*
X126111000Y-109192060D03*
X123571000Y-109192060D03*
X121031000Y-109192060D03*
X118491000Y-109192060D03*
X115951000Y-109192060D03*
X113411000Y-109192060D03*
X110871000Y-109192060D03*
X108331000Y-109192060D03*
X105791000Y-109192060D03*
X103251000Y-109192060D03*
X100711000Y-109192060D03*
X98171000Y-109192060D03*
X95631000Y-109192060D03*
X93091000Y-109192060D03*
X90551000Y-109192060D03*
X88011000Y-109192060D03*
X85471000Y-109192060D03*
X82931000Y-109192060D03*
X80391000Y-109192060D03*
X77851000Y-109192060D03*
X75311000Y-109192060D03*
X72771000Y-109192060D03*
X70231000Y-109192060D03*
X67691000Y-109192060D03*
X65151000Y-109192060D03*
X62611000Y-109192060D03*
X60071000Y-109192060D03*
X57531000Y-109192060D03*
X230251000Y-106652060D03*
X227711000Y-106652060D03*
X225171000Y-106652060D03*
X222631000Y-106652060D03*
X220091000Y-106652060D03*
X217551000Y-106652060D03*
X215011000Y-106652060D03*
X212471000Y-106652060D03*
X209931000Y-106652060D03*
X207391000Y-106652060D03*
X204851000Y-106652060D03*
X202311000Y-106652060D03*
X199771000Y-106652060D03*
X197231000Y-106652060D03*
X194691000Y-106652060D03*
X192151000Y-106652060D03*
X189611000Y-106652060D03*
X187071000Y-106652060D03*
X184531000Y-106652060D03*
X181991000Y-106652060D03*
X179451000Y-106652060D03*
X176911000Y-106652060D03*
X174371000Y-106652060D03*
X171831000Y-106652060D03*
X169291000Y-106652060D03*
X166751000Y-106652060D03*
X164211000Y-106652060D03*
X161671000Y-106652060D03*
X159131000Y-106652060D03*
X156591000Y-106652060D03*
X154051000Y-106652060D03*
X151511000Y-106652060D03*
X148971000Y-106652060D03*
X146431000Y-106652060D03*
X143891000Y-106652060D03*
X141351000Y-106652060D03*
X138811000Y-106652060D03*
X136271000Y-106652060D03*
X133731000Y-106652060D03*
X131191000Y-106652060D03*
X128651000Y-106652060D03*
X126111000Y-106652060D03*
X123571000Y-106652060D03*
X121031000Y-106652060D03*
X118491000Y-106652060D03*
X115951000Y-106652060D03*
X113411000Y-106652060D03*
X110871000Y-106652060D03*
X108331000Y-106652060D03*
X105791000Y-106652060D03*
X103251000Y-106652060D03*
X100711000Y-106652060D03*
X98171000Y-106652060D03*
X95631000Y-106652060D03*
X93091000Y-106652060D03*
X90551000Y-106652060D03*
X88011000Y-106652060D03*
X85471000Y-106652060D03*
X82931000Y-106652060D03*
X80391000Y-106652060D03*
X77851000Y-106652060D03*
X75311000Y-106652060D03*
X72771000Y-106652060D03*
X70231000Y-106652060D03*
X67691000Y-106652060D03*
X65151000Y-106652060D03*
X62611000Y-106652060D03*
X60071000Y-106652060D03*
X57531000Y-106652060D03*
X230251000Y-104112060D03*
X227711000Y-104112060D03*
X225171000Y-104112060D03*
X222631000Y-104112060D03*
X220091000Y-104112060D03*
X217551000Y-104112060D03*
X215011000Y-104112060D03*
X212471000Y-104112060D03*
X209931000Y-104112060D03*
X207391000Y-104112060D03*
X204851000Y-104112060D03*
X202311000Y-104112060D03*
X199771000Y-104112060D03*
X197231000Y-104112060D03*
X194691000Y-104112060D03*
X192151000Y-104112060D03*
X189611000Y-104112060D03*
X187071000Y-104112060D03*
X184531000Y-104112060D03*
X181991000Y-104112060D03*
X179451000Y-104112060D03*
X176911000Y-104112060D03*
X174371000Y-104112060D03*
X171831000Y-104112060D03*
X169291000Y-104112060D03*
X166751000Y-104112060D03*
X164211000Y-104112060D03*
X161671000Y-104112060D03*
X159131000Y-104112060D03*
X156591000Y-104112060D03*
X154051000Y-104112060D03*
X151511000Y-104112060D03*
X148971000Y-104112060D03*
X146431000Y-104112060D03*
X143891000Y-104112060D03*
X141351000Y-104112060D03*
X138811000Y-104112060D03*
X136271000Y-104112060D03*
X133731000Y-104112060D03*
X131191000Y-104112060D03*
X128651000Y-104112060D03*
X126111000Y-104112060D03*
X123571000Y-104112060D03*
X121031000Y-104112060D03*
X118491000Y-104112060D03*
X115951000Y-104112060D03*
X113411000Y-104112060D03*
X110871000Y-104112060D03*
X108331000Y-104112060D03*
X105791000Y-104112060D03*
X103251000Y-104112060D03*
X100711000Y-104112060D03*
X98171000Y-104112060D03*
X95631000Y-104112060D03*
X93091000Y-104112060D03*
X90551000Y-104112060D03*
X88011000Y-104112060D03*
X85471000Y-104112060D03*
X82931000Y-104112060D03*
X80391000Y-104112060D03*
X77851000Y-104112060D03*
X75311000Y-104112060D03*
X72771000Y-104112060D03*
X70231000Y-104112060D03*
X67691000Y-104112060D03*
X65151000Y-104112060D03*
X62611000Y-104112060D03*
X60071000Y-104112060D03*
X57531000Y-104112060D03*
X230251000Y-101572060D03*
X227711000Y-101572060D03*
X225171000Y-101572060D03*
X222631000Y-101572060D03*
X220091000Y-101572060D03*
X217551000Y-101572060D03*
X215011000Y-101572060D03*
X212471000Y-101572060D03*
X209931000Y-101572060D03*
X207391000Y-101572060D03*
X204851000Y-101572060D03*
X202311000Y-101572060D03*
X199771000Y-101572060D03*
X197231000Y-101572060D03*
X194691000Y-101572060D03*
X192151000Y-101572060D03*
X189611000Y-101572060D03*
X187071000Y-101572060D03*
X184531000Y-101572060D03*
X181991000Y-101572060D03*
X179451000Y-101572060D03*
X176911000Y-101572060D03*
X174371000Y-101572060D03*
X171831000Y-101572060D03*
X169291000Y-101572060D03*
X166751000Y-101572060D03*
X164211000Y-101572060D03*
X161671000Y-101572060D03*
X159131000Y-101572060D03*
X156591000Y-101572060D03*
X154051000Y-101572060D03*
X151511000Y-101572060D03*
X148971000Y-101572060D03*
X146431000Y-101572060D03*
X143891000Y-101572060D03*
X141351000Y-101572060D03*
X138811000Y-101572060D03*
X136271000Y-101572060D03*
X133731000Y-101572060D03*
X131191000Y-101572060D03*
X128651000Y-101572060D03*
X126111000Y-101572060D03*
X123571000Y-101572060D03*
X121031000Y-101572060D03*
X118491000Y-101572060D03*
X115951000Y-101572060D03*
X113411000Y-101572060D03*
X110871000Y-101572060D03*
X108331000Y-101572060D03*
X105791000Y-101572060D03*
X103251000Y-101572060D03*
X100711000Y-101572060D03*
X98171000Y-101572060D03*
X95631000Y-101572060D03*
X93091000Y-101572060D03*
X90551000Y-101572060D03*
X88011000Y-101572060D03*
X85471000Y-101572060D03*
X82931000Y-101572060D03*
X80391000Y-101572060D03*
X77851000Y-101572060D03*
X75311000Y-101572060D03*
X72771000Y-101572060D03*
X70231000Y-101572060D03*
X67691000Y-101572060D03*
X65151000Y-101572060D03*
X62611000Y-101572060D03*
X60071000Y-101572060D03*
X57531000Y-101572060D03*
X230251000Y-99032060D03*
X227711000Y-99032060D03*
X225171000Y-99032060D03*
X222631000Y-99032060D03*
X220091000Y-99032060D03*
X217551000Y-99032060D03*
X215011000Y-99032060D03*
X212471000Y-99032060D03*
X209931000Y-99032060D03*
X207391000Y-99032060D03*
X204851000Y-99032060D03*
X202311000Y-99032060D03*
X199771000Y-99032060D03*
X197231000Y-99032060D03*
X194691000Y-99032060D03*
X192151000Y-99032060D03*
X189611000Y-99032060D03*
X187071000Y-99032060D03*
X184531000Y-99032060D03*
X181991000Y-99032060D03*
X179451000Y-99032060D03*
X176911000Y-99032060D03*
X174371000Y-99032060D03*
X171831000Y-99032060D03*
X169291000Y-99032060D03*
X166751000Y-99032060D03*
X164211000Y-99032060D03*
X161671000Y-99032060D03*
X159131000Y-99032060D03*
X156591000Y-99032060D03*
X154051000Y-99032060D03*
X151511000Y-99032060D03*
X148971000Y-99032060D03*
X146431000Y-99032060D03*
X143891000Y-99032060D03*
X141351000Y-99032060D03*
X138811000Y-99032060D03*
X136271000Y-99032060D03*
X133731000Y-99032060D03*
X131191000Y-99032060D03*
X128651000Y-99032060D03*
X126111000Y-99032060D03*
X123571000Y-99032060D03*
X121031000Y-99032060D03*
X118491000Y-99032060D03*
X115951000Y-99032060D03*
X113411000Y-99032060D03*
X110871000Y-99032060D03*
X108331000Y-99032060D03*
X105791000Y-99032060D03*
X103251000Y-99032060D03*
X100711000Y-99032060D03*
X98171000Y-99032060D03*
X95631000Y-99032060D03*
X93091000Y-99032060D03*
X90551000Y-99032060D03*
X88011000Y-99032060D03*
X85471000Y-99032060D03*
X82931000Y-99032060D03*
X80391000Y-99032060D03*
X77851000Y-99032060D03*
X75311000Y-99032060D03*
X72771000Y-99032060D03*
X70231000Y-99032060D03*
X67691000Y-99032060D03*
X65151000Y-99032060D03*
X62611000Y-99032060D03*
X60071000Y-99032060D03*
X57531000Y-99032060D03*
X230251000Y-96492060D03*
X227711000Y-96492060D03*
X225171000Y-96492060D03*
X222631000Y-96492060D03*
X220091000Y-96492060D03*
X217551000Y-96492060D03*
X215011000Y-96492060D03*
X212471000Y-96492060D03*
X209931000Y-96492060D03*
X207391000Y-96492060D03*
X204851000Y-96492060D03*
X202311000Y-96492060D03*
X199771000Y-96492060D03*
X197231000Y-96492060D03*
X194691000Y-96492060D03*
X192151000Y-96492060D03*
X189611000Y-96492060D03*
X187071000Y-96492060D03*
X184531000Y-96492060D03*
X181991000Y-96492060D03*
X179451000Y-96492060D03*
X176911000Y-96492060D03*
X174371000Y-96492060D03*
X171831000Y-96492060D03*
X169291000Y-96492060D03*
X166751000Y-96492060D03*
X164211000Y-96492060D03*
X161671000Y-96492060D03*
X159131000Y-96492060D03*
X156591000Y-96492060D03*
X154051000Y-96492060D03*
X151511000Y-96492060D03*
X148971000Y-96492060D03*
X146431000Y-96492060D03*
X143891000Y-96492060D03*
X141351000Y-96492060D03*
X138811000Y-96492060D03*
X136271000Y-96492060D03*
X133731000Y-96492060D03*
X131191000Y-96492060D03*
X128651000Y-96492060D03*
X126111000Y-96492060D03*
X123571000Y-96492060D03*
X121031000Y-96492060D03*
X118491000Y-96492060D03*
X115951000Y-96492060D03*
X113411000Y-96492060D03*
X110871000Y-96492060D03*
X108331000Y-96492060D03*
X105791000Y-96492060D03*
X103251000Y-96492060D03*
X100711000Y-96492060D03*
X98171000Y-96492060D03*
X95631000Y-96492060D03*
X93091000Y-96492060D03*
X90551000Y-96492060D03*
X88011000Y-96492060D03*
X85471000Y-96492060D03*
X82931000Y-96492060D03*
X80391000Y-96492060D03*
X77851000Y-96492060D03*
X75311000Y-96492060D03*
X72771000Y-96492060D03*
X70231000Y-96492060D03*
X67691000Y-96492060D03*
X65151000Y-96492060D03*
X62611000Y-96492060D03*
X60071000Y-96492060D03*
X57531000Y-96492060D03*
X230251000Y-93952060D03*
X227711000Y-93952060D03*
X225171000Y-93952060D03*
X222631000Y-93952060D03*
X220091000Y-93952060D03*
X217551000Y-93952060D03*
X215011000Y-93952060D03*
X212471000Y-93952060D03*
X209931000Y-93952060D03*
X207391000Y-93952060D03*
X204851000Y-93952060D03*
X202311000Y-93952060D03*
X199771000Y-93952060D03*
X197231000Y-93952060D03*
X194691000Y-93952060D03*
X192151000Y-93952060D03*
X189611000Y-93952060D03*
X187071000Y-93952060D03*
X184531000Y-93952060D03*
X181991000Y-93952060D03*
X179451000Y-93952060D03*
X176911000Y-93952060D03*
X174371000Y-93952060D03*
X171831000Y-93952060D03*
X169291000Y-93952060D03*
X166751000Y-93952060D03*
X164211000Y-93952060D03*
X161671000Y-93952060D03*
X159131000Y-93952060D03*
X156591000Y-93952060D03*
X154051000Y-93952060D03*
X151511000Y-93952060D03*
X148971000Y-93952060D03*
X146431000Y-93952060D03*
X143891000Y-93952060D03*
X141351000Y-93952060D03*
X138811000Y-93952060D03*
X136271000Y-93952060D03*
X133731000Y-93952060D03*
X131191000Y-93952060D03*
X128651000Y-93952060D03*
X126111000Y-93952060D03*
X123571000Y-93952060D03*
X121031000Y-93952060D03*
X118491000Y-93952060D03*
X115951000Y-93952060D03*
X113411000Y-93952060D03*
X110871000Y-93952060D03*
X108331000Y-93952060D03*
X105791000Y-93952060D03*
X103251000Y-93952060D03*
X100711000Y-93952060D03*
X98171000Y-93952060D03*
X95631000Y-93952060D03*
X93091000Y-93952060D03*
X90551000Y-93952060D03*
X88011000Y-93952060D03*
X85471000Y-93952060D03*
X82931000Y-93952060D03*
X80391000Y-93952060D03*
X77851000Y-93952060D03*
X75311000Y-93952060D03*
X72771000Y-93952060D03*
X70231000Y-93952060D03*
X67691000Y-93952060D03*
X65151000Y-93952060D03*
X62611000Y-93952060D03*
X60071000Y-93952060D03*
X57531000Y-93952060D03*
X230251000Y-91412060D03*
X227711000Y-91412060D03*
X225171000Y-91412060D03*
X222631000Y-91412060D03*
X220091000Y-91412060D03*
X217551000Y-91412060D03*
X215011000Y-91412060D03*
X212471000Y-91412060D03*
X209931000Y-91412060D03*
X207391000Y-91412060D03*
X204851000Y-91412060D03*
X202311000Y-91412060D03*
X199771000Y-91412060D03*
X197231000Y-91412060D03*
X194691000Y-91412060D03*
X192151000Y-91412060D03*
X189611000Y-91412060D03*
X187071000Y-91412060D03*
X184531000Y-91412060D03*
X181991000Y-91412060D03*
X179451000Y-91412060D03*
X176911000Y-91412060D03*
X174371000Y-91412060D03*
X171831000Y-91412060D03*
X169291000Y-91412060D03*
X166751000Y-91412060D03*
X164211000Y-91412060D03*
X161671000Y-91412060D03*
X159131000Y-91412060D03*
X156591000Y-91412060D03*
X154051000Y-91412060D03*
X151511000Y-91412060D03*
X148971000Y-91412060D03*
X146431000Y-91412060D03*
X143891000Y-91412060D03*
X141351000Y-91412060D03*
X138811000Y-91412060D03*
X136271000Y-91412060D03*
X133731000Y-91412060D03*
X131191000Y-91412060D03*
X128651000Y-91412060D03*
X126111000Y-91412060D03*
X123571000Y-91412060D03*
X121031000Y-91412060D03*
X118491000Y-91412060D03*
X115951000Y-91412060D03*
X113411000Y-91412060D03*
X110871000Y-91412060D03*
X108331000Y-91412060D03*
X105791000Y-91412060D03*
X103251000Y-91412060D03*
X100711000Y-91412060D03*
X98171000Y-91412060D03*
X95631000Y-91412060D03*
X93091000Y-91412060D03*
X90551000Y-91412060D03*
X88011000Y-91412060D03*
X85471000Y-91412060D03*
X82931000Y-91412060D03*
X80391000Y-91412060D03*
X77851000Y-91412060D03*
X75311000Y-91412060D03*
X72771000Y-91412060D03*
X70231000Y-91412060D03*
X67691000Y-91412060D03*
X65151000Y-91412060D03*
X62611000Y-91412060D03*
X60071000Y-91412060D03*
X57531000Y-91412060D03*
X230251000Y-88872060D03*
X227711000Y-88872060D03*
X225171000Y-88872060D03*
X222631000Y-88872060D03*
X220091000Y-88872060D03*
X217551000Y-88872060D03*
X215011000Y-88872060D03*
X212471000Y-88872060D03*
X209931000Y-88872060D03*
X207391000Y-88872060D03*
X204851000Y-88872060D03*
X202311000Y-88872060D03*
X199771000Y-88872060D03*
X197231000Y-88872060D03*
X194691000Y-88872060D03*
X192151000Y-88872060D03*
X189611000Y-88872060D03*
X187071000Y-88872060D03*
X184531000Y-88872060D03*
X181991000Y-88872060D03*
X179451000Y-88872060D03*
X176911000Y-88872060D03*
X174371000Y-88872060D03*
X171831000Y-88872060D03*
X169291000Y-88872060D03*
X166751000Y-88872060D03*
X164211000Y-88872060D03*
X161671000Y-88872060D03*
X159131000Y-88872060D03*
X156591000Y-88872060D03*
X154051000Y-88872060D03*
X151511000Y-88872060D03*
X148971000Y-88872060D03*
X146431000Y-88872060D03*
X143891000Y-88872060D03*
X141351000Y-88872060D03*
X138811000Y-88872060D03*
X136271000Y-88872060D03*
X133731000Y-88872060D03*
X131191000Y-88872060D03*
X128651000Y-88872060D03*
X126111000Y-88872060D03*
X123571000Y-88872060D03*
X121031000Y-88872060D03*
X118491000Y-88872060D03*
X115951000Y-88872060D03*
X113411000Y-88872060D03*
X110871000Y-88872060D03*
X108331000Y-88872060D03*
X105791000Y-88872060D03*
X103251000Y-88872060D03*
X100711000Y-88872060D03*
X98171000Y-88872060D03*
X95631000Y-88872060D03*
X93091000Y-88872060D03*
X90551000Y-88872060D03*
X88011000Y-88872060D03*
X85471000Y-88872060D03*
X82931000Y-88872060D03*
X80391000Y-88872060D03*
X77851000Y-88872060D03*
X75311000Y-88872060D03*
X72771000Y-88872060D03*
X70231000Y-88872060D03*
X67691000Y-88872060D03*
X65151000Y-88872060D03*
X62611000Y-88872060D03*
X60071000Y-88872060D03*
X57531000Y-88872060D03*
X230251000Y-86332060D03*
X227711000Y-86332060D03*
X225171000Y-86332060D03*
X222631000Y-86332060D03*
X220091000Y-86332060D03*
X217551000Y-86332060D03*
X215011000Y-86332060D03*
X212471000Y-86332060D03*
X209931000Y-86332060D03*
X207391000Y-86332060D03*
X204851000Y-86332060D03*
X202311000Y-86332060D03*
X199771000Y-86332060D03*
X197231000Y-86332060D03*
X194691000Y-86332060D03*
X192151000Y-86332060D03*
X189611000Y-86332060D03*
X187071000Y-86332060D03*
X184531000Y-86332060D03*
X181991000Y-86332060D03*
X179451000Y-86332060D03*
X176911000Y-86332060D03*
X174371000Y-86332060D03*
X171831000Y-86332060D03*
X169291000Y-86332060D03*
X166751000Y-86332060D03*
X164211000Y-86332060D03*
X161671000Y-86332060D03*
X159131000Y-86332060D03*
X156591000Y-86332060D03*
X154051000Y-86332060D03*
X151511000Y-86332060D03*
X148971000Y-86332060D03*
X146431000Y-86332060D03*
X143891000Y-86332060D03*
X141351000Y-86332060D03*
X138811000Y-86332060D03*
X136271000Y-86332060D03*
X133731000Y-86332060D03*
X131191000Y-86332060D03*
X128651000Y-86332060D03*
X126111000Y-86332060D03*
X123571000Y-86332060D03*
X121031000Y-86332060D03*
X118491000Y-86332060D03*
X115951000Y-86332060D03*
X113411000Y-86332060D03*
X110871000Y-86332060D03*
X108331000Y-86332060D03*
X105791000Y-86332060D03*
X103251000Y-86332060D03*
X100711000Y-86332060D03*
X98171000Y-86332060D03*
X95631000Y-86332060D03*
X93091000Y-86332060D03*
X90551000Y-86332060D03*
X88011000Y-86332060D03*
X85471000Y-86332060D03*
X82931000Y-86332060D03*
X80391000Y-86332060D03*
X77851000Y-86332060D03*
X75311000Y-86332060D03*
X72771000Y-86332060D03*
X70231000Y-86332060D03*
X67691000Y-86332060D03*
X65151000Y-86332060D03*
X62611000Y-86332060D03*
X60071000Y-86332060D03*
X57531000Y-86332060D03*
X230251000Y-83792060D03*
X227711000Y-83792060D03*
X225171000Y-83792060D03*
X222631000Y-83792060D03*
X220091000Y-83792060D03*
X217551000Y-83792060D03*
X215011000Y-83792060D03*
X212471000Y-83792060D03*
X209931000Y-83792060D03*
X207391000Y-83792060D03*
X204851000Y-83792060D03*
X202311000Y-83792060D03*
X199771000Y-83792060D03*
X197231000Y-83792060D03*
X194691000Y-83792060D03*
X192151000Y-83792060D03*
X189611000Y-83792060D03*
X187071000Y-83792060D03*
X184531000Y-83792060D03*
X181991000Y-83792060D03*
X179451000Y-83792060D03*
X176911000Y-83792060D03*
X174371000Y-83792060D03*
X171831000Y-83792060D03*
X169291000Y-83792060D03*
X166751000Y-83792060D03*
X164211000Y-83792060D03*
X161671000Y-83792060D03*
X159131000Y-83792060D03*
X156591000Y-83792060D03*
X154051000Y-83792060D03*
X151511000Y-83792060D03*
X148971000Y-83792060D03*
X146431000Y-83792060D03*
X143891000Y-83792060D03*
X141351000Y-83792060D03*
X138811000Y-83792060D03*
X136271000Y-83792060D03*
X133731000Y-83792060D03*
X131191000Y-83792060D03*
X128651000Y-83792060D03*
X126111000Y-83792060D03*
X123571000Y-83792060D03*
X121031000Y-83792060D03*
X118491000Y-83792060D03*
X115951000Y-83792060D03*
X113411000Y-83792060D03*
X110871000Y-83792060D03*
X108331000Y-83792060D03*
X105791000Y-83792060D03*
X103251000Y-83792060D03*
X100711000Y-83792060D03*
X98171000Y-83792060D03*
X95631000Y-83792060D03*
X93091000Y-83792060D03*
X90551000Y-83792060D03*
X88011000Y-83792060D03*
X85471000Y-83792060D03*
X82931000Y-83792060D03*
X80391000Y-83792060D03*
X77851000Y-83792060D03*
X75311000Y-83792060D03*
X72771000Y-83792060D03*
X70231000Y-83792060D03*
X67691000Y-83792060D03*
X65151000Y-83792060D03*
X62611000Y-83792060D03*
X60071000Y-83792060D03*
X57531000Y-83792060D03*
X230251000Y-81252060D03*
X227711000Y-81252060D03*
X225171000Y-81252060D03*
X222631000Y-81252060D03*
X220091000Y-81252060D03*
X217551000Y-81252060D03*
X215011000Y-81252060D03*
X212471000Y-81252060D03*
X209931000Y-81252060D03*
X207391000Y-81252060D03*
X204851000Y-81252060D03*
X202311000Y-81252060D03*
X199771000Y-81252060D03*
X197231000Y-81252060D03*
X194691000Y-81252060D03*
X192151000Y-81252060D03*
X189611000Y-81252060D03*
X187071000Y-81252060D03*
X184531000Y-81252060D03*
X181991000Y-81252060D03*
X179451000Y-81252060D03*
X176911000Y-81252060D03*
X174371000Y-81252060D03*
X171831000Y-81252060D03*
X169291000Y-81252060D03*
X166751000Y-81252060D03*
X164211000Y-81252060D03*
X161671000Y-81252060D03*
X159131000Y-81252060D03*
X156591000Y-81252060D03*
X154051000Y-81252060D03*
X151511000Y-81252060D03*
X148971000Y-81252060D03*
X146431000Y-81252060D03*
X143891000Y-81252060D03*
X141351000Y-81252060D03*
X138811000Y-81252060D03*
X136271000Y-81252060D03*
X133731000Y-81252060D03*
X131191000Y-81252060D03*
X128651000Y-81252060D03*
X126111000Y-81252060D03*
X123571000Y-81252060D03*
X121031000Y-81252060D03*
X118491000Y-81252060D03*
X115951000Y-81252060D03*
X113411000Y-81252060D03*
X110871000Y-81252060D03*
X108331000Y-81252060D03*
X105791000Y-81252060D03*
X103251000Y-81252060D03*
X100711000Y-81252060D03*
X98171000Y-81252060D03*
X95631000Y-81252060D03*
X93091000Y-81252060D03*
X90551000Y-81252060D03*
X88011000Y-81252060D03*
X85471000Y-81252060D03*
X82931000Y-81252060D03*
X80391000Y-81252060D03*
X77851000Y-81252060D03*
X75311000Y-81252060D03*
X72771000Y-81252060D03*
X70231000Y-81252060D03*
X67691000Y-81252060D03*
X65151000Y-81252060D03*
X62611000Y-81252060D03*
X60071000Y-81252060D03*
X57531000Y-81252060D03*
X230251000Y-78712060D03*
X227711000Y-78712060D03*
X225171000Y-78712060D03*
X222631000Y-78712060D03*
X220091000Y-78712060D03*
X217551000Y-78712060D03*
X215011000Y-78712060D03*
X212471000Y-78712060D03*
X209931000Y-78712060D03*
X207391000Y-78712060D03*
X204851000Y-78712060D03*
X202311000Y-78712060D03*
X199771000Y-78712060D03*
X197231000Y-78712060D03*
X194691000Y-78712060D03*
X192151000Y-78712060D03*
X189611000Y-78712060D03*
X187071000Y-78712060D03*
X184531000Y-78712060D03*
X181991000Y-78712060D03*
X179451000Y-78712060D03*
X176911000Y-78712060D03*
X174371000Y-78712060D03*
X171831000Y-78712060D03*
X169291000Y-78712060D03*
X166751000Y-78712060D03*
X164211000Y-78712060D03*
X161671000Y-78712060D03*
X159131000Y-78712060D03*
X156591000Y-78712060D03*
X154051000Y-78712060D03*
X151511000Y-78712060D03*
X148971000Y-78712060D03*
X146431000Y-78712060D03*
X143891000Y-78712060D03*
X141351000Y-78712060D03*
X138811000Y-78712060D03*
X136271000Y-78712060D03*
X133731000Y-78712060D03*
X131191000Y-78712060D03*
X128651000Y-78712060D03*
X126111000Y-78712060D03*
X123571000Y-78712060D03*
X121031000Y-78712060D03*
X118491000Y-78712060D03*
X115951000Y-78712060D03*
X113411000Y-78712060D03*
X110871000Y-78712060D03*
X108331000Y-78712060D03*
X105791000Y-78712060D03*
X103251000Y-78712060D03*
X100711000Y-78712060D03*
X98171000Y-78712060D03*
X95631000Y-78712060D03*
X93091000Y-78712060D03*
X90551000Y-78712060D03*
X88011000Y-78712060D03*
X85471000Y-78712060D03*
X82931000Y-78712060D03*
X80391000Y-78712060D03*
X77851000Y-78712060D03*
X75311000Y-78712060D03*
X72771000Y-78712060D03*
X70231000Y-78712060D03*
X67691000Y-78712060D03*
X65151000Y-78712060D03*
X62611000Y-78712060D03*
X60071000Y-78712060D03*
X57531000Y-78712060D03*
X230251000Y-76172060D03*
X227711000Y-76172060D03*
X225171000Y-76172060D03*
X222631000Y-76172060D03*
X220091000Y-76172060D03*
X217551000Y-76172060D03*
X215011000Y-76172060D03*
X212471000Y-76172060D03*
X209931000Y-76172060D03*
X207391000Y-76172060D03*
X204851000Y-76172060D03*
X202311000Y-76172060D03*
X199771000Y-76172060D03*
X197231000Y-76172060D03*
X194691000Y-76172060D03*
X192151000Y-76172060D03*
X189611000Y-76172060D03*
X187071000Y-76172060D03*
X184531000Y-76172060D03*
X181991000Y-76172060D03*
X179451000Y-76172060D03*
X176911000Y-76172060D03*
X174371000Y-76172060D03*
X171831000Y-76172060D03*
X169291000Y-76172060D03*
X166751000Y-76172060D03*
X164211000Y-76172060D03*
X161671000Y-76172060D03*
X159131000Y-76172060D03*
X156591000Y-76172060D03*
X154051000Y-76172060D03*
X151511000Y-76172060D03*
X148971000Y-76172060D03*
X146431000Y-76172060D03*
X143891000Y-76172060D03*
X141351000Y-76172060D03*
X138811000Y-76172060D03*
X136271000Y-76172060D03*
X133731000Y-76172060D03*
X131191000Y-76172060D03*
X128651000Y-76172060D03*
X126111000Y-76172060D03*
X123571000Y-76172060D03*
X121031000Y-76172060D03*
X118491000Y-76172060D03*
X115951000Y-76172060D03*
X113411000Y-76172060D03*
X110871000Y-76172060D03*
X108331000Y-76172060D03*
X105791000Y-76172060D03*
X103251000Y-76172060D03*
X100711000Y-76172060D03*
X98171000Y-76172060D03*
X95631000Y-76172060D03*
X93091000Y-76172060D03*
X90551000Y-76172060D03*
X88011000Y-76172060D03*
X85471000Y-76172060D03*
X82931000Y-76172060D03*
X80391000Y-76172060D03*
X77851000Y-76172060D03*
X75311000Y-76172060D03*
X72771000Y-76172060D03*
X70231000Y-76172060D03*
X67691000Y-76172060D03*
X65151000Y-76172060D03*
X62611000Y-76172060D03*
X60071000Y-76172060D03*
X57531000Y-76172060D03*
X230251000Y-73632060D03*
X227711000Y-73632060D03*
X225171000Y-73632060D03*
X222631000Y-73632060D03*
X220091000Y-73632060D03*
X217551000Y-73632060D03*
X215011000Y-73632060D03*
X212471000Y-73632060D03*
X209931000Y-73632060D03*
X207391000Y-73632060D03*
X204851000Y-73632060D03*
X202311000Y-73632060D03*
X199771000Y-73632060D03*
X197231000Y-73632060D03*
X194691000Y-73632060D03*
X192151000Y-73632060D03*
X189611000Y-73632060D03*
X187071000Y-73632060D03*
X184531000Y-73632060D03*
X181991000Y-73632060D03*
X179451000Y-73632060D03*
X176911000Y-73632060D03*
X174371000Y-73632060D03*
X171831000Y-73632060D03*
X169291000Y-73632060D03*
X166751000Y-73632060D03*
X164211000Y-73632060D03*
X161671000Y-73632060D03*
X159131000Y-73632060D03*
X156591000Y-73632060D03*
X154051000Y-73632060D03*
X151511000Y-73632060D03*
X148971000Y-73632060D03*
X146431000Y-73632060D03*
X143891000Y-73632060D03*
X141351000Y-73632060D03*
X138811000Y-73632060D03*
X136271000Y-73632060D03*
X133731000Y-73632060D03*
X131191000Y-73632060D03*
X128651000Y-73632060D03*
X126111000Y-73632060D03*
X123571000Y-73632060D03*
X121031000Y-73632060D03*
X118491000Y-73632060D03*
X115951000Y-73632060D03*
X113411000Y-73632060D03*
X110871000Y-73632060D03*
X108331000Y-73632060D03*
X105791000Y-73632060D03*
X103251000Y-73632060D03*
X100711000Y-73632060D03*
X98171000Y-73632060D03*
X95631000Y-73632060D03*
X93091000Y-73632060D03*
X90551000Y-73632060D03*
X88011000Y-73632060D03*
X85471000Y-73632060D03*
X82931000Y-73632060D03*
X80391000Y-73632060D03*
X77851000Y-73632060D03*
X75311000Y-73632060D03*
X72771000Y-73632060D03*
X70231000Y-73632060D03*
X67691000Y-73632060D03*
X65151000Y-73632060D03*
X62611000Y-73632060D03*
X60071000Y-73632060D03*
X57531000Y-73632060D03*
X230251000Y-71092060D03*
X227711000Y-71092060D03*
X225171000Y-71092060D03*
X222631000Y-71092060D03*
X220091000Y-71092060D03*
X217551000Y-71092060D03*
X215011000Y-71092060D03*
X212471000Y-71092060D03*
X209931000Y-71092060D03*
X207391000Y-71092060D03*
X204851000Y-71092060D03*
X202311000Y-71092060D03*
X199771000Y-71092060D03*
X197231000Y-71092060D03*
X194691000Y-71092060D03*
X192151000Y-71092060D03*
X189611000Y-71092060D03*
X187071000Y-71092060D03*
X184531000Y-71092060D03*
X181991000Y-71092060D03*
X179451000Y-71092060D03*
X176911000Y-71092060D03*
X174371000Y-71092060D03*
X171831000Y-71092060D03*
X169291000Y-71092060D03*
X166751000Y-71092060D03*
X164211000Y-71092060D03*
X161671000Y-71092060D03*
X159131000Y-71092060D03*
X156591000Y-71092060D03*
X154051000Y-71092060D03*
X151511000Y-71092060D03*
X148971000Y-71092060D03*
X146431000Y-71092060D03*
X143891000Y-71092060D03*
X141351000Y-71092060D03*
X138811000Y-71092060D03*
X136271000Y-71092060D03*
X133731000Y-71092060D03*
X131191000Y-71092060D03*
X128651000Y-71092060D03*
X126111000Y-71092060D03*
X123571000Y-71092060D03*
X121031000Y-71092060D03*
X118491000Y-71092060D03*
X115951000Y-71092060D03*
X113411000Y-71092060D03*
X110871000Y-71092060D03*
X108331000Y-71092060D03*
X105791000Y-71092060D03*
X103251000Y-71092060D03*
X100711000Y-71092060D03*
X98171000Y-71092060D03*
X95631000Y-71092060D03*
X93091000Y-71092060D03*
X90551000Y-71092060D03*
X88011000Y-71092060D03*
X85471000Y-71092060D03*
X82931000Y-71092060D03*
X80391000Y-71092060D03*
X77851000Y-71092060D03*
X75311000Y-71092060D03*
X72771000Y-71092060D03*
X70231000Y-71092060D03*
X67691000Y-71092060D03*
X65151000Y-71092060D03*
X62611000Y-71092060D03*
X60071000Y-71092060D03*
X57531000Y-71092060D03*
X230251000Y-68552060D03*
X227711000Y-68552060D03*
X225171000Y-68552060D03*
X222631000Y-68552060D03*
X220091000Y-68552060D03*
X217551000Y-68552060D03*
X215011000Y-68552060D03*
X212471000Y-68552060D03*
X209931000Y-68552060D03*
X207391000Y-68552060D03*
X204851000Y-68552060D03*
X202311000Y-68552060D03*
X199771000Y-68552060D03*
X197231000Y-68552060D03*
X194691000Y-68552060D03*
X192151000Y-68552060D03*
X189611000Y-68552060D03*
X187071000Y-68552060D03*
X184531000Y-68552060D03*
X181991000Y-68552060D03*
X179451000Y-68552060D03*
X176911000Y-68552060D03*
X174371000Y-68552060D03*
X171831000Y-68552060D03*
X169291000Y-68552060D03*
X166751000Y-68552060D03*
X164211000Y-68552060D03*
X161671000Y-68552060D03*
X159131000Y-68552060D03*
X156591000Y-68552060D03*
X154051000Y-68552060D03*
X151511000Y-68552060D03*
X148971000Y-68552060D03*
X146431000Y-68552060D03*
X143891000Y-68552060D03*
X141351000Y-68552060D03*
X138811000Y-68552060D03*
X136271000Y-68552060D03*
X133731000Y-68552060D03*
X131191000Y-68552060D03*
X128651000Y-68552060D03*
X126111000Y-68552060D03*
X123571000Y-68552060D03*
X121031000Y-68552060D03*
X118491000Y-68552060D03*
X115951000Y-68552060D03*
X113411000Y-68552060D03*
X110871000Y-68552060D03*
X108331000Y-68552060D03*
X105791000Y-68552060D03*
X103251000Y-68552060D03*
X100711000Y-68552060D03*
X98171000Y-68552060D03*
X95631000Y-68552060D03*
X93091000Y-68552060D03*
X90551000Y-68552060D03*
X88011000Y-68552060D03*
X85471000Y-68552060D03*
X82931000Y-68552060D03*
X80391000Y-68552060D03*
X77851000Y-68552060D03*
X75311000Y-68552060D03*
X72771000Y-68552060D03*
X70231000Y-68552060D03*
X67691000Y-68552060D03*
X65151000Y-68552060D03*
X62611000Y-68552060D03*
X60071000Y-68552060D03*
X57531000Y-68552060D03*
X230251000Y-66012060D03*
X227711000Y-66012060D03*
X225171000Y-66012060D03*
X222631000Y-66012060D03*
X220091000Y-66012060D03*
X217551000Y-66012060D03*
X215011000Y-66012060D03*
X212471000Y-66012060D03*
X209931000Y-66012060D03*
X207391000Y-66012060D03*
X204851000Y-66012060D03*
X202311000Y-66012060D03*
X199771000Y-66012060D03*
X197231000Y-66012060D03*
X194691000Y-66012060D03*
X192151000Y-66012060D03*
X189611000Y-66012060D03*
X187071000Y-66012060D03*
X184531000Y-66012060D03*
X181991000Y-66012060D03*
X179451000Y-66012060D03*
X176911000Y-66012060D03*
X174371000Y-66012060D03*
X171831000Y-66012060D03*
X169291000Y-66012060D03*
X166751000Y-66012060D03*
X164211000Y-66012060D03*
X161671000Y-66012060D03*
X159131000Y-66012060D03*
X156591000Y-66012060D03*
X154051000Y-66012060D03*
X151511000Y-66012060D03*
X148971000Y-66012060D03*
X146431000Y-66012060D03*
X143891000Y-66012060D03*
X141351000Y-66012060D03*
X138811000Y-66012060D03*
X136271000Y-66012060D03*
X133731000Y-66012060D03*
X131191000Y-66012060D03*
X128651000Y-66012060D03*
X126111000Y-66012060D03*
X123571000Y-66012060D03*
X121031000Y-66012060D03*
X118491000Y-66012060D03*
X115951000Y-66012060D03*
X113411000Y-66012060D03*
X110871000Y-66012060D03*
X108331000Y-66012060D03*
X105791000Y-66012060D03*
X103251000Y-66012060D03*
X100711000Y-66012060D03*
X98171000Y-66012060D03*
X95631000Y-66012060D03*
X93091000Y-66012060D03*
X90551000Y-66012060D03*
X88011000Y-66012060D03*
X85471000Y-66012060D03*
X82931000Y-66012060D03*
X80391000Y-66012060D03*
X77851000Y-66012060D03*
X75311000Y-66012060D03*
X72771000Y-66012060D03*
X70231000Y-66012060D03*
X67691000Y-66012060D03*
X65151000Y-66012060D03*
X62611000Y-66012060D03*
X60071000Y-66012060D03*
X57531000Y-66012060D03*
X230251000Y-63472060D03*
X227711000Y-63472060D03*
X225171000Y-63472060D03*
X222631000Y-63472060D03*
X220091000Y-63472060D03*
X217551000Y-63472060D03*
X215011000Y-63472060D03*
X212471000Y-63472060D03*
X209931000Y-63472060D03*
X207391000Y-63472060D03*
X204851000Y-63472060D03*
X202311000Y-63472060D03*
X199771000Y-63472060D03*
X197231000Y-63472060D03*
X194691000Y-63472060D03*
X192151000Y-63472060D03*
X189611000Y-63472060D03*
X187071000Y-63472060D03*
X184531000Y-63472060D03*
X181991000Y-63472060D03*
X179451000Y-63472060D03*
X176911000Y-63472060D03*
X174371000Y-63472060D03*
X171831000Y-63472060D03*
X169291000Y-63472060D03*
X166751000Y-63472060D03*
X164211000Y-63472060D03*
X161671000Y-63472060D03*
X159131000Y-63472060D03*
X156591000Y-63472060D03*
X154051000Y-63472060D03*
X151511000Y-63472060D03*
X148971000Y-63472060D03*
X146431000Y-63472060D03*
X143891000Y-63472060D03*
X141351000Y-63472060D03*
X138811000Y-63472060D03*
X136271000Y-63472060D03*
X133731000Y-63472060D03*
X131191000Y-63472060D03*
X128651000Y-63472060D03*
X126111000Y-63472060D03*
X123571000Y-63472060D03*
X121031000Y-63472060D03*
X118491000Y-63472060D03*
X115951000Y-63472060D03*
X113411000Y-63472060D03*
X110871000Y-63472060D03*
X108331000Y-63472060D03*
X105791000Y-63472060D03*
X103251000Y-63472060D03*
X100711000Y-63472060D03*
X98171000Y-63472060D03*
X95631000Y-63472060D03*
X93091000Y-63472060D03*
X90551000Y-63472060D03*
X88011000Y-63472060D03*
X85471000Y-63472060D03*
X82931000Y-63472060D03*
X80391000Y-63472060D03*
X77851000Y-63472060D03*
X75311000Y-63472060D03*
X72771000Y-63472060D03*
X70231000Y-63472060D03*
X67691000Y-63472060D03*
X65151000Y-63472060D03*
X62611000Y-63472060D03*
X60071000Y-63472060D03*
X57531000Y-63472060D03*
M02*
