G04 #@! TF.GenerationSoftware,KiCad,Pcbnew,(5.1.2)-1*
G04 #@! TF.CreationDate,2019-09-18T07:38:13-07:00*
G04 #@! TF.ProjectId,AppleIIPerfBoardCard,4170706c-6549-4495-9065-7266426f6172,rev?*
G04 #@! TF.SameCoordinates,Original*
G04 #@! TF.FileFunction,Copper,L1,Top*
G04 #@! TF.FilePolarity,Positive*
%FSLAX46Y46*%
G04 Gerber Fmt 4.6, Leading zero omitted, Abs format (unit mm)*
G04 Created by KiCad (PCBNEW (5.1.2)-1) date 2019-09-18 07:38:13*
%MOMM*%
%LPD*%
G04 APERTURE LIST*
%ADD10O,1.700000X1.700000*%
%ADD11C,1.700000*%
%ADD12R,1.270000X7.300000*%
%ADD13R,1.700000X1.700000*%
%ADD14C,0.254000*%
%ADD15C,1.270000*%
G04 APERTURE END LIST*
D10*
X159131000Y-124432060D03*
X159131000Y-121892060D03*
X161671000Y-124432060D03*
X161671000Y-121892060D03*
X164211000Y-124432060D03*
X164211000Y-121892060D03*
X166751000Y-124432060D03*
X166751000Y-121892060D03*
X169291000Y-124432060D03*
X169291000Y-121892060D03*
X171831000Y-124432060D03*
X171831000Y-121892060D03*
X174371000Y-124432060D03*
X174371000Y-121892060D03*
X176911000Y-124432060D03*
X176911000Y-121892060D03*
X179451000Y-124432060D03*
X179451000Y-121892060D03*
X181991000Y-124432060D03*
X181991000Y-121892060D03*
X184531000Y-124432060D03*
X184531000Y-121892060D03*
X187071000Y-124432060D03*
X187071000Y-121892060D03*
X189611000Y-124432060D03*
X189611000Y-121892060D03*
X192151000Y-124432060D03*
X192151000Y-121892060D03*
X194691000Y-124432060D03*
X194691000Y-121892060D03*
X197231000Y-124432060D03*
X197231000Y-121892060D03*
X199771000Y-124432060D03*
X199771000Y-121892060D03*
X202311000Y-124432060D03*
X202311000Y-121892060D03*
X204851000Y-124432060D03*
X204851000Y-121892060D03*
X207391000Y-124432060D03*
X207391000Y-121892060D03*
X209931000Y-124432060D03*
X209931000Y-121892060D03*
X212471000Y-124432060D03*
X212471000Y-121892060D03*
X215011000Y-124432060D03*
X215011000Y-121892060D03*
X217551000Y-124432060D03*
X217551000Y-121892060D03*
X220091000Y-124432060D03*
D11*
X220091000Y-121892060D03*
D12*
X159944881Y-133761681D03*
X162484881Y-133761681D03*
X165024881Y-133761681D03*
X167564881Y-133761681D03*
X170104881Y-133761681D03*
X172644881Y-133761681D03*
X175184881Y-133761681D03*
X177724881Y-133761681D03*
X180264881Y-133761681D03*
X182804881Y-133761681D03*
X185344881Y-133761681D03*
X187884881Y-133761681D03*
X190424881Y-133761681D03*
X192964881Y-133761681D03*
X195504881Y-133761681D03*
X198044881Y-133761681D03*
X200584881Y-133761681D03*
X203124881Y-133761681D03*
X205664881Y-133761681D03*
X208204881Y-133761681D03*
X210744881Y-133761681D03*
X213284881Y-133761681D03*
X215824881Y-133761681D03*
X218364881Y-133761681D03*
X220904881Y-133761681D03*
D13*
X230251000Y-126972060D03*
X227711000Y-126972060D03*
X225171000Y-126972060D03*
X154051000Y-126972060D03*
X151511000Y-126972060D03*
X148971000Y-126972060D03*
X146431000Y-126972060D03*
X143891000Y-126972060D03*
X141351000Y-126972060D03*
X138811000Y-126972060D03*
X136271000Y-126972060D03*
X133731000Y-126972060D03*
X131191000Y-126972060D03*
X128651000Y-126972060D03*
X126111000Y-126972060D03*
X123571000Y-126972060D03*
X121031000Y-126972060D03*
X118491000Y-126972060D03*
X115951000Y-126972060D03*
X113411000Y-126972060D03*
X110871000Y-126972060D03*
X108331000Y-126972060D03*
X105791000Y-126972060D03*
X103251000Y-126972060D03*
X100711000Y-126972060D03*
X98171000Y-126972060D03*
X95631000Y-126972060D03*
X93091000Y-126972060D03*
X90551000Y-126972060D03*
X88011000Y-126972060D03*
X85471000Y-126972060D03*
X82931000Y-126972060D03*
X80391000Y-126972060D03*
X77851000Y-126972060D03*
X75311000Y-126972060D03*
X72771000Y-126972060D03*
X70231000Y-126972060D03*
X67691000Y-126972060D03*
X65151000Y-126972060D03*
X62611000Y-126972060D03*
X60071000Y-126972060D03*
X57531000Y-126972060D03*
X230251000Y-124432060D03*
X227711000Y-124432060D03*
X225171000Y-124432060D03*
X154051000Y-124432060D03*
X151511000Y-124432060D03*
X148971000Y-124432060D03*
X146431000Y-124432060D03*
X143891000Y-124432060D03*
X141351000Y-124432060D03*
X138811000Y-124432060D03*
X136271000Y-124432060D03*
X133731000Y-124432060D03*
X131191000Y-124432060D03*
X128651000Y-124432060D03*
X126111000Y-124432060D03*
X123571000Y-124432060D03*
X121031000Y-124432060D03*
X118491000Y-124432060D03*
X115951000Y-124432060D03*
X113411000Y-124432060D03*
X110871000Y-124432060D03*
X108331000Y-124432060D03*
X105791000Y-124432060D03*
X103251000Y-124432060D03*
X100711000Y-124432060D03*
X98171000Y-124432060D03*
X95631000Y-124432060D03*
X93091000Y-124432060D03*
X90551000Y-124432060D03*
X88011000Y-124432060D03*
X85471000Y-124432060D03*
X82931000Y-124432060D03*
X80391000Y-124432060D03*
X77851000Y-124432060D03*
X75311000Y-124432060D03*
X72771000Y-124432060D03*
X70231000Y-124432060D03*
X67691000Y-124432060D03*
X65151000Y-124432060D03*
X62611000Y-124432060D03*
X60071000Y-124432060D03*
X57531000Y-124432060D03*
X230251000Y-121892060D03*
X227711000Y-121892060D03*
X225171000Y-121892060D03*
X154051000Y-121892060D03*
X151511000Y-121892060D03*
X148971000Y-121892060D03*
X146431000Y-121892060D03*
X143891000Y-121892060D03*
X141351000Y-121892060D03*
X138811000Y-121892060D03*
X136271000Y-121892060D03*
X133731000Y-121892060D03*
X131191000Y-121892060D03*
X128651000Y-121892060D03*
X126111000Y-121892060D03*
X123571000Y-121892060D03*
X121031000Y-121892060D03*
X118491000Y-121892060D03*
X115951000Y-121892060D03*
X113411000Y-121892060D03*
X110871000Y-121892060D03*
X108331000Y-121892060D03*
X105791000Y-121892060D03*
X103251000Y-121892060D03*
X100711000Y-121892060D03*
X98171000Y-121892060D03*
X95631000Y-121892060D03*
X93091000Y-121892060D03*
X90551000Y-121892060D03*
X88011000Y-121892060D03*
X85471000Y-121892060D03*
X82931000Y-121892060D03*
X80391000Y-121892060D03*
X77851000Y-121892060D03*
X75311000Y-121892060D03*
X72771000Y-121892060D03*
X70231000Y-121892060D03*
X67691000Y-121892060D03*
X65151000Y-121892060D03*
X62611000Y-121892060D03*
X60071000Y-121892060D03*
X57531000Y-121892060D03*
X230251000Y-119352060D03*
X227711000Y-119352060D03*
X225171000Y-119352060D03*
X154051000Y-119352060D03*
X151511000Y-119352060D03*
X148971000Y-119352060D03*
X146431000Y-119352060D03*
X143891000Y-119352060D03*
X141351000Y-119352060D03*
X138811000Y-119352060D03*
X136271000Y-119352060D03*
X133731000Y-119352060D03*
X131191000Y-119352060D03*
X128651000Y-119352060D03*
X126111000Y-119352060D03*
X123571000Y-119352060D03*
X121031000Y-119352060D03*
X118491000Y-119352060D03*
X115951000Y-119352060D03*
X113411000Y-119352060D03*
X110871000Y-119352060D03*
X108331000Y-119352060D03*
X105791000Y-119352060D03*
X103251000Y-119352060D03*
X100711000Y-119352060D03*
X98171000Y-119352060D03*
X95631000Y-119352060D03*
X93091000Y-119352060D03*
X90551000Y-119352060D03*
X88011000Y-119352060D03*
X85471000Y-119352060D03*
X82931000Y-119352060D03*
X80391000Y-119352060D03*
X77851000Y-119352060D03*
X75311000Y-119352060D03*
X72771000Y-119352060D03*
X70231000Y-119352060D03*
X67691000Y-119352060D03*
X65151000Y-119352060D03*
X62611000Y-119352060D03*
X60071000Y-119352060D03*
X57531000Y-119352060D03*
X230251000Y-116812060D03*
X227711000Y-116812060D03*
X225171000Y-116812060D03*
X222631000Y-116812060D03*
X156591000Y-116812060D03*
X154051000Y-116812060D03*
X151511000Y-116812060D03*
X148971000Y-116812060D03*
X146431000Y-116812060D03*
X143891000Y-116812060D03*
X141351000Y-116812060D03*
X138811000Y-116812060D03*
X136271000Y-116812060D03*
X133731000Y-116812060D03*
X131191000Y-116812060D03*
X128651000Y-116812060D03*
X126111000Y-116812060D03*
X123571000Y-116812060D03*
X121031000Y-116812060D03*
X118491000Y-116812060D03*
X115951000Y-116812060D03*
X113411000Y-116812060D03*
X110871000Y-116812060D03*
X108331000Y-116812060D03*
X105791000Y-116812060D03*
X103251000Y-116812060D03*
X100711000Y-116812060D03*
X98171000Y-116812060D03*
X95631000Y-116812060D03*
X93091000Y-116812060D03*
X90551000Y-116812060D03*
X88011000Y-116812060D03*
X85471000Y-116812060D03*
X82931000Y-116812060D03*
X80391000Y-116812060D03*
X77851000Y-116812060D03*
X75311000Y-116812060D03*
X72771000Y-116812060D03*
X70231000Y-116812060D03*
X67691000Y-116812060D03*
X65151000Y-116812060D03*
X62611000Y-116812060D03*
X60071000Y-116812060D03*
X57531000Y-116812060D03*
X230251000Y-114272060D03*
X227711000Y-114272060D03*
X225171000Y-114272060D03*
X222631000Y-114272060D03*
X220091000Y-114272060D03*
X217551000Y-114272060D03*
X215011000Y-114272060D03*
X212471000Y-114272060D03*
X209931000Y-114272060D03*
X207391000Y-114272060D03*
X204851000Y-114272060D03*
X202311000Y-114272060D03*
X199771000Y-114272060D03*
X197231000Y-114272060D03*
X194691000Y-114272060D03*
X192151000Y-114272060D03*
X189611000Y-114272060D03*
X187071000Y-114272060D03*
X184531000Y-114272060D03*
X181991000Y-114272060D03*
X179451000Y-114272060D03*
X176911000Y-114272060D03*
X174371000Y-114272060D03*
X171831000Y-114272060D03*
X169291000Y-114272060D03*
X166751000Y-114272060D03*
X164211000Y-114272060D03*
X161671000Y-114272060D03*
X159131000Y-114272060D03*
X156591000Y-114272060D03*
X154051000Y-114272060D03*
X151511000Y-114272060D03*
X148971000Y-114272060D03*
X146431000Y-114272060D03*
X143891000Y-114272060D03*
X141351000Y-114272060D03*
X138811000Y-114272060D03*
X136271000Y-114272060D03*
X133731000Y-114272060D03*
X131191000Y-114272060D03*
X128651000Y-114272060D03*
X126111000Y-114272060D03*
X123571000Y-114272060D03*
X121031000Y-114272060D03*
X118491000Y-114272060D03*
X115951000Y-114272060D03*
X113411000Y-114272060D03*
X110871000Y-114272060D03*
X108331000Y-114272060D03*
X105791000Y-114272060D03*
X103251000Y-114272060D03*
X100711000Y-114272060D03*
X98171000Y-114272060D03*
X95631000Y-114272060D03*
X93091000Y-114272060D03*
X90551000Y-114272060D03*
X88011000Y-114272060D03*
X85471000Y-114272060D03*
X82931000Y-114272060D03*
X80391000Y-114272060D03*
X77851000Y-114272060D03*
X75311000Y-114272060D03*
X72771000Y-114272060D03*
X70231000Y-114272060D03*
X67691000Y-114272060D03*
X65151000Y-114272060D03*
X62611000Y-114272060D03*
X60071000Y-114272060D03*
X57531000Y-114272060D03*
X230251000Y-111732060D03*
X227711000Y-111732060D03*
X225171000Y-111732060D03*
X222631000Y-111732060D03*
X220091000Y-111732060D03*
X217551000Y-111732060D03*
X215011000Y-111732060D03*
X212471000Y-111732060D03*
X209931000Y-111732060D03*
X207391000Y-111732060D03*
X204851000Y-111732060D03*
X202311000Y-111732060D03*
X199771000Y-111732060D03*
X197231000Y-111732060D03*
X194691000Y-111732060D03*
X192151000Y-111732060D03*
X189611000Y-111732060D03*
X187071000Y-111732060D03*
X184531000Y-111732060D03*
X181991000Y-111732060D03*
X179451000Y-111732060D03*
X176911000Y-111732060D03*
X174371000Y-111732060D03*
X171831000Y-111732060D03*
X169291000Y-111732060D03*
X166751000Y-111732060D03*
X164211000Y-111732060D03*
X161671000Y-111732060D03*
X159131000Y-111732060D03*
X156591000Y-111732060D03*
X154051000Y-111732060D03*
X151511000Y-111732060D03*
X148971000Y-111732060D03*
X146431000Y-111732060D03*
X143891000Y-111732060D03*
X141351000Y-111732060D03*
X138811000Y-111732060D03*
X136271000Y-111732060D03*
X133731000Y-111732060D03*
X131191000Y-111732060D03*
X128651000Y-111732060D03*
X126111000Y-111732060D03*
X123571000Y-111732060D03*
X121031000Y-111732060D03*
X118491000Y-111732060D03*
X115951000Y-111732060D03*
X113411000Y-111732060D03*
X110871000Y-111732060D03*
X108331000Y-111732060D03*
X105791000Y-111732060D03*
X103251000Y-111732060D03*
X100711000Y-111732060D03*
X98171000Y-111732060D03*
X95631000Y-111732060D03*
X93091000Y-111732060D03*
X90551000Y-111732060D03*
X88011000Y-111732060D03*
X85471000Y-111732060D03*
X82931000Y-111732060D03*
X80391000Y-111732060D03*
X77851000Y-111732060D03*
X75311000Y-111732060D03*
X72771000Y-111732060D03*
X70231000Y-111732060D03*
X67691000Y-111732060D03*
X65151000Y-111732060D03*
X62611000Y-111732060D03*
X60071000Y-111732060D03*
X57531000Y-111732060D03*
X230251000Y-109192060D03*
X227711000Y-109192060D03*
X225171000Y-109192060D03*
X222631000Y-109192060D03*
X220091000Y-109192060D03*
X217551000Y-109192060D03*
X215011000Y-109192060D03*
X212471000Y-109192060D03*
X209931000Y-109192060D03*
X207391000Y-109192060D03*
X204851000Y-109192060D03*
X202311000Y-109192060D03*
X199771000Y-109192060D03*
X197231000Y-109192060D03*
X194691000Y-109192060D03*
X192151000Y-109192060D03*
X189611000Y-109192060D03*
X187071000Y-109192060D03*
X184531000Y-109192060D03*
X181991000Y-109192060D03*
X179451000Y-109192060D03*
X176911000Y-109192060D03*
X174371000Y-109192060D03*
X171831000Y-109192060D03*
X169291000Y-109192060D03*
X166751000Y-109192060D03*
X164211000Y-109192060D03*
X161671000Y-109192060D03*
X159131000Y-109192060D03*
X156591000Y-109192060D03*
X154051000Y-109192060D03*
X151511000Y-109192060D03*
X148971000Y-109192060D03*
X146431000Y-109192060D03*
X143891000Y-109192060D03*
X141351000Y-109192060D03*
X138811000Y-109192060D03*
X136271000Y-109192060D03*
X133731000Y-109192060D03*
X131191000Y-109192060D03*
X128651000Y-109192060D03*
X126111000Y-109192060D03*
X123571000Y-109192060D03*
X121031000Y-109192060D03*
X118491000Y-109192060D03*
X115951000Y-109192060D03*
X113411000Y-109192060D03*
X110871000Y-109192060D03*
X108331000Y-109192060D03*
X105791000Y-109192060D03*
X103251000Y-109192060D03*
X100711000Y-109192060D03*
X98171000Y-109192060D03*
X95631000Y-109192060D03*
X93091000Y-109192060D03*
X90551000Y-109192060D03*
X88011000Y-109192060D03*
X85471000Y-109192060D03*
X82931000Y-109192060D03*
X80391000Y-109192060D03*
X77851000Y-109192060D03*
X75311000Y-109192060D03*
X72771000Y-109192060D03*
X70231000Y-109192060D03*
X67691000Y-109192060D03*
X65151000Y-109192060D03*
X62611000Y-109192060D03*
X60071000Y-109192060D03*
X57531000Y-109192060D03*
X230251000Y-106652060D03*
X227711000Y-106652060D03*
X225171000Y-106652060D03*
X222631000Y-106652060D03*
X220091000Y-106652060D03*
X217551000Y-106652060D03*
X215011000Y-106652060D03*
X212471000Y-106652060D03*
X209931000Y-106652060D03*
X207391000Y-106652060D03*
X204851000Y-106652060D03*
X202311000Y-106652060D03*
X199771000Y-106652060D03*
X197231000Y-106652060D03*
X194691000Y-106652060D03*
X192151000Y-106652060D03*
X189611000Y-106652060D03*
X187071000Y-106652060D03*
X184531000Y-106652060D03*
X181991000Y-106652060D03*
X179451000Y-106652060D03*
X176911000Y-106652060D03*
X174371000Y-106652060D03*
X171831000Y-106652060D03*
X169291000Y-106652060D03*
X166751000Y-106652060D03*
X164211000Y-106652060D03*
X161671000Y-106652060D03*
X159131000Y-106652060D03*
X156591000Y-106652060D03*
X154051000Y-106652060D03*
X151511000Y-106652060D03*
X148971000Y-106652060D03*
X146431000Y-106652060D03*
X143891000Y-106652060D03*
X141351000Y-106652060D03*
X138811000Y-106652060D03*
X136271000Y-106652060D03*
X133731000Y-106652060D03*
X131191000Y-106652060D03*
X128651000Y-106652060D03*
X126111000Y-106652060D03*
X123571000Y-106652060D03*
X121031000Y-106652060D03*
X118491000Y-106652060D03*
X115951000Y-106652060D03*
X113411000Y-106652060D03*
X110871000Y-106652060D03*
X108331000Y-106652060D03*
X105791000Y-106652060D03*
X103251000Y-106652060D03*
X100711000Y-106652060D03*
X98171000Y-106652060D03*
X95631000Y-106652060D03*
X93091000Y-106652060D03*
X90551000Y-106652060D03*
X88011000Y-106652060D03*
X85471000Y-106652060D03*
X82931000Y-106652060D03*
X80391000Y-106652060D03*
X77851000Y-106652060D03*
X75311000Y-106652060D03*
X72771000Y-106652060D03*
X70231000Y-106652060D03*
X67691000Y-106652060D03*
X65151000Y-106652060D03*
X62611000Y-106652060D03*
X60071000Y-106652060D03*
X57531000Y-106652060D03*
X230251000Y-104112060D03*
X227711000Y-104112060D03*
X225171000Y-104112060D03*
X222631000Y-104112060D03*
X220091000Y-104112060D03*
X217551000Y-104112060D03*
X215011000Y-104112060D03*
X212471000Y-104112060D03*
X209931000Y-104112060D03*
X207391000Y-104112060D03*
X204851000Y-104112060D03*
X202311000Y-104112060D03*
X199771000Y-104112060D03*
X197231000Y-104112060D03*
X194691000Y-104112060D03*
X192151000Y-104112060D03*
X189611000Y-104112060D03*
X187071000Y-104112060D03*
X184531000Y-104112060D03*
X181991000Y-104112060D03*
X179451000Y-104112060D03*
X176911000Y-104112060D03*
X174371000Y-104112060D03*
X171831000Y-104112060D03*
X169291000Y-104112060D03*
X166751000Y-104112060D03*
X164211000Y-104112060D03*
X161671000Y-104112060D03*
X159131000Y-104112060D03*
X156591000Y-104112060D03*
X154051000Y-104112060D03*
X151511000Y-104112060D03*
X148971000Y-104112060D03*
X146431000Y-104112060D03*
X143891000Y-104112060D03*
X141351000Y-104112060D03*
X138811000Y-104112060D03*
X136271000Y-104112060D03*
X133731000Y-104112060D03*
X131191000Y-104112060D03*
X128651000Y-104112060D03*
X126111000Y-104112060D03*
X123571000Y-104112060D03*
X121031000Y-104112060D03*
X118491000Y-104112060D03*
X115951000Y-104112060D03*
X113411000Y-104112060D03*
X110871000Y-104112060D03*
X108331000Y-104112060D03*
X105791000Y-104112060D03*
X103251000Y-104112060D03*
X100711000Y-104112060D03*
X98171000Y-104112060D03*
X95631000Y-104112060D03*
X93091000Y-104112060D03*
X90551000Y-104112060D03*
X88011000Y-104112060D03*
X85471000Y-104112060D03*
X82931000Y-104112060D03*
X80391000Y-104112060D03*
X77851000Y-104112060D03*
X75311000Y-104112060D03*
X72771000Y-104112060D03*
X70231000Y-104112060D03*
X67691000Y-104112060D03*
X65151000Y-104112060D03*
X62611000Y-104112060D03*
X60071000Y-104112060D03*
X57531000Y-104112060D03*
X230251000Y-101572060D03*
X227711000Y-101572060D03*
X225171000Y-101572060D03*
X222631000Y-101572060D03*
X220091000Y-101572060D03*
X217551000Y-101572060D03*
X215011000Y-101572060D03*
X212471000Y-101572060D03*
X209931000Y-101572060D03*
X207391000Y-101572060D03*
X204851000Y-101572060D03*
X202311000Y-101572060D03*
X199771000Y-101572060D03*
X197231000Y-101572060D03*
X194691000Y-101572060D03*
X192151000Y-101572060D03*
X189611000Y-101572060D03*
X187071000Y-101572060D03*
X184531000Y-101572060D03*
X181991000Y-101572060D03*
X179451000Y-101572060D03*
X176911000Y-101572060D03*
X174371000Y-101572060D03*
X171831000Y-101572060D03*
X169291000Y-101572060D03*
X166751000Y-101572060D03*
X164211000Y-101572060D03*
X161671000Y-101572060D03*
X159131000Y-101572060D03*
X156591000Y-101572060D03*
X154051000Y-101572060D03*
X151511000Y-101572060D03*
X148971000Y-101572060D03*
X146431000Y-101572060D03*
X143891000Y-101572060D03*
X141351000Y-101572060D03*
X138811000Y-101572060D03*
X136271000Y-101572060D03*
X133731000Y-101572060D03*
X131191000Y-101572060D03*
X128651000Y-101572060D03*
X126111000Y-101572060D03*
X123571000Y-101572060D03*
X121031000Y-101572060D03*
X118491000Y-101572060D03*
X115951000Y-101572060D03*
X113411000Y-101572060D03*
X110871000Y-101572060D03*
X108331000Y-101572060D03*
X105791000Y-101572060D03*
X103251000Y-101572060D03*
X100711000Y-101572060D03*
X98171000Y-101572060D03*
X95631000Y-101572060D03*
X93091000Y-101572060D03*
X90551000Y-101572060D03*
X88011000Y-101572060D03*
X85471000Y-101572060D03*
X82931000Y-101572060D03*
X80391000Y-101572060D03*
X77851000Y-101572060D03*
X75311000Y-101572060D03*
X72771000Y-101572060D03*
X70231000Y-101572060D03*
X67691000Y-101572060D03*
X65151000Y-101572060D03*
X62611000Y-101572060D03*
X60071000Y-101572060D03*
X57531000Y-101572060D03*
X230251000Y-99032060D03*
X227711000Y-99032060D03*
X225171000Y-99032060D03*
X222631000Y-99032060D03*
X220091000Y-99032060D03*
X217551000Y-99032060D03*
X215011000Y-99032060D03*
X212471000Y-99032060D03*
X209931000Y-99032060D03*
X207391000Y-99032060D03*
X204851000Y-99032060D03*
X202311000Y-99032060D03*
X199771000Y-99032060D03*
X197231000Y-99032060D03*
X194691000Y-99032060D03*
X192151000Y-99032060D03*
X189611000Y-99032060D03*
X187071000Y-99032060D03*
X184531000Y-99032060D03*
X181991000Y-99032060D03*
X179451000Y-99032060D03*
X176911000Y-99032060D03*
X174371000Y-99032060D03*
X171831000Y-99032060D03*
X169291000Y-99032060D03*
X166751000Y-99032060D03*
X164211000Y-99032060D03*
X161671000Y-99032060D03*
X159131000Y-99032060D03*
X156591000Y-99032060D03*
X154051000Y-99032060D03*
X151511000Y-99032060D03*
X148971000Y-99032060D03*
X146431000Y-99032060D03*
X143891000Y-99032060D03*
X141351000Y-99032060D03*
X138811000Y-99032060D03*
X136271000Y-99032060D03*
X133731000Y-99032060D03*
X131191000Y-99032060D03*
X128651000Y-99032060D03*
X126111000Y-99032060D03*
X123571000Y-99032060D03*
X121031000Y-99032060D03*
X118491000Y-99032060D03*
X115951000Y-99032060D03*
X113411000Y-99032060D03*
X110871000Y-99032060D03*
X108331000Y-99032060D03*
X105791000Y-99032060D03*
X103251000Y-99032060D03*
X100711000Y-99032060D03*
X98171000Y-99032060D03*
X95631000Y-99032060D03*
X93091000Y-99032060D03*
X90551000Y-99032060D03*
X88011000Y-99032060D03*
X85471000Y-99032060D03*
X82931000Y-99032060D03*
X80391000Y-99032060D03*
X77851000Y-99032060D03*
X75311000Y-99032060D03*
X72771000Y-99032060D03*
X70231000Y-99032060D03*
X67691000Y-99032060D03*
X65151000Y-99032060D03*
X62611000Y-99032060D03*
X60071000Y-99032060D03*
X57531000Y-99032060D03*
X230251000Y-96492060D03*
X227711000Y-96492060D03*
X225171000Y-96492060D03*
X222631000Y-96492060D03*
X220091000Y-96492060D03*
X217551000Y-96492060D03*
X215011000Y-96492060D03*
X212471000Y-96492060D03*
X209931000Y-96492060D03*
X207391000Y-96492060D03*
X204851000Y-96492060D03*
X202311000Y-96492060D03*
X199771000Y-96492060D03*
X197231000Y-96492060D03*
X194691000Y-96492060D03*
X192151000Y-96492060D03*
X189611000Y-96492060D03*
X187071000Y-96492060D03*
X184531000Y-96492060D03*
X181991000Y-96492060D03*
X179451000Y-96492060D03*
X176911000Y-96492060D03*
X174371000Y-96492060D03*
X171831000Y-96492060D03*
X169291000Y-96492060D03*
X166751000Y-96492060D03*
X164211000Y-96492060D03*
X161671000Y-96492060D03*
X159131000Y-96492060D03*
X156591000Y-96492060D03*
X154051000Y-96492060D03*
X151511000Y-96492060D03*
X148971000Y-96492060D03*
X146431000Y-96492060D03*
X143891000Y-96492060D03*
X141351000Y-96492060D03*
X138811000Y-96492060D03*
X136271000Y-96492060D03*
X133731000Y-96492060D03*
X131191000Y-96492060D03*
X128651000Y-96492060D03*
X126111000Y-96492060D03*
X123571000Y-96492060D03*
X121031000Y-96492060D03*
X118491000Y-96492060D03*
X115951000Y-96492060D03*
X113411000Y-96492060D03*
X110871000Y-96492060D03*
X108331000Y-96492060D03*
X105791000Y-96492060D03*
X103251000Y-96492060D03*
X100711000Y-96492060D03*
X98171000Y-96492060D03*
X95631000Y-96492060D03*
X93091000Y-96492060D03*
X90551000Y-96492060D03*
X88011000Y-96492060D03*
X85471000Y-96492060D03*
X82931000Y-96492060D03*
X80391000Y-96492060D03*
X77851000Y-96492060D03*
X75311000Y-96492060D03*
X72771000Y-96492060D03*
X70231000Y-96492060D03*
X67691000Y-96492060D03*
X65151000Y-96492060D03*
X62611000Y-96492060D03*
X60071000Y-96492060D03*
X57531000Y-96492060D03*
X230251000Y-93952060D03*
X227711000Y-93952060D03*
X225171000Y-93952060D03*
X222631000Y-93952060D03*
X220091000Y-93952060D03*
X217551000Y-93952060D03*
X215011000Y-93952060D03*
X212471000Y-93952060D03*
X209931000Y-93952060D03*
X207391000Y-93952060D03*
X204851000Y-93952060D03*
X202311000Y-93952060D03*
X199771000Y-93952060D03*
X197231000Y-93952060D03*
X194691000Y-93952060D03*
X192151000Y-93952060D03*
X189611000Y-93952060D03*
X187071000Y-93952060D03*
X184531000Y-93952060D03*
X181991000Y-93952060D03*
X179451000Y-93952060D03*
X176911000Y-93952060D03*
X174371000Y-93952060D03*
X171831000Y-93952060D03*
X169291000Y-93952060D03*
X166751000Y-93952060D03*
X164211000Y-93952060D03*
X161671000Y-93952060D03*
X159131000Y-93952060D03*
X156591000Y-93952060D03*
X154051000Y-93952060D03*
X151511000Y-93952060D03*
X148971000Y-93952060D03*
X146431000Y-93952060D03*
X143891000Y-93952060D03*
X141351000Y-93952060D03*
X138811000Y-93952060D03*
X136271000Y-93952060D03*
X133731000Y-93952060D03*
X131191000Y-93952060D03*
X128651000Y-93952060D03*
X126111000Y-93952060D03*
X123571000Y-93952060D03*
X121031000Y-93952060D03*
X118491000Y-93952060D03*
X115951000Y-93952060D03*
X113411000Y-93952060D03*
X110871000Y-93952060D03*
X108331000Y-93952060D03*
X105791000Y-93952060D03*
X103251000Y-93952060D03*
X100711000Y-93952060D03*
X98171000Y-93952060D03*
X95631000Y-93952060D03*
X93091000Y-93952060D03*
X90551000Y-93952060D03*
X88011000Y-93952060D03*
X85471000Y-93952060D03*
X82931000Y-93952060D03*
X80391000Y-93952060D03*
X77851000Y-93952060D03*
X75311000Y-93952060D03*
X72771000Y-93952060D03*
X70231000Y-93952060D03*
X67691000Y-93952060D03*
X65151000Y-93952060D03*
X62611000Y-93952060D03*
X60071000Y-93952060D03*
X57531000Y-93952060D03*
X230251000Y-91412060D03*
X227711000Y-91412060D03*
X225171000Y-91412060D03*
X222631000Y-91412060D03*
X220091000Y-91412060D03*
X217551000Y-91412060D03*
X215011000Y-91412060D03*
X212471000Y-91412060D03*
X209931000Y-91412060D03*
X207391000Y-91412060D03*
X204851000Y-91412060D03*
X202311000Y-91412060D03*
X199771000Y-91412060D03*
X197231000Y-91412060D03*
X194691000Y-91412060D03*
X192151000Y-91412060D03*
X189611000Y-91412060D03*
X187071000Y-91412060D03*
X184531000Y-91412060D03*
X181991000Y-91412060D03*
X179451000Y-91412060D03*
X176911000Y-91412060D03*
X174371000Y-91412060D03*
X171831000Y-91412060D03*
X169291000Y-91412060D03*
X166751000Y-91412060D03*
X164211000Y-91412060D03*
X161671000Y-91412060D03*
X159131000Y-91412060D03*
X156591000Y-91412060D03*
X154051000Y-91412060D03*
X151511000Y-91412060D03*
X148971000Y-91412060D03*
X146431000Y-91412060D03*
X143891000Y-91412060D03*
X141351000Y-91412060D03*
X138811000Y-91412060D03*
X136271000Y-91412060D03*
X133731000Y-91412060D03*
X131191000Y-91412060D03*
X128651000Y-91412060D03*
X126111000Y-91412060D03*
X123571000Y-91412060D03*
X121031000Y-91412060D03*
X118491000Y-91412060D03*
X115951000Y-91412060D03*
X113411000Y-91412060D03*
X110871000Y-91412060D03*
X108331000Y-91412060D03*
X105791000Y-91412060D03*
X103251000Y-91412060D03*
X100711000Y-91412060D03*
X98171000Y-91412060D03*
X95631000Y-91412060D03*
X93091000Y-91412060D03*
X90551000Y-91412060D03*
X88011000Y-91412060D03*
X85471000Y-91412060D03*
X82931000Y-91412060D03*
X80391000Y-91412060D03*
X77851000Y-91412060D03*
X75311000Y-91412060D03*
X72771000Y-91412060D03*
X70231000Y-91412060D03*
X67691000Y-91412060D03*
X65151000Y-91412060D03*
X62611000Y-91412060D03*
X60071000Y-91412060D03*
X57531000Y-91412060D03*
X230251000Y-88872060D03*
X227711000Y-88872060D03*
X225171000Y-88872060D03*
X222631000Y-88872060D03*
X220091000Y-88872060D03*
X217551000Y-88872060D03*
X215011000Y-88872060D03*
X212471000Y-88872060D03*
X209931000Y-88872060D03*
X207391000Y-88872060D03*
X204851000Y-88872060D03*
X202311000Y-88872060D03*
X199771000Y-88872060D03*
X197231000Y-88872060D03*
X194691000Y-88872060D03*
X192151000Y-88872060D03*
X189611000Y-88872060D03*
X187071000Y-88872060D03*
X184531000Y-88872060D03*
X181991000Y-88872060D03*
X179451000Y-88872060D03*
X176911000Y-88872060D03*
X174371000Y-88872060D03*
X171831000Y-88872060D03*
X169291000Y-88872060D03*
X166751000Y-88872060D03*
X164211000Y-88872060D03*
X161671000Y-88872060D03*
X159131000Y-88872060D03*
X156591000Y-88872060D03*
X154051000Y-88872060D03*
X151511000Y-88872060D03*
X148971000Y-88872060D03*
X146431000Y-88872060D03*
X143891000Y-88872060D03*
X141351000Y-88872060D03*
X138811000Y-88872060D03*
X136271000Y-88872060D03*
X133731000Y-88872060D03*
X131191000Y-88872060D03*
X128651000Y-88872060D03*
X126111000Y-88872060D03*
X123571000Y-88872060D03*
X121031000Y-88872060D03*
X118491000Y-88872060D03*
X115951000Y-88872060D03*
X113411000Y-88872060D03*
X110871000Y-88872060D03*
X108331000Y-88872060D03*
X105791000Y-88872060D03*
X103251000Y-88872060D03*
X100711000Y-88872060D03*
X98171000Y-88872060D03*
X95631000Y-88872060D03*
X93091000Y-88872060D03*
X90551000Y-88872060D03*
X88011000Y-88872060D03*
X85471000Y-88872060D03*
X82931000Y-88872060D03*
X80391000Y-88872060D03*
X77851000Y-88872060D03*
X75311000Y-88872060D03*
X72771000Y-88872060D03*
X70231000Y-88872060D03*
X67691000Y-88872060D03*
X65151000Y-88872060D03*
X62611000Y-88872060D03*
X60071000Y-88872060D03*
X57531000Y-88872060D03*
X230251000Y-86332060D03*
X227711000Y-86332060D03*
X225171000Y-86332060D03*
X222631000Y-86332060D03*
X220091000Y-86332060D03*
X217551000Y-86332060D03*
X215011000Y-86332060D03*
X212471000Y-86332060D03*
X209931000Y-86332060D03*
X207391000Y-86332060D03*
X204851000Y-86332060D03*
X202311000Y-86332060D03*
X199771000Y-86332060D03*
X197231000Y-86332060D03*
X194691000Y-86332060D03*
X192151000Y-86332060D03*
X189611000Y-86332060D03*
X187071000Y-86332060D03*
X184531000Y-86332060D03*
X181991000Y-86332060D03*
X179451000Y-86332060D03*
X176911000Y-86332060D03*
X174371000Y-86332060D03*
X171831000Y-86332060D03*
X169291000Y-86332060D03*
X166751000Y-86332060D03*
X164211000Y-86332060D03*
X161671000Y-86332060D03*
X159131000Y-86332060D03*
X156591000Y-86332060D03*
X154051000Y-86332060D03*
X151511000Y-86332060D03*
X148971000Y-86332060D03*
X146431000Y-86332060D03*
X143891000Y-86332060D03*
X141351000Y-86332060D03*
X138811000Y-86332060D03*
X136271000Y-86332060D03*
X133731000Y-86332060D03*
X131191000Y-86332060D03*
X128651000Y-86332060D03*
X126111000Y-86332060D03*
X123571000Y-86332060D03*
X121031000Y-86332060D03*
X118491000Y-86332060D03*
X115951000Y-86332060D03*
X113411000Y-86332060D03*
X110871000Y-86332060D03*
X108331000Y-86332060D03*
X105791000Y-86332060D03*
X103251000Y-86332060D03*
X100711000Y-86332060D03*
X98171000Y-86332060D03*
X95631000Y-86332060D03*
X93091000Y-86332060D03*
X90551000Y-86332060D03*
X88011000Y-86332060D03*
X85471000Y-86332060D03*
X82931000Y-86332060D03*
X80391000Y-86332060D03*
X77851000Y-86332060D03*
X75311000Y-86332060D03*
X72771000Y-86332060D03*
X70231000Y-86332060D03*
X67691000Y-86332060D03*
X65151000Y-86332060D03*
X62611000Y-86332060D03*
X60071000Y-86332060D03*
X57531000Y-86332060D03*
X230251000Y-83792060D03*
X227711000Y-83792060D03*
X225171000Y-83792060D03*
X222631000Y-83792060D03*
X220091000Y-83792060D03*
X217551000Y-83792060D03*
X215011000Y-83792060D03*
X212471000Y-83792060D03*
X209931000Y-83792060D03*
X207391000Y-83792060D03*
X204851000Y-83792060D03*
X202311000Y-83792060D03*
X199771000Y-83792060D03*
X197231000Y-83792060D03*
X194691000Y-83792060D03*
X192151000Y-83792060D03*
X189611000Y-83792060D03*
X187071000Y-83792060D03*
X184531000Y-83792060D03*
X181991000Y-83792060D03*
X179451000Y-83792060D03*
X176911000Y-83792060D03*
X174371000Y-83792060D03*
X171831000Y-83792060D03*
X169291000Y-83792060D03*
X166751000Y-83792060D03*
X164211000Y-83792060D03*
X161671000Y-83792060D03*
X159131000Y-83792060D03*
X156591000Y-83792060D03*
X154051000Y-83792060D03*
X151511000Y-83792060D03*
X148971000Y-83792060D03*
X146431000Y-83792060D03*
X143891000Y-83792060D03*
X141351000Y-83792060D03*
X138811000Y-83792060D03*
X136271000Y-83792060D03*
X133731000Y-83792060D03*
X131191000Y-83792060D03*
X128651000Y-83792060D03*
X126111000Y-83792060D03*
X123571000Y-83792060D03*
X121031000Y-83792060D03*
X118491000Y-83792060D03*
X115951000Y-83792060D03*
X113411000Y-83792060D03*
X110871000Y-83792060D03*
X108331000Y-83792060D03*
X105791000Y-83792060D03*
X103251000Y-83792060D03*
X100711000Y-83792060D03*
X98171000Y-83792060D03*
X95631000Y-83792060D03*
X93091000Y-83792060D03*
X90551000Y-83792060D03*
X88011000Y-83792060D03*
X85471000Y-83792060D03*
X82931000Y-83792060D03*
X80391000Y-83792060D03*
X77851000Y-83792060D03*
X75311000Y-83792060D03*
X72771000Y-83792060D03*
X70231000Y-83792060D03*
X67691000Y-83792060D03*
X65151000Y-83792060D03*
X62611000Y-83792060D03*
X60071000Y-83792060D03*
X57531000Y-83792060D03*
X230251000Y-81252060D03*
X227711000Y-81252060D03*
X225171000Y-81252060D03*
X222631000Y-81252060D03*
X220091000Y-81252060D03*
X217551000Y-81252060D03*
X215011000Y-81252060D03*
X212471000Y-81252060D03*
X209931000Y-81252060D03*
X207391000Y-81252060D03*
X204851000Y-81252060D03*
X202311000Y-81252060D03*
X199771000Y-81252060D03*
X197231000Y-81252060D03*
X194691000Y-81252060D03*
X192151000Y-81252060D03*
X189611000Y-81252060D03*
X187071000Y-81252060D03*
X184531000Y-81252060D03*
X181991000Y-81252060D03*
X179451000Y-81252060D03*
X176911000Y-81252060D03*
X174371000Y-81252060D03*
X171831000Y-81252060D03*
X169291000Y-81252060D03*
X166751000Y-81252060D03*
X164211000Y-81252060D03*
X161671000Y-81252060D03*
X159131000Y-81252060D03*
X156591000Y-81252060D03*
X154051000Y-81252060D03*
X151511000Y-81252060D03*
X148971000Y-81252060D03*
X146431000Y-81252060D03*
X143891000Y-81252060D03*
X141351000Y-81252060D03*
X138811000Y-81252060D03*
X136271000Y-81252060D03*
X133731000Y-81252060D03*
X131191000Y-81252060D03*
X128651000Y-81252060D03*
X126111000Y-81252060D03*
X123571000Y-81252060D03*
X121031000Y-81252060D03*
X118491000Y-81252060D03*
X115951000Y-81252060D03*
X113411000Y-81252060D03*
X110871000Y-81252060D03*
X108331000Y-81252060D03*
X105791000Y-81252060D03*
X103251000Y-81252060D03*
X100711000Y-81252060D03*
X98171000Y-81252060D03*
X95631000Y-81252060D03*
X93091000Y-81252060D03*
X90551000Y-81252060D03*
X88011000Y-81252060D03*
X85471000Y-81252060D03*
X82931000Y-81252060D03*
X80391000Y-81252060D03*
X77851000Y-81252060D03*
X75311000Y-81252060D03*
X72771000Y-81252060D03*
X70231000Y-81252060D03*
X67691000Y-81252060D03*
X65151000Y-81252060D03*
X62611000Y-81252060D03*
X60071000Y-81252060D03*
X57531000Y-81252060D03*
X230251000Y-78712060D03*
X227711000Y-78712060D03*
X225171000Y-78712060D03*
X222631000Y-78712060D03*
X220091000Y-78712060D03*
X217551000Y-78712060D03*
X215011000Y-78712060D03*
X212471000Y-78712060D03*
X209931000Y-78712060D03*
X207391000Y-78712060D03*
X204851000Y-78712060D03*
X202311000Y-78712060D03*
X199771000Y-78712060D03*
X197231000Y-78712060D03*
X194691000Y-78712060D03*
X192151000Y-78712060D03*
X189611000Y-78712060D03*
X187071000Y-78712060D03*
X184531000Y-78712060D03*
X181991000Y-78712060D03*
X179451000Y-78712060D03*
X176911000Y-78712060D03*
X174371000Y-78712060D03*
X171831000Y-78712060D03*
X169291000Y-78712060D03*
X166751000Y-78712060D03*
X164211000Y-78712060D03*
X161671000Y-78712060D03*
X159131000Y-78712060D03*
X156591000Y-78712060D03*
X154051000Y-78712060D03*
X151511000Y-78712060D03*
X148971000Y-78712060D03*
X146431000Y-78712060D03*
X143891000Y-78712060D03*
X141351000Y-78712060D03*
X138811000Y-78712060D03*
X136271000Y-78712060D03*
X133731000Y-78712060D03*
X131191000Y-78712060D03*
X128651000Y-78712060D03*
X126111000Y-78712060D03*
X123571000Y-78712060D03*
X121031000Y-78712060D03*
X118491000Y-78712060D03*
X115951000Y-78712060D03*
X113411000Y-78712060D03*
X110871000Y-78712060D03*
X108331000Y-78712060D03*
X105791000Y-78712060D03*
X103251000Y-78712060D03*
X100711000Y-78712060D03*
X98171000Y-78712060D03*
X95631000Y-78712060D03*
X93091000Y-78712060D03*
X90551000Y-78712060D03*
X88011000Y-78712060D03*
X85471000Y-78712060D03*
X82931000Y-78712060D03*
X80391000Y-78712060D03*
X77851000Y-78712060D03*
X75311000Y-78712060D03*
X72771000Y-78712060D03*
X70231000Y-78712060D03*
X67691000Y-78712060D03*
X65151000Y-78712060D03*
X62611000Y-78712060D03*
X60071000Y-78712060D03*
X57531000Y-78712060D03*
X230251000Y-76172060D03*
X227711000Y-76172060D03*
X225171000Y-76172060D03*
X222631000Y-76172060D03*
X220091000Y-76172060D03*
X217551000Y-76172060D03*
X215011000Y-76172060D03*
X212471000Y-76172060D03*
X209931000Y-76172060D03*
X207391000Y-76172060D03*
X204851000Y-76172060D03*
X202311000Y-76172060D03*
X199771000Y-76172060D03*
X197231000Y-76172060D03*
X194691000Y-76172060D03*
X192151000Y-76172060D03*
X189611000Y-76172060D03*
X187071000Y-76172060D03*
X184531000Y-76172060D03*
X181991000Y-76172060D03*
X179451000Y-76172060D03*
X176911000Y-76172060D03*
X174371000Y-76172060D03*
X171831000Y-76172060D03*
X169291000Y-76172060D03*
X166751000Y-76172060D03*
X164211000Y-76172060D03*
X161671000Y-76172060D03*
X159131000Y-76172060D03*
X156591000Y-76172060D03*
X154051000Y-76172060D03*
X151511000Y-76172060D03*
X148971000Y-76172060D03*
X146431000Y-76172060D03*
X143891000Y-76172060D03*
X141351000Y-76172060D03*
X138811000Y-76172060D03*
X136271000Y-76172060D03*
X133731000Y-76172060D03*
X131191000Y-76172060D03*
X128651000Y-76172060D03*
X126111000Y-76172060D03*
X123571000Y-76172060D03*
X121031000Y-76172060D03*
X118491000Y-76172060D03*
X115951000Y-76172060D03*
X113411000Y-76172060D03*
X110871000Y-76172060D03*
X108331000Y-76172060D03*
X105791000Y-76172060D03*
X103251000Y-76172060D03*
X100711000Y-76172060D03*
X98171000Y-76172060D03*
X95631000Y-76172060D03*
X93091000Y-76172060D03*
X90551000Y-76172060D03*
X88011000Y-76172060D03*
X85471000Y-76172060D03*
X82931000Y-76172060D03*
X80391000Y-76172060D03*
X77851000Y-76172060D03*
X75311000Y-76172060D03*
X72771000Y-76172060D03*
X70231000Y-76172060D03*
X67691000Y-76172060D03*
X65151000Y-76172060D03*
X62611000Y-76172060D03*
X60071000Y-76172060D03*
X57531000Y-76172060D03*
X230251000Y-73632060D03*
X227711000Y-73632060D03*
X225171000Y-73632060D03*
X222631000Y-73632060D03*
X220091000Y-73632060D03*
X217551000Y-73632060D03*
X215011000Y-73632060D03*
X212471000Y-73632060D03*
X209931000Y-73632060D03*
X207391000Y-73632060D03*
X204851000Y-73632060D03*
X202311000Y-73632060D03*
X199771000Y-73632060D03*
X197231000Y-73632060D03*
X194691000Y-73632060D03*
X192151000Y-73632060D03*
X189611000Y-73632060D03*
X187071000Y-73632060D03*
X184531000Y-73632060D03*
X181991000Y-73632060D03*
X179451000Y-73632060D03*
X176911000Y-73632060D03*
X174371000Y-73632060D03*
X171831000Y-73632060D03*
X169291000Y-73632060D03*
X166751000Y-73632060D03*
X164211000Y-73632060D03*
X161671000Y-73632060D03*
X159131000Y-73632060D03*
X156591000Y-73632060D03*
X154051000Y-73632060D03*
X151511000Y-73632060D03*
X148971000Y-73632060D03*
X146431000Y-73632060D03*
X143891000Y-73632060D03*
X141351000Y-73632060D03*
X138811000Y-73632060D03*
X136271000Y-73632060D03*
X133731000Y-73632060D03*
X131191000Y-73632060D03*
X128651000Y-73632060D03*
X126111000Y-73632060D03*
X123571000Y-73632060D03*
X121031000Y-73632060D03*
X118491000Y-73632060D03*
X115951000Y-73632060D03*
X113411000Y-73632060D03*
X110871000Y-73632060D03*
X108331000Y-73632060D03*
X105791000Y-73632060D03*
X103251000Y-73632060D03*
X100711000Y-73632060D03*
X98171000Y-73632060D03*
X95631000Y-73632060D03*
X93091000Y-73632060D03*
X90551000Y-73632060D03*
X88011000Y-73632060D03*
X85471000Y-73632060D03*
X82931000Y-73632060D03*
X80391000Y-73632060D03*
X77851000Y-73632060D03*
X75311000Y-73632060D03*
X72771000Y-73632060D03*
X70231000Y-73632060D03*
X67691000Y-73632060D03*
X65151000Y-73632060D03*
X62611000Y-73632060D03*
X60071000Y-73632060D03*
X57531000Y-73632060D03*
X230251000Y-71092060D03*
X227711000Y-71092060D03*
X225171000Y-71092060D03*
X222631000Y-71092060D03*
X220091000Y-71092060D03*
X217551000Y-71092060D03*
X215011000Y-71092060D03*
X212471000Y-71092060D03*
X209931000Y-71092060D03*
X207391000Y-71092060D03*
X204851000Y-71092060D03*
X202311000Y-71092060D03*
X199771000Y-71092060D03*
X197231000Y-71092060D03*
X194691000Y-71092060D03*
X192151000Y-71092060D03*
X189611000Y-71092060D03*
X187071000Y-71092060D03*
X184531000Y-71092060D03*
X181991000Y-71092060D03*
X179451000Y-71092060D03*
X176911000Y-71092060D03*
X174371000Y-71092060D03*
X171831000Y-71092060D03*
X169291000Y-71092060D03*
X166751000Y-71092060D03*
X164211000Y-71092060D03*
X161671000Y-71092060D03*
X159131000Y-71092060D03*
X156591000Y-71092060D03*
X154051000Y-71092060D03*
X151511000Y-71092060D03*
X148971000Y-71092060D03*
X146431000Y-71092060D03*
X143891000Y-71092060D03*
X141351000Y-71092060D03*
X138811000Y-71092060D03*
X136271000Y-71092060D03*
X133731000Y-71092060D03*
X131191000Y-71092060D03*
X128651000Y-71092060D03*
X126111000Y-71092060D03*
X123571000Y-71092060D03*
X121031000Y-71092060D03*
X118491000Y-71092060D03*
X115951000Y-71092060D03*
X113411000Y-71092060D03*
X110871000Y-71092060D03*
X108331000Y-71092060D03*
X105791000Y-71092060D03*
X103251000Y-71092060D03*
X100711000Y-71092060D03*
X98171000Y-71092060D03*
X95631000Y-71092060D03*
X93091000Y-71092060D03*
X90551000Y-71092060D03*
X88011000Y-71092060D03*
X85471000Y-71092060D03*
X82931000Y-71092060D03*
X80391000Y-71092060D03*
X77851000Y-71092060D03*
X75311000Y-71092060D03*
X72771000Y-71092060D03*
X70231000Y-71092060D03*
X67691000Y-71092060D03*
X65151000Y-71092060D03*
X62611000Y-71092060D03*
X60071000Y-71092060D03*
X57531000Y-71092060D03*
X230251000Y-68552060D03*
X227711000Y-68552060D03*
X225171000Y-68552060D03*
X222631000Y-68552060D03*
X220091000Y-68552060D03*
X217551000Y-68552060D03*
X215011000Y-68552060D03*
X212471000Y-68552060D03*
X209931000Y-68552060D03*
X207391000Y-68552060D03*
X204851000Y-68552060D03*
X202311000Y-68552060D03*
X199771000Y-68552060D03*
X197231000Y-68552060D03*
X194691000Y-68552060D03*
X192151000Y-68552060D03*
X189611000Y-68552060D03*
X187071000Y-68552060D03*
X184531000Y-68552060D03*
X181991000Y-68552060D03*
X179451000Y-68552060D03*
X176911000Y-68552060D03*
X174371000Y-68552060D03*
X171831000Y-68552060D03*
X169291000Y-68552060D03*
X166751000Y-68552060D03*
X164211000Y-68552060D03*
X161671000Y-68552060D03*
X159131000Y-68552060D03*
X156591000Y-68552060D03*
X154051000Y-68552060D03*
X151511000Y-68552060D03*
X148971000Y-68552060D03*
X146431000Y-68552060D03*
X143891000Y-68552060D03*
X141351000Y-68552060D03*
X138811000Y-68552060D03*
X136271000Y-68552060D03*
X133731000Y-68552060D03*
X131191000Y-68552060D03*
X128651000Y-68552060D03*
X126111000Y-68552060D03*
X123571000Y-68552060D03*
X121031000Y-68552060D03*
X118491000Y-68552060D03*
X115951000Y-68552060D03*
X113411000Y-68552060D03*
X110871000Y-68552060D03*
X108331000Y-68552060D03*
X105791000Y-68552060D03*
X103251000Y-68552060D03*
X100711000Y-68552060D03*
X98171000Y-68552060D03*
X95631000Y-68552060D03*
X93091000Y-68552060D03*
X90551000Y-68552060D03*
X88011000Y-68552060D03*
X85471000Y-68552060D03*
X82931000Y-68552060D03*
X80391000Y-68552060D03*
X77851000Y-68552060D03*
X75311000Y-68552060D03*
X72771000Y-68552060D03*
X70231000Y-68552060D03*
X67691000Y-68552060D03*
X65151000Y-68552060D03*
X62611000Y-68552060D03*
X60071000Y-68552060D03*
X57531000Y-68552060D03*
X230251000Y-66012060D03*
X227711000Y-66012060D03*
X225171000Y-66012060D03*
X222631000Y-66012060D03*
X220091000Y-66012060D03*
X217551000Y-66012060D03*
X215011000Y-66012060D03*
X212471000Y-66012060D03*
X209931000Y-66012060D03*
X207391000Y-66012060D03*
X204851000Y-66012060D03*
X202311000Y-66012060D03*
X199771000Y-66012060D03*
X197231000Y-66012060D03*
X194691000Y-66012060D03*
X192151000Y-66012060D03*
X189611000Y-66012060D03*
X187071000Y-66012060D03*
X184531000Y-66012060D03*
X181991000Y-66012060D03*
X179451000Y-66012060D03*
X176911000Y-66012060D03*
X174371000Y-66012060D03*
X171831000Y-66012060D03*
X169291000Y-66012060D03*
X166751000Y-66012060D03*
X164211000Y-66012060D03*
X161671000Y-66012060D03*
X159131000Y-66012060D03*
X156591000Y-66012060D03*
X154051000Y-66012060D03*
X151511000Y-66012060D03*
X148971000Y-66012060D03*
X146431000Y-66012060D03*
X143891000Y-66012060D03*
X141351000Y-66012060D03*
X138811000Y-66012060D03*
X136271000Y-66012060D03*
X133731000Y-66012060D03*
X131191000Y-66012060D03*
X128651000Y-66012060D03*
X126111000Y-66012060D03*
X123571000Y-66012060D03*
X121031000Y-66012060D03*
X118491000Y-66012060D03*
X115951000Y-66012060D03*
X113411000Y-66012060D03*
X110871000Y-66012060D03*
X108331000Y-66012060D03*
X105791000Y-66012060D03*
X103251000Y-66012060D03*
X100711000Y-66012060D03*
X98171000Y-66012060D03*
X95631000Y-66012060D03*
X93091000Y-66012060D03*
X90551000Y-66012060D03*
X88011000Y-66012060D03*
X85471000Y-66012060D03*
X82931000Y-66012060D03*
X80391000Y-66012060D03*
X77851000Y-66012060D03*
X75311000Y-66012060D03*
X72771000Y-66012060D03*
X70231000Y-66012060D03*
X67691000Y-66012060D03*
X65151000Y-66012060D03*
X62611000Y-66012060D03*
X60071000Y-66012060D03*
X57531000Y-66012060D03*
X230251000Y-63472060D03*
X227711000Y-63472060D03*
X225171000Y-63472060D03*
X222631000Y-63472060D03*
X220091000Y-63472060D03*
X217551000Y-63472060D03*
X215011000Y-63472060D03*
X212471000Y-63472060D03*
X209931000Y-63472060D03*
X207391000Y-63472060D03*
X204851000Y-63472060D03*
X202311000Y-63472060D03*
X199771000Y-63472060D03*
X197231000Y-63472060D03*
X194691000Y-63472060D03*
X192151000Y-63472060D03*
X189611000Y-63472060D03*
X187071000Y-63472060D03*
X184531000Y-63472060D03*
X181991000Y-63472060D03*
X179451000Y-63472060D03*
X176911000Y-63472060D03*
X174371000Y-63472060D03*
X171831000Y-63472060D03*
X169291000Y-63472060D03*
X166751000Y-63472060D03*
X164211000Y-63472060D03*
X161671000Y-63472060D03*
X159131000Y-63472060D03*
X156591000Y-63472060D03*
X154051000Y-63472060D03*
X151511000Y-63472060D03*
X148971000Y-63472060D03*
X146431000Y-63472060D03*
X143891000Y-63472060D03*
X141351000Y-63472060D03*
X138811000Y-63472060D03*
X136271000Y-63472060D03*
X133731000Y-63472060D03*
X131191000Y-63472060D03*
X128651000Y-63472060D03*
X126111000Y-63472060D03*
X123571000Y-63472060D03*
X121031000Y-63472060D03*
X118491000Y-63472060D03*
X115951000Y-63472060D03*
X113411000Y-63472060D03*
X110871000Y-63472060D03*
X108331000Y-63472060D03*
X105791000Y-63472060D03*
X103251000Y-63472060D03*
X100711000Y-63472060D03*
X98171000Y-63472060D03*
X95631000Y-63472060D03*
X93091000Y-63472060D03*
X90551000Y-63472060D03*
X88011000Y-63472060D03*
X85471000Y-63472060D03*
X82931000Y-63472060D03*
X80391000Y-63472060D03*
X77851000Y-63472060D03*
X75311000Y-63472060D03*
X72771000Y-63472060D03*
X70231000Y-63472060D03*
X67691000Y-63472060D03*
X65151000Y-63472060D03*
X62611000Y-63472060D03*
X60071000Y-63472060D03*
X57531000Y-63472060D03*
D14*
X159944881Y-133761681D02*
X159944881Y-128017081D01*
X159944881Y-128017081D02*
X159207200Y-127279400D01*
X159207200Y-127279400D02*
X159207200Y-124508260D01*
X159207200Y-124508260D02*
X159125920Y-124426980D01*
X162484881Y-129857681D02*
X162483800Y-129856600D01*
X162484881Y-133761681D02*
X162484881Y-129857681D01*
X162483800Y-129856600D02*
X162483800Y-128099820D01*
X162483800Y-128099820D02*
X161678620Y-127294640D01*
X161678620Y-127294640D02*
X161678620Y-124426980D01*
X165024881Y-129857681D02*
X165023800Y-129856600D01*
X165024881Y-133761681D02*
X165024881Y-129857681D01*
X165023800Y-129856600D02*
X165023800Y-128071880D01*
X164211000Y-127259080D02*
X164211000Y-125634141D01*
X165023800Y-128071880D02*
X164211000Y-127259080D01*
X164211000Y-125634141D02*
X164211000Y-124432060D01*
X167564881Y-133761681D02*
X167564881Y-128025079D01*
X167564881Y-128025079D02*
X166796342Y-127256540D01*
X166751000Y-127211198D02*
X166751000Y-124437140D01*
X166796342Y-127256540D02*
X166751000Y-127211198D01*
X166751000Y-124437140D02*
X166745920Y-124432060D01*
X170104881Y-129857681D02*
X170101260Y-129854060D01*
X170104881Y-133761681D02*
X170104881Y-129857681D01*
X170101260Y-129854060D02*
X170101260Y-128054100D01*
X170101260Y-128054100D02*
X169291000Y-127243840D01*
X169291000Y-127243840D02*
X169291000Y-124429520D01*
X171785280Y-124470160D02*
X171825920Y-124429520D01*
X171785280Y-127175638D02*
X171785280Y-124470160D01*
X172644881Y-133761681D02*
X172644881Y-128035239D01*
X172644881Y-128035239D02*
X171785280Y-127175638D01*
X175184881Y-129857681D02*
X175181260Y-129854060D01*
X175184881Y-133761681D02*
X175184881Y-129857681D01*
X175181260Y-129854060D02*
X175181260Y-128107440D01*
X175181260Y-128107440D02*
X174371000Y-127297180D01*
X174371000Y-127297180D02*
X174371000Y-124437140D01*
X174371000Y-124437140D02*
X174373540Y-124434600D01*
X177724881Y-129857681D02*
X177723800Y-129856600D01*
X177724881Y-133761681D02*
X177724881Y-129857681D01*
X177723800Y-129856600D02*
X177723800Y-127965200D01*
X177723800Y-127965200D02*
X176903380Y-127144780D01*
X176903380Y-127144780D02*
X176903380Y-124434600D01*
X180264881Y-129857681D02*
X180266340Y-129856222D01*
X180264881Y-133761681D02*
X180264881Y-129857681D01*
X180266340Y-129856222D02*
X180266340Y-128115060D01*
X180266340Y-128115060D02*
X179443380Y-127292100D01*
X179443380Y-127292100D02*
X179443380Y-124437140D01*
X182804881Y-129857681D02*
X182808880Y-129853682D01*
X182804881Y-133761681D02*
X182804881Y-129857681D01*
X182808880Y-129853682D02*
X182808880Y-128254760D01*
X182808880Y-128254760D02*
X181985920Y-127431800D01*
X181985920Y-127431800D02*
X181985920Y-124437140D01*
X185344881Y-129857681D02*
X185343800Y-129856600D01*
X185344881Y-133761681D02*
X185344881Y-129857681D01*
X185343800Y-129856600D02*
X185343800Y-128358900D01*
X185343800Y-128358900D02*
X184523380Y-127538480D01*
X184523380Y-127538480D02*
X184523380Y-124429520D01*
X187884881Y-129857681D02*
X187873640Y-129846440D01*
X187884881Y-133761681D02*
X187884881Y-129857681D01*
X187873640Y-129846440D02*
X187873640Y-128577340D01*
X187873640Y-128577340D02*
X187065920Y-127769620D01*
X187065920Y-127769620D02*
X187065920Y-124429520D01*
X190424881Y-129857681D02*
X190426340Y-129856222D01*
X190424881Y-133761681D02*
X190424881Y-129857681D01*
X190426340Y-129856222D02*
X190426340Y-128442720D01*
X190426340Y-128442720D02*
X189608460Y-127624840D01*
X189608460Y-127624840D02*
X189608460Y-124434600D01*
X192105280Y-124569220D02*
X192219580Y-124454920D01*
X192105280Y-127670938D02*
X192105280Y-124569220D01*
X192964881Y-133761681D02*
X192964881Y-128530539D01*
X192964881Y-128530539D02*
X192105280Y-127670938D01*
X195504881Y-129857681D02*
X195508880Y-129853682D01*
X195504881Y-133761681D02*
X195504881Y-129857681D01*
X195508880Y-129853682D02*
X195508880Y-128496060D01*
X195508880Y-128496060D02*
X194696080Y-127683260D01*
X194696080Y-127683260D02*
X194696080Y-124444760D01*
X198044881Y-129857681D02*
X198043800Y-129856600D01*
X198044881Y-133761681D02*
X198044881Y-129857681D01*
X198043800Y-129856600D02*
X198043800Y-128473200D01*
X198043800Y-128473200D02*
X197231000Y-127660400D01*
X197231000Y-127660400D02*
X197231000Y-124457460D01*
X200584881Y-133761681D02*
X200584881Y-128558479D01*
X200584881Y-128558479D02*
X199801480Y-127775078D01*
X199801480Y-127775078D02*
X199801480Y-124475240D01*
X199801480Y-124475240D02*
X199814180Y-124462540D01*
X203124881Y-129857681D02*
X203126340Y-129856222D01*
X203124881Y-133761681D02*
X203124881Y-129857681D01*
X203126340Y-129856222D02*
X203126340Y-128485900D01*
X203126340Y-128485900D02*
X202275440Y-127635000D01*
X202275440Y-127635000D02*
X202275440Y-124594620D01*
X208204881Y-133761681D02*
X208204881Y-128271459D01*
X208204881Y-128271459D02*
X207398620Y-127465198D01*
X207398620Y-127465198D02*
X207398620Y-124485400D01*
X210744881Y-129857681D02*
X210741260Y-129854060D01*
X210744881Y-133761681D02*
X210744881Y-129857681D01*
X210741260Y-129854060D02*
X210741260Y-128341120D01*
X210741260Y-128341120D02*
X209905600Y-127505460D01*
X209905600Y-127505460D02*
X209905600Y-124566680D01*
X213284881Y-129857681D02*
X213309200Y-129833362D01*
X213284881Y-133761681D02*
X213284881Y-129857681D01*
X213309200Y-129833362D02*
X213309200Y-128221740D01*
X213309200Y-128221740D02*
X212458300Y-127370840D01*
X212458300Y-127370840D02*
X212458300Y-124670820D01*
X215824881Y-133761681D02*
X215824881Y-128309181D01*
X215824881Y-128309181D02*
X215056720Y-127541020D01*
X215056720Y-127541020D02*
X215056720Y-124658120D01*
X218364881Y-133761681D02*
X218364881Y-128309181D01*
X218364881Y-128309181D02*
X217553540Y-127497840D01*
X217553540Y-127497840D02*
X217553540Y-124421900D01*
D15*
X220904881Y-128841681D02*
X220088460Y-128025260D01*
X220904881Y-133761681D02*
X220904881Y-128841681D01*
X220088460Y-128025260D02*
X220088460Y-124424440D01*
M02*
