M48
INCH,TZ
T1C0.0394
%
G90
G05
T1
X35650Y-29989
X49650Y-28989
X63650Y-27989
X34650Y-42989
X40650Y-32989
X84650Y-32989
X28650Y-36989
X79650Y-43989
X28650Y-47989
X24650Y-37989
X52650Y-44989
X62650Y-41989
X80650Y-40989
X80650Y-42989
X37650Y-27989
X51650Y-26989
X65650Y-25989
X22650Y-46989
X68650Y-24989
X53650Y-31989
X67650Y-30989
X81650Y-29989
X36650Y-46989
X69650Y-42989
X59650Y-40989
X83650Y-34989
X63650Y-38989
X77650Y-37989
X86650Y-33989
X70650Y-39989
X84650Y-38989
X58650Y-43989
X48650Y-29989
X62650Y-28989
X76650Y-27989
X56650Y-49989
X24650Y-49989
X53650Y-32989
X67650Y-31989
X28650Y-33989
X41650Y-36989
X23650Y-44989
X37650Y-37989
X65650Y-44989
X75650Y-41989
X24650Y-41989
X24650Y-43989
X64650Y-26989
X78650Y-25989
X81650Y-24989
X26650Y-24989
X80650Y-30989
X25650Y-30989
X39650Y-45989
X72650Y-40989
X86650Y-39989
X27650Y-35989
X90650Y-37989
X30650Y-34989
X28650Y-39989
X71650Y-43989
X75650Y-28989
X89650Y-27989
X80650Y-31989
X41650Y-33989
X54650Y-36989
X68650Y-35989
X36650Y-44989
X50650Y-37989
X78650Y-44989
X48650Y-45989
X37650Y-41989
X37650Y-43989
X77650Y-26989
X22650Y-26989
X25650Y-25989
X39650Y-24989
X24650Y-31989
X38650Y-30989
X30650Y-40989
X40650Y-35989
X34650Y-38989
X43650Y-34989
X41650Y-39989
X88650Y-28989
X33650Y-28989
X86650Y-44989
X34650Y-49989
X56650Y-46989
X87650Y-41989
X24650Y-32989
X54650Y-33989
X68650Y-32989
X67650Y-36989
X81650Y-35989
X48650Y-48989
X31650Y-48989
X90650Y-47989
X35650Y-47989
X63650Y-37989
X77650Y-36989
X46650Y-41989
X61650Y-45989
X90650Y-26989
X35650Y-26989
X49650Y-25989
X38650Y-25989
X52650Y-24989
X37650Y-31989
X51650Y-30989
X65650Y-29989
X53650Y-42989
X43650Y-40989
X53650Y-35989
X67650Y-34989
X47650Y-38989
X56650Y-34989
X70650Y-33989
X54650Y-39989
X32650Y-29989
X46650Y-28989
X60650Y-27989
X43650Y-49989
X31650Y-42989
X37650Y-32989
X81650Y-32989
X25650Y-36989
X90650Y-36989
X49650Y-44989
X59650Y-41989
X77650Y-40989
X34650Y-27989
X48650Y-26989
X62650Y-25989
X88650Y-45989
X65650Y-24989
X50650Y-31989
X64650Y-30989
X78650Y-29989
X33650Y-46989
X66650Y-42989
X56650Y-40989
X80650Y-34989
X60650Y-38989
X74650Y-37989
X25650Y-47989
X83650Y-33989
X67650Y-39989
X81650Y-38989
X55650Y-43989
X45650Y-29989
X59650Y-28989
X73650Y-27989
X59650Y-49989
X50650Y-32989
X64650Y-31989
X25650Y-33989
X38650Y-36989
X89650Y-43989
X34650Y-37989
X62650Y-44989
X72650Y-41989
X90650Y-40989
X90650Y-42989
X47650Y-27989
X61650Y-26989
X75650Y-25989
X78650Y-24989
X23650Y-24989
X77650Y-30989
X22650Y-30989
X36650Y-45989
X69650Y-40989
X83650Y-39989
X24650Y-35989
X87650Y-37989
X27650Y-34989
X25650Y-39989
X68650Y-43989
X72650Y-28989
X86650Y-27989
X77650Y-31989
X38650Y-33989
X51650Y-36989
X33650Y-44989
X38650Y-48989
X47650Y-37989
X75650Y-44989
X52650Y-49989
X45650Y-45989
X34650Y-41989
X34650Y-43989
X74650Y-26989
X88650Y-25989
X22650Y-25989
X36650Y-24989
X90650Y-30989
X35650Y-30989
X27650Y-40989
X37650Y-35989
X31650Y-38989
X40650Y-34989
X38650Y-39989
X85650Y-28989
X30650Y-28989
X83650Y-44989
X31650Y-49989
X53650Y-46989
X84650Y-41989
X90650Y-31989
X51650Y-33989
X65650Y-32989
X64650Y-36989
X78650Y-35989
X28650Y-48989
X60650Y-47989
X60650Y-37989
X74650Y-36989
X43650Y-41989
X58650Y-45989
X87650Y-26989
X32650Y-26989
X46650Y-25989
X35650Y-25989
X49650Y-24989
X34650Y-31989
X48650Y-30989
X62650Y-29989
X50650Y-42989
X40650Y-40989
X50650Y-35989
X64650Y-34989
X44650Y-38989
X53650Y-34989
X67650Y-33989
X51650Y-39989
X29650Y-29989
X43650Y-28989
X57650Y-27989
X27650Y-45989
X40650Y-49989
X28650Y-42989
X34650Y-32989
X78650Y-32989
X22650Y-36989
X87650Y-36989
X46650Y-44989
X56650Y-41989
X31650Y-27989
X45650Y-26989
X59650Y-25989
X62650Y-24989
X47650Y-31989
X61650Y-30989
X75650Y-29989
X30650Y-46989
X88650Y-48989
X63650Y-42989
X53650Y-40989
X63650Y-35989
X77650Y-34989
X57650Y-38989
X71650Y-37989
X22650Y-47989
X80650Y-33989
X64650Y-39989
X78650Y-38989
X52650Y-43989
X62650Y-47989
X62650Y-48989
X63650Y-47989
X63650Y-48989
X64650Y-47989
X64650Y-48989
X65650Y-47989
X65650Y-48989
X66650Y-47989
X66650Y-48989
X67650Y-47989
X67650Y-48989
X68650Y-47989
X68650Y-48989
X69650Y-47989
X69650Y-48989
X70650Y-47989
X70650Y-48989
X71650Y-47989
X71650Y-48989
X72650Y-47989
X72650Y-48989
X73650Y-47989
X73650Y-48989
X74650Y-47989
X74650Y-48989
X75650Y-47989
X75650Y-48989
X76650Y-47989
X76650Y-48989
X77650Y-47989
X77650Y-48989
X78650Y-47989
X78650Y-48989
X79650Y-47989
X79650Y-48989
X80650Y-47989
X80650Y-48989
X81650Y-47989
X81650Y-48989
X82650Y-47989
X82650Y-48989
X83650Y-47989
X83650Y-48989
X84650Y-47989
X84650Y-48989
X85650Y-47989
X85650Y-48989
X86650Y-47989
X86650Y-48989
X42650Y-29989
X56650Y-28989
X70650Y-27989
X41650Y-42989
X89650Y-49989
X45650Y-48989
X47650Y-32989
X61650Y-31989
X22650Y-33989
X35650Y-36989
X86650Y-43989
X47650Y-47989
X31650Y-37989
X59650Y-44989
X69650Y-41989
X87650Y-40989
X87650Y-42989
X44650Y-27989
X58650Y-26989
X72650Y-25989
X75650Y-24989
X74650Y-30989
X88650Y-29989
X43650Y-46989
X33650Y-45989
X76650Y-42989
X66650Y-40989
X80650Y-39989
X90650Y-34989
X70650Y-38989
X84650Y-37989
X24650Y-34989
X22650Y-39989
X65650Y-43989
X69650Y-28989
X83650Y-27989
X74650Y-31989
X35650Y-33989
X48650Y-36989
X30650Y-44989
X55650Y-47989
X35650Y-48989
X44650Y-37989
X72650Y-44989
X49650Y-49989
X31650Y-41989
X31650Y-43989
X71650Y-26989
X85650Y-25989
X88650Y-24989
X33650Y-24989
X87650Y-30989
X32650Y-30989
X24650Y-40989
X34650Y-35989
X28650Y-38989
X37650Y-34989
X35650Y-39989
X78650Y-43989
X82650Y-28989
X27650Y-28989
X80650Y-44989
X50650Y-46989
X81650Y-41989
X87650Y-31989
X48650Y-33989
X62650Y-32989
X61650Y-36989
X75650Y-35989
X43650Y-44989
X25650Y-48989
X57650Y-37989
X71650Y-36989
X55650Y-45989
X84650Y-26989
X29650Y-26989
X43650Y-25989
X32650Y-25989
X46650Y-24989
X31650Y-31989
X45650Y-30989
X59650Y-29989
X47650Y-42989
X37650Y-40989
X47650Y-35989
X41650Y-38989
X50650Y-34989
X64650Y-33989
X48650Y-39989
X26650Y-29989
X40650Y-28989
X54650Y-27989
X24650Y-45989
X25650Y-42989
X31650Y-32989
X61650Y-33989
X75650Y-32989
X88650Y-35989
X55650Y-48989
X84650Y-36989
X53650Y-41989
X28650Y-27989
X42650Y-26989
X56650Y-25989
X59650Y-24989
X44650Y-31989
X58650Y-30989
X72650Y-29989
X27650Y-46989
X58650Y-48989
X60650Y-42989
X50650Y-40989
X60650Y-35989
X74650Y-34989
X54650Y-38989
X88650Y-46989
X63650Y-34989
X77650Y-33989
X61650Y-39989
X75650Y-38989
X49650Y-43989
X39650Y-29989
X53650Y-28989
X67650Y-27989
X38650Y-42989
X42650Y-48989
X44650Y-32989
X58650Y-31989
X88650Y-32989
X32650Y-36989
X83650Y-43989
X32650Y-47989
X44650Y-47989
X28650Y-37989
X56650Y-44989
X66650Y-41989
X84650Y-40989
X84650Y-42989
X41650Y-27989
X55650Y-26989
X69650Y-25989
X26650Y-46989
X72650Y-24989
X57650Y-31989
X71650Y-30989
X85650Y-29989
X40650Y-46989
X30650Y-45989
X73650Y-42989
X63650Y-40989
X77650Y-39989
X87650Y-34989
X67650Y-38989
X81650Y-37989
X90650Y-33989
X88650Y-38989
X62650Y-43989
X52650Y-29989
X66650Y-28989
X80650Y-27989
X28650Y-49989
X57650Y-32989
X71650Y-31989
X32650Y-33989
X45650Y-36989
X27650Y-44989
X52650Y-47989
X32650Y-48989
X41650Y-37989
X69650Y-44989
X46650Y-49989
X28650Y-41989
X28650Y-43989
X68650Y-26989
X82650Y-25989
X85650Y-24989
X30650Y-24989
X84650Y-30989
X29650Y-30989
X43650Y-45989
X90650Y-39989
X31650Y-35989
X25650Y-38989
X34650Y-34989
X32650Y-39989
X75650Y-43989
X79650Y-28989
X24650Y-28989
X47650Y-46989
X78650Y-41989
X84650Y-31989
X45650Y-33989
X58650Y-36989
X72650Y-35989
X40650Y-44989
X54650Y-37989
X68650Y-36989
X52650Y-45989
X41650Y-41989
X41650Y-43989
X81650Y-26989
X26650Y-26989
X29650Y-25989
X43650Y-24989
X28650Y-31989
X42650Y-30989
X56650Y-29989
X44650Y-42989
X34650Y-40989
X44650Y-35989
X38650Y-38989
X47650Y-34989
X45650Y-39989
X23650Y-29989
X37650Y-28989
X51650Y-27989
X90650Y-44989
X60650Y-46989
X22650Y-42989
X28650Y-32989
X58650Y-33989
X72650Y-32989
X85650Y-35989
X52650Y-48989
X39650Y-47989
X67650Y-37989
X81650Y-36989
X50650Y-41989
X25650Y-27989
X39650Y-26989
X53650Y-25989
X42650Y-25989
X56650Y-24989
X41650Y-31989
X55650Y-30989
X69650Y-29989
X57650Y-42989
X47650Y-40989
X57650Y-35989
X71650Y-34989
X51650Y-38989
X60650Y-34989
X74650Y-33989
X58650Y-39989
X72650Y-38989
X46650Y-43989
X36650Y-29989
X50650Y-28989
X64650Y-27989
X35650Y-42989
X41650Y-32989
X85650Y-32989
X29650Y-36989
X80650Y-43989
X29650Y-47989
X25650Y-37989
X53650Y-44989
X63650Y-41989
X81650Y-40989
X81650Y-42989
X38650Y-27989
X52650Y-26989
X66650Y-25989
X23650Y-46989
X69650Y-24989
X54650Y-31989
X68650Y-30989
X82650Y-29989
X37650Y-46989
X70650Y-42989
X60650Y-40989
X74650Y-39989
X84650Y-34989
X64650Y-38989
X78650Y-37989
X87650Y-33989
X71650Y-39989
X85650Y-38989
X59650Y-43989
X49650Y-29989
X63650Y-28989
X77650Y-27989
X55650Y-49989
X25650Y-49989
X54650Y-32989
X68650Y-31989
X29650Y-33989
X42650Y-36989
X24650Y-44989
X38650Y-37989
X66650Y-44989
X76650Y-41989
X25650Y-41989
X25650Y-43989
X65650Y-26989
X79650Y-25989
X82650Y-24989
X27650Y-24989
X81650Y-30989
X26650Y-30989
X40650Y-45989
X73650Y-40989
X87650Y-39989
X28650Y-35989
X22650Y-38989
X31650Y-34989
X29650Y-39989
X72650Y-43989
X76650Y-28989
X90650Y-27989
X44650Y-46989
X81650Y-31989
X42650Y-33989
X55650Y-36989
X69650Y-35989
X37650Y-44989
X51650Y-37989
X79650Y-44989
X49650Y-45989
X38650Y-41989
X38650Y-43989
X78650Y-26989
X23650Y-26989
X26650Y-25989
X40650Y-24989
X25650Y-31989
X39650Y-30989
X53650Y-29989
X31650Y-40989
X41650Y-35989
X35650Y-38989
X44650Y-34989
X42650Y-39989
X89650Y-28989
X34650Y-28989
X48650Y-27989
X87650Y-44989
X35650Y-49989
X57650Y-46989
X88650Y-41989
X25650Y-32989
X55650Y-33989
X69650Y-32989
X82650Y-35989
X49650Y-48989
X22650Y-48989
X36650Y-47989
X64650Y-37989
X78650Y-36989
X47650Y-41989
X22650Y-27989
X36650Y-26989
X50650Y-25989
X39650Y-25989
X53650Y-24989
X38650Y-31989
X52650Y-30989
X66650Y-29989
X54650Y-42989
X44650Y-40989
X54650Y-35989
X68650Y-34989
X48650Y-38989
X57650Y-34989
X71650Y-33989
X55650Y-39989
X33650Y-29989
X47650Y-28989
X61650Y-27989
X44650Y-49989
X32650Y-42989
X38650Y-32989
X82650Y-32989
X26650Y-36989
X26650Y-47989
X22650Y-37989
X50650Y-44989
X60650Y-41989
X78650Y-40989
X78650Y-42989
X35650Y-27989
X49650Y-26989
X63650Y-25989
X89650Y-45989
X66650Y-24989
X51650Y-31989
X65650Y-30989
X79650Y-29989
X34650Y-46989
X67650Y-42989
X57650Y-40989
X81650Y-34989
X61650Y-38989
X75650Y-37989
X84650Y-33989
X68650Y-39989
X82650Y-38989
X56650Y-43989
X46650Y-29989
X60650Y-28989
X74650Y-27989
X58650Y-49989
X22650Y-49989
X51650Y-32989
X65650Y-31989
X26650Y-33989
X39650Y-36989
X90650Y-43989
X35650Y-37989
X63650Y-44989
X73650Y-41989
X22650Y-41989
X22650Y-43989
X62650Y-26989
X76650Y-25989
X79650Y-24989
X24650Y-24989
X78650Y-30989
X23650Y-30989
X37650Y-45989
X70650Y-40989
X84650Y-39989
X25650Y-35989
X88650Y-37989
X28650Y-34989
X26650Y-39989
X69650Y-43989
X73650Y-28989
X87650Y-27989
X78650Y-31989
X39650Y-33989
X52650Y-36989
X66650Y-35989
X34650Y-44989
X39650Y-48989
X48650Y-37989
X76650Y-44989
X53650Y-49989
X46650Y-45989
X35650Y-41989
X35650Y-43989
X75650Y-26989
X89650Y-25989
X23650Y-25989
X37650Y-24989
X22650Y-31989
X36650Y-30989
X28650Y-40989
X38650Y-35989
X32650Y-38989
X41650Y-34989
X39650Y-39989
X86650Y-28989
X31650Y-28989
X84650Y-44989
X32650Y-49989
X54650Y-46989
X85650Y-41989
X22650Y-32989
X52650Y-33989
X66650Y-32989
X65650Y-36989
X79650Y-35989
X29650Y-48989
X88650Y-47989
X61650Y-37989
X75650Y-36989
X44650Y-41989
X59650Y-45989
X88650Y-26989
X33650Y-26989
X47650Y-25989
X36650Y-25989
X50650Y-24989
X35650Y-31989
X49650Y-30989
X63650Y-29989
X51650Y-42989
X41650Y-40989
X51650Y-35989
X65650Y-34989
X45650Y-38989
X54650Y-34989
X68650Y-33989
X52650Y-39989
X30650Y-29989
X44650Y-28989
X58650Y-27989
X41650Y-49989
X29650Y-42989
X35650Y-32989
X79650Y-32989
X23650Y-36989
X88650Y-36989
X47650Y-44989
X57650Y-41989
X32650Y-27989
X46650Y-26989
X60650Y-25989
X63650Y-24989
X48650Y-31989
X62650Y-30989
X76650Y-29989
X31650Y-46989
X89650Y-48989
X64650Y-42989
X54650Y-40989
X64650Y-35989
X78650Y-34989
X58650Y-38989
X72650Y-37989
X23650Y-47989
X81650Y-33989
X65650Y-39989
X79650Y-38989
X53650Y-43989
X43650Y-29989
X57650Y-28989
X71650Y-27989
X42650Y-42989
X60650Y-49989
X46650Y-48989
X48650Y-32989
X62650Y-31989
X23650Y-33989
X36650Y-36989
X87650Y-43989
X48650Y-47989
X32650Y-37989
X60650Y-44989
X70650Y-41989
X88650Y-40989
X88650Y-42989
X45650Y-27989
X59650Y-26989
X73650Y-25989
X76650Y-24989
X75650Y-30989
X89650Y-29989
X34650Y-45989
X77650Y-42989
X67650Y-40989
X81650Y-39989
X22650Y-35989
X71650Y-38989
X85650Y-37989
X25650Y-34989
X23650Y-39989
X66650Y-43989
X70650Y-28989
X84650Y-27989
X75650Y-31989
X36650Y-33989
X49650Y-36989
X31650Y-44989
X56650Y-47989
X36650Y-48989
X45650Y-37989
X73650Y-44989
X50650Y-49989
X32650Y-41989
X32650Y-43989
X72650Y-26989
X86650Y-25989
X89650Y-24989
X34650Y-24989
X88650Y-30989
X33650Y-30989
X25650Y-40989
X35650Y-35989
X29650Y-38989
X38650Y-34989
X36650Y-39989
X83650Y-28989
X28650Y-28989
X81650Y-44989
X51650Y-46989
X82650Y-41989
X88650Y-31989
X49650Y-33989
X63650Y-32989
X62650Y-36989
X76650Y-35989
X44650Y-44989
X26650Y-48989
X58650Y-47989
X58650Y-37989
X72650Y-36989
X56650Y-45989
X85650Y-26989
X30650Y-26989
X44650Y-25989
X33650Y-25989
X47650Y-24989
X32650Y-31989
X46650Y-30989
X60650Y-29989
X48650Y-42989
X38650Y-40989
X48650Y-35989
X42650Y-38989
X51650Y-34989
X65650Y-33989
X49650Y-39989
X27650Y-29989
X41650Y-28989
X55650Y-27989
X25650Y-45989
X38650Y-49989
X26650Y-42989
X32650Y-32989
X76650Y-32989
X89650Y-35989
X85650Y-36989
X54650Y-41989
X29650Y-27989
X43650Y-26989
X57650Y-25989
X60650Y-24989
X45650Y-31989
X59650Y-30989
X73650Y-29989
X28650Y-46989
X59650Y-48989
X61650Y-42989
X51650Y-40989
X61650Y-35989
X75650Y-34989
X55650Y-38989
X89650Y-46989
X78650Y-33989
X62650Y-39989
X76650Y-38989
X50650Y-43989
X40650Y-29989
X54650Y-28989
X68650Y-27989
X39650Y-42989
X43650Y-48989
X45650Y-32989
X59650Y-31989
X89650Y-32989
X33650Y-36989
X84650Y-43989
X33650Y-47989
X45650Y-47989
X29650Y-37989
X57650Y-44989
X67650Y-41989
X85650Y-40989
X85650Y-42989
X42650Y-27989
X56650Y-26989
X70650Y-25989
X73650Y-24989
X72650Y-30989
X86650Y-29989
X41650Y-46989
X31650Y-45989
X74650Y-42989
X64650Y-40989
X78650Y-39989
X88650Y-34989
X68650Y-38989
X82650Y-37989
X22650Y-34989
X89650Y-38989
X63650Y-43989
X67650Y-28989
X81650Y-27989
X29650Y-49989
X58650Y-32989
X72650Y-31989
X33650Y-33989
X46650Y-36989
X28650Y-44989
X53650Y-47989
X33650Y-48989
X42650Y-37989
X70650Y-44989
X47650Y-49989
X29650Y-41989
X29650Y-43989
X69650Y-26989
X83650Y-25989
X86650Y-24989
X31650Y-24989
X85650Y-30989
X30650Y-30989
X44650Y-45989
X22650Y-40989
X32650Y-35989
X26650Y-38989
X35650Y-34989
X33650Y-39989
X76650Y-43989
X80650Y-28989
X25650Y-28989
X48650Y-46989
X79650Y-41989
X85650Y-31989
X46650Y-33989
X60650Y-32989
X59650Y-36989
X73650Y-35989
X41650Y-44989
X55650Y-37989
X69650Y-36989
X53650Y-45989
X42650Y-43989
X82650Y-26989
X27650Y-26989
X30650Y-25989
X44650Y-24989
X29650Y-31989
X43650Y-30989
X57650Y-29989
X45650Y-42989
X35650Y-40989
X45650Y-35989
X39650Y-38989
X48650Y-34989
X62650Y-33989
X46650Y-39989
X24650Y-29989
X38650Y-28989
X52650Y-27989
X22650Y-45989
X23650Y-42989
X29650Y-32989
X59650Y-33989
X73650Y-32989
X86650Y-35989
X53650Y-48989
X40650Y-47989
X68650Y-37989
X82650Y-36989
X51650Y-41989
X26650Y-27989
X40650Y-26989
X54650Y-25989
X57650Y-24989
X42650Y-31989
X56650Y-30989
X70650Y-29989
X56650Y-48989
X58650Y-42989
X48650Y-40989
X58650Y-35989
X72650Y-34989
X52650Y-38989
X61650Y-34989
X75650Y-33989
X59650Y-39989
X73650Y-38989
X47650Y-43989
X37650Y-29989
X51650Y-28989
X65650Y-27989
X36650Y-42989
X40650Y-48989
X42650Y-32989
X86650Y-32989
X30650Y-36989
X81650Y-43989
X30650Y-47989
X42650Y-47989
X26650Y-37989
X54650Y-44989
X64650Y-41989
X82650Y-40989
X82650Y-42989
X39650Y-27989
X53650Y-26989
X67650Y-25989
X24650Y-46989
X70650Y-24989
X55650Y-31989
X69650Y-30989
X83650Y-29989
X38650Y-46989
X28650Y-45989
X71650Y-42989
X61650Y-40989
X75650Y-39989
X85650Y-34989
X65650Y-38989
X79650Y-37989
X88650Y-33989
X72650Y-39989
X86650Y-38989
X60650Y-43989
X50650Y-29989
X64650Y-28989
X78650Y-27989
X54650Y-49989
X26650Y-49989
X55650Y-32989
X69650Y-31989
X30650Y-33989
X43650Y-36989
X25650Y-44989
X50650Y-47989
X39650Y-37989
X67650Y-44989
X26650Y-41989
X26650Y-43989
X66650Y-26989
X80650Y-25989
X83650Y-24989
X28650Y-24989
X82650Y-30989
X27650Y-30989
X41650Y-45989
X74650Y-40989
X88650Y-39989
X29650Y-35989
X23650Y-38989
X32650Y-34989
X30650Y-39989
X73650Y-43989
X77650Y-28989
X22650Y-28989
X45650Y-46989
X82650Y-31989
X43650Y-33989
X56650Y-36989
X70650Y-35989
X38650Y-44989
X52650Y-37989
X50650Y-45989
X39650Y-41989
X39650Y-43989
X79650Y-26989
X24650Y-26989
X27650Y-25989
X41650Y-24989
X26650Y-31989
X40650Y-30989
X54650Y-29989
X32650Y-40989
X42650Y-35989
X36650Y-38989
X45650Y-34989
X43650Y-39989
X90650Y-28989
X35650Y-28989
X49650Y-27989
X88650Y-44989
X36650Y-49989
X58650Y-46989
X89650Y-41989
X26650Y-32989
X56650Y-33989
X70650Y-32989
X83650Y-35989
X50650Y-48989
X23650Y-48989
X37650Y-47989
X65650Y-37989
X79650Y-36989
X48650Y-41989
X23650Y-27989
X37650Y-26989
X51650Y-25989
X40650Y-25989
X54650Y-24989
X39650Y-31989
X53650Y-30989
X67650Y-29989
X55650Y-42989
X45650Y-40989
X55650Y-35989
X69650Y-34989
X49650Y-38989
X58650Y-34989
X72650Y-33989
X56650Y-39989
X44650Y-43989
X34650Y-29989
X48650Y-28989
X62650Y-27989
X45650Y-49989
X33650Y-42989
X39650Y-32989
X83650Y-32989
X27650Y-36989
X27650Y-47989
X23650Y-37989
X51650Y-44989
X61650Y-41989
X79650Y-40989
X79650Y-42989
X36650Y-27989
X50650Y-26989
X64650Y-25989
X90650Y-45989
X67650Y-24989
X52650Y-31989
X66650Y-30989
X80650Y-29989
X35650Y-46989
X68650Y-42989
X58650Y-40989
X82650Y-34989
X62650Y-38989
X76650Y-37989
X85650Y-33989
X69650Y-39989
X83650Y-38989
X57650Y-43989
X47650Y-29989
X61650Y-28989
X75650Y-27989
X57650Y-49989
X23650Y-49989
X52650Y-32989
X66650Y-31989
X27650Y-33989
X40650Y-36989
X22650Y-44989
X36650Y-37989
X64650Y-44989
X74650Y-41989
X23650Y-41989
X23650Y-43989
X63650Y-26989
X77650Y-25989
X80650Y-24989
X25650Y-24989
X79650Y-30989
X24650Y-30989
X38650Y-45989
X71650Y-40989
X85650Y-39989
X26650Y-35989
X89650Y-37989
X29650Y-34989
X27650Y-39989
X70650Y-43989
X74650Y-28989
X88650Y-27989
X79650Y-31989
X40650Y-33989
X53650Y-36989
X67650Y-35989
X35650Y-44989
X49650Y-37989
X77650Y-44989
X47650Y-45989
X36650Y-41989
X36650Y-43989
X76650Y-26989
X90650Y-25989
X24650Y-25989
X38650Y-24989
X23650Y-31989
X37650Y-30989
X29650Y-40989
X39650Y-35989
X33650Y-38989
X42650Y-34989
X40650Y-39989
X87650Y-28989
X32650Y-28989
X85650Y-44989
X33650Y-49989
X55650Y-46989
X86650Y-41989
X23650Y-32989
X53650Y-33989
X67650Y-32989
X66650Y-36989
X80650Y-35989
X30650Y-48989
X89650Y-47989
X34650Y-47989
X62650Y-37989
X76650Y-36989
X45650Y-41989
X60650Y-45989
X89650Y-26989
X34650Y-26989
X48650Y-25989
X37650Y-25989
X51650Y-24989
X36650Y-31989
X50650Y-30989
X64650Y-29989
X52650Y-42989
X42650Y-40989
X52650Y-35989
X66650Y-34989
X46650Y-38989
X55650Y-34989
X69650Y-33989
X53650Y-39989
X31650Y-29989
X45650Y-28989
X59650Y-27989
X42650Y-49989
X30650Y-42989
X36650Y-32989
X80650Y-32989
X24650Y-36989
X89650Y-36989
X48650Y-44989
X58650Y-41989
X76650Y-40989
X33650Y-27989
X47650Y-26989
X61650Y-25989
X87650Y-45989
X64650Y-24989
X49650Y-31989
X63650Y-30989
X77650Y-29989
X32650Y-46989
X90650Y-48989
X65650Y-42989
X55650Y-40989
X65650Y-35989
X79650Y-34989
X59650Y-38989
X73650Y-37989
X24650Y-47989
X82650Y-33989
X66650Y-39989
X80650Y-38989
X54650Y-43989
X44650Y-29989
X58650Y-28989
X72650Y-27989
X90650Y-49989
X47650Y-48989
X49650Y-32989
X63650Y-31989
X24650Y-33989
X37650Y-36989
X88650Y-43989
X49650Y-47989
X33650Y-37989
X61650Y-44989
X71650Y-41989
X89650Y-40989
X89650Y-42989
X46650Y-27989
X60650Y-26989
X74650Y-25989
X77650Y-24989
X22650Y-24989
X76650Y-30989
X90650Y-29989
X35650Y-45989
X68650Y-40989
X82650Y-39989
X23650Y-35989
X86650Y-37989
X26650Y-34989
X24650Y-39989
X67650Y-43989
X71650Y-28989
X85650Y-27989
X76650Y-31989
X37650Y-33989
X50650Y-36989
X32650Y-44989
X57650Y-47989
X37650Y-48989
X46650Y-37989
X74650Y-44989
X51650Y-49989
X33650Y-41989
X33650Y-43989
X73650Y-26989
X87650Y-25989
X90650Y-24989
X35650Y-24989
X89650Y-30989
X34650Y-30989
X26650Y-40989
X36650Y-35989
X30650Y-38989
X39650Y-34989
X37650Y-39989
X84650Y-28989
X29650Y-28989
X82650Y-44989
X30650Y-49989
X52650Y-46989
X83650Y-41989
X89650Y-31989
X50650Y-33989
X64650Y-32989
X63650Y-36989
X77650Y-35989
X27650Y-48989
X59650Y-47989
X59650Y-37989
X73650Y-36989
X42650Y-41989
X57650Y-45989
X86650Y-26989
X31650Y-26989
X45650Y-25989
X34650Y-25989
X48650Y-24989
X33650Y-31989
X47650Y-30989
X61650Y-29989
X49650Y-42989
X39650Y-40989
X49650Y-35989
X43650Y-38989
X52650Y-34989
X66650Y-33989
X50650Y-39989
X28650Y-29989
X42650Y-28989
X56650Y-27989
X26650Y-45989
X39650Y-49989
X27650Y-42989
X33650Y-32989
X77650Y-32989
X90650Y-35989
X86650Y-36989
X45650Y-44989
X55650Y-41989
X30650Y-27989
X44650Y-26989
X58650Y-25989
X61650Y-24989
X46650Y-31989
X60650Y-30989
X74650Y-29989
X29650Y-46989
X60650Y-48989
X62650Y-42989
X52650Y-40989
X62650Y-35989
X76650Y-34989
X56650Y-38989
X70650Y-37989
X90650Y-46989
X79650Y-33989
X63650Y-39989
X77650Y-38989
X51650Y-43989
X41650Y-29989
X55650Y-28989
X69650Y-27989
X40650Y-42989
X88650Y-49989
X44650Y-48989
X46650Y-32989
X60650Y-31989
X90650Y-32989
X34650Y-36989
X85650Y-43989
X46650Y-47989
X30650Y-37989
X58650Y-44989
X68650Y-41989
X86650Y-40989
X86650Y-42989
X43650Y-27989
X57650Y-26989
X71650Y-25989
X74650Y-24989
X73650Y-30989
X87650Y-29989
X42650Y-46989
X32650Y-45989
X75650Y-42989
X65650Y-40989
X79650Y-39989
X89650Y-34989
X69650Y-38989
X83650Y-37989
X23650Y-34989
X90650Y-38989
X64650Y-43989
X68650Y-28989
X82650Y-27989
X59650Y-32989
X73650Y-31989
X34650Y-33989
X47650Y-36989
X29650Y-44989
X54650Y-47989
X34650Y-48989
X43650Y-37989
X71650Y-44989
X48650Y-49989
X30650Y-41989
X30650Y-43989
X70650Y-26989
X84650Y-25989
X87650Y-24989
X32650Y-24989
X86650Y-30989
X31650Y-30989
X23650Y-40989
X33650Y-35989
X27650Y-38989
X36650Y-34989
X34650Y-39989
X77650Y-43989
X81650Y-28989
X26650Y-28989
X49650Y-46989
X80650Y-41989
X86650Y-31989
X47650Y-33989
X61650Y-32989
X60650Y-36989
X74650Y-35989
X42650Y-44989
X24650Y-48989
X56650Y-37989
X70650Y-36989
X54650Y-45989
X43650Y-43989
X83650Y-26989
X28650Y-26989
X31650Y-25989
X45650Y-24989
X30650Y-31989
X44650Y-30989
X58650Y-29989
X46650Y-42989
X36650Y-40989
X46650Y-35989
X40650Y-38989
X49650Y-34989
X63650Y-33989
X47650Y-39989
X25650Y-29989
X39650Y-28989
X53650Y-27989
X23650Y-45989
X24650Y-42989
X30650Y-32989
X60650Y-33989
X74650Y-32989
X87650Y-35989
X54650Y-48989
X41650Y-47989
X69650Y-37989
X83650Y-36989
X52650Y-41989
X27650Y-27989
X41650Y-26989
X55650Y-25989
X58650Y-24989
X43650Y-31989
X57650Y-30989
X71650Y-29989
X57650Y-48989
X59650Y-42989
X49650Y-40989
X59650Y-35989
X73650Y-34989
X53650Y-38989
X62650Y-34989
X76650Y-33989
X60650Y-39989
X74650Y-38989
X48650Y-43989
X38650Y-29989
X52650Y-28989
X66650Y-27989
X37650Y-42989
X41650Y-48989
X43650Y-32989
X87650Y-32989
X31650Y-36989
X82650Y-43989
X31650Y-47989
X43650Y-47989
X27650Y-37989
X55650Y-44989
X65650Y-41989
X83650Y-40989
X83650Y-42989
X40650Y-27989
X54650Y-26989
X68650Y-25989
X25650Y-46989
X71650Y-24989
X56650Y-31989
X70650Y-30989
X84650Y-29989
X39650Y-46989
X29650Y-45989
X72650Y-42989
X62650Y-40989
X76650Y-39989
X86650Y-34989
X66650Y-38989
X80650Y-37989
X89650Y-33989
X73650Y-39989
X87650Y-38989
X61650Y-43989
X51650Y-29989
X65650Y-28989
X79650Y-27989
X27650Y-49989
X56650Y-32989
X70650Y-31989
X31650Y-33989
X44650Y-36989
X26650Y-44989
X51650Y-47989
X40650Y-37989
X68650Y-44989
X27650Y-41989
X27650Y-43989
X67650Y-26989
X81650Y-25989
X84650Y-24989
X29650Y-24989
X83650Y-30989
X28650Y-30989
X42650Y-45989
X75650Y-40989
X89650Y-39989
X30650Y-35989
X24650Y-38989
X33650Y-34989
X31650Y-39989
X74650Y-43989
X78650Y-28989
X23650Y-28989
X46650Y-46989
X77650Y-41989
X83650Y-31989
X44650Y-33989
X57650Y-36989
X71650Y-35989
X39650Y-44989
X53650Y-37989
X51650Y-45989
X40650Y-41989
X40650Y-43989
X80650Y-26989
X25650Y-26989
X28650Y-25989
X42650Y-24989
X27650Y-31989
X41650Y-30989
X55650Y-29989
X43650Y-42989
X33650Y-40989
X43650Y-35989
X37650Y-38989
X46650Y-34989
X44650Y-39989
X22650Y-29989
X36650Y-28989
X50650Y-27989
X89650Y-44989
X37650Y-49989
X59650Y-46989
X90650Y-41989
X27650Y-32989
X57650Y-33989
X71650Y-32989
X84650Y-35989
X51650Y-48989
X38650Y-47989
X66650Y-37989
X80650Y-36989
X49650Y-41989
X24650Y-27989
X38650Y-26989
X52650Y-25989
X41650Y-25989
X55650Y-24989
X40650Y-31989
X54650Y-30989
X68650Y-29989
X56650Y-42989
X46650Y-40989
X56650Y-35989
X70650Y-34989
X50650Y-38989
X59650Y-34989
X73650Y-33989
X57650Y-39989
X45650Y-43989
T0
M30
